NunitoSans-ExpandedLight.ufo
<glyph name="exclam" format="2">
  <advance width="262.1867469879518"/>
  <unicode hex="0021"/>
  <outline>
    <contour>
      <point x="110.08433734939759" y="176.67469879518072" type="line"/>
      <point x="152.1024096385542" y="176.67469879518072" type="line"/>
      <point x="173.39759036144576" y="705.0" type="line"/>
      <point x="88.78915662650601" y="705.0" type="line"/>
    </contour>
    <contour>
      <point x="84.33734939759037" y="0.0" type="line"/>
      <point x="177.73493975903614" y="0.0" type="line"/>
      <point x="177.73493975903614" y="91.28313253012047" type="line"/>
      <point x="84.33734939759037" y="91.28313253012047" type="line"/>
    </contour>
  </outline>
</glyph>
<glyph name="numbersign" format="2">
  <advance width="723.8313253012049"/>
  <unicode hex="0023"/>
  <outline>
    <contour>
      <point x="110.87951807228916" y="0.0" type="line"/>
      <point x="171.21084337349396" y="0.0" type="line"/>
      <point x="216.29518072289156" y="185.19277108433735" type="line"/>
      <point x="423.1626506024096" y="185.19277108433735" type="line"/>
      <point x="378.078313253012" y="0.0" type="line"/>
      <point x="438.4096385542168" y="0.0" type="line"/>
      <point x="483.37951807228916" y="185.19277108433735" type="line"/>
      <point x="668.9698795180723" y="185.19277108433735" type="line"/>
      <point x="668.9698795180723" y="237.26506024096386" type="line"/>
      <point x="495.5542168674699" y="237.26506024096386" type="line"/>
      <point x="554.0361445783133" y="475.73493975903614" type="line"/>
      <point x="693.4277108433736" y="475.73493975903614" type="line"/>
      <point x="693.4277108433736" y="527.8072289156627" type="line"/>
      <point x="566.2108433734941" y="527.8072289156627" type="line"/>
      <point x="609.4096385542168" y="705.0" type="line"/>
      <point x="549.0783132530121" y="705.0" type="line"/>
      <point x="505.99397590361446" y="527.8072289156627" type="line"/>
      <point x="299.2409638554217" y="527.8072289156627" type="line"/>
      <point x="342.32530120481925" y="705.0" type="line"/>
      <point x="281.87951807228916" y="705.0" type="line"/>
      <point x="238.90963855421688" y="527.8072289156627" type="line"/>
      <point x="54.86144578313253" y="527.8072289156627" type="line"/>
      <point x="54.86144578313253" y="475.73493975903614" type="line"/>
      <point x="226.73493975903614" y="475.73493975903614" type="line"/>
      <point x="168.25301204819277" y="237.26506024096386" type="line"/>
      <point x="30.403614457831324" y="237.26506024096386" type="line"/>
      <point x="30.403614457831324" y="185.19277108433735" type="line"/>
      <point x="155.84939759036143" y="185.19277108433735" type="line"/>
    </contour>
    <contour>
      <point x="228.5843373493976" y="237.26506024096386" type="line"/>
      <point x="287.18072289156623" y="475.73493975903614" type="line"/>
      <point x="493.7048192771084" y="475.73493975903614" type="line"/>
      <point x="435.10843373493975" y="237.26506024096386" type="line"/>
    </contour>
  </outline>
</glyph>
<glyph name="dollar" format="2">
  <advance width="748.0"/>
  <unicode hex="0024"/>
  <outline>
    <contour>
      <point x="355.4457831325301" y="-115.0" type="line"/>
      <point x="416.5542168674699" y="-115.0" type="line"/>
      <point x="416.5542168674699" y="11.831325301204819" type="line"/>
      <point x="395.66265060240966" y="-4.343373493975903" type="line"/>
      <point x="572.4096385542168" y="-0.6265060240963858"/>
      <point x="676.3253012048192" y="68.09036144578313"/>
      <point x="676.3253012048192" y="183.06626506024097" type="curve" smooth="yes"/>
      <point x="676.3253012048192" y="288.86746987951807"/>
      <point x="611.6385542168675" y="342.81325301204816"/>
      <point x="458.66867469879514" y="364.1566265060241" type="curve" smooth="yes"/>
      <point x="309.54819277108436" y="385.18674698795184" type="line" smooth="yes"/>
      <point x="201.27710843373492" y="399.9277108433735"/>
      <point x="154.22289156626508" y="436.6927710843373"/>
      <point x="154.22289156626508" y="512.367469879518" type="curve" smooth="yes"/>
      <point x="154.22289156626508" y="597.1265060240963"/>
      <point x="238.6987951807229" y="648.632530120482"/>
      <point x="379.3132530120482" y="648.632530120482" type="curve" smooth="yes"/>
      <point x="479.3433734939759" y="648.632530120482"/>
      <point x="551.9457831325301" y="623.6626506024097"/>
      <point x="625.3433734939758" y="562.8674698795181" type="curve"/>
      <point x="655.6084337349398" y="616.8614457831326" type="line"/>
      <point x="592.6385542168674" y="674.5722891566265"/>
      <point x="506.06626506024094" y="705.7710843373494"/>
      <point x="402.2951807228916" y="709.2289156626506" type="curve"/>
      <point x="416.5542168674699" y="695.4277108433735" type="line"/>
      <point x="416.5542168674699" y="820.0" type="line"/>
      <point x="355.4457831325301" y="820.0" type="line"/>
      <point x="355.4457831325301" y="695.4277108433735" type="line"/>
      <point x="373.1325301204819" y="709.0" type="line"/>
      <point x="197.01807228915663" y="706.9397590361446"/>
      <point x="85.04819277108435" y="629.566265060241"/>
      <point x="85.04819277108435" y="508.7650602409638" type="curve" smooth="yes"/>
      <point x="85.04819277108435" y="401.8493975903615"/>
      <point x="154.22289156626505" y="343.2469879518072"/>
      <point x="300.4216867469879" y="323.4759036144578" type="curve" smooth="yes"/>
      <point x="451.19879518072287" y="303.01807228915663" type="line" smooth="yes"/>
      <point x="563.6686746987953" y="287.50602409638554"/>
      <point x="607.3795180722891" y="253.82530120481928"/>
      <point x="607.3795180722891" y="178.34939759036143" type="curve" smooth="yes"/>
      <point x="607.3795180722891" y="100.01807228915662"/>
      <point x="527.7590361445783" y="56.367469879518076"/>
      <point x="383.6867469879518" y="56.367469879518076" type="curve" smooth="yes"/>
      <point x="264.0301204819277" y="56.367469879518076"/>
      <point x="181.3132530120482" y="80.02409638554217"/>
      <point x="95.6566265060241" y="138.96385542168676" type="curve"/>
      <point x="65.39156626506023" y="83.71084337349397" type="line"/>
      <point x="141.70481927710844" y="27.885542168674696"/>
      <point x="245.84939759036146" y="-2.8855421686746987"/>
      <point x="370.81927710843377" y="-4.457831325301205" type="curve"/>
      <point x="355.4457831325301" y="10.831325301204819" type="line"/>
    </contour>
  </outline>
</glyph>
<glyph name="percent" format="2">
  <advance width="1141.2409638554216"/>
  <unicode hex="0025"/>
  <outline>
    <contour>
      <point x="336.7590361445783" y="-24.373493975903614" type="line"/>
      <point x="851.6987951807229" y="696.7048192771084" type="line"/>
      <point x="804.710843373494" y="728.487951807229" type="line"/>
      <point x="289.5421686746988" y="7.409638554216867" type="line"/>
    </contour>
    <contour>
      <point x="280.6265060240964" y="283.0301204819277" type="curve" smooth="yes"/>
      <point x="408.06024096385545" y="283.0301204819277"/>
      <point x="484.7469879518072" y="363.4879518072289"/>
      <point x="484.7469879518072" y="497.80120481927713" type="curve" smooth="yes"/>
      <point x="484.7469879518072" y="632.2289156626506"/>
      <point x="408.28915662650604" y="712.8012048192771"/>
      <point x="280.6265060240964" y="712.8012048192771" type="curve" smooth="yes"/>
      <point x="152.84939759036146" y="712.8012048192771"/>
      <point x="76.50602409638554" y="631.7710843373494"/>
      <point x="76.50602409638554" y="497.80120481927713" type="curve" smooth="yes"/>
      <point x="76.50602409638554" y="363.6024096385542"/>
      <point x="153.19277108433735" y="283.0301204819277"/>
    </contour>
    <contour>
      <point x="280.6265060240964" y="332.7048192771084" type="curve" smooth="yes"/>
      <point x="191.49397590361446" y="332.7048192771084"/>
      <point x="137.9578313253012" y="392.4698795180723"/>
      <point x="137.9578313253012" y="497.80120481927713" type="curve" smooth="yes"/>
      <point x="137.9578313253012" y="603.0180722891566"/>
      <point x="191.49397590361446" y="663.1265060240963"/>
      <point x="280.6265060240964" y="663.1265060240963" type="curve" smooth="yes"/>
      <point x="369.8734939759036" y="663.1265060240963"/>
      <point x="423.29518072289153" y="603.1325301204819"/>
      <point x="423.29518072289153" y="497.80120481927713" type="curve" smooth="yes"/>
      <point x="423.29518072289153" y="392.355421686747"/>
      <point x="369.7590361445783" y="332.7048192771084"/>
    </contour>
    <contour>
      <point x="860.843373493976" y="-8.572289156626507" type="curve" smooth="yes"/>
      <point x="988.277108433735" y="-8.572289156626507"/>
      <point x="1064.9638554216867" y="71.88554216867469"/>
      <point x="1064.9638554216867" y="206.19879518072287" type="curve" smooth="yes"/>
      <point x="1064.9638554216867" y="340.6265060240964"/>
      <point x="988.5060240963855" y="421.1987951807229"/>
      <point x="860.843373493976" y="421.1987951807229" type="curve" smooth="yes"/>
      <point x="733.066265060241" y="421.1987951807229"/>
      <point x="656.722891566265" y="340.1686746987952"/>
      <point x="656.722891566265" y="206.19879518072287" type="curve" smooth="yes"/>
      <point x="656.722891566265" y="72.0"/>
      <point x="733.4096385542168" y="-8.572289156626507"/>
    </contour>
    <contour>
      <point x="860.843373493976" y="41.10240963855422" type="curve" smooth="yes"/>
      <point x="771.710843373494" y="41.10240963855422"/>
      <point x="718.1746987951807" y="100.86746987951807"/>
      <point x="718.1746987951807" y="206.19879518072287" type="curve" smooth="yes"/>
      <point x="718.1746987951807" y="311.41566265060237"/>
      <point x="771.710843373494" y="371.5240963855422"/>
      <point x="860.843373493976" y="371.5240963855422" type="curve" smooth="yes"/>
      <point x="950.0903614457832" y="371.5240963855422"/>
      <point x="1003.5120481927711" y="311.5301204819277"/>
      <point x="1003.5120481927711" y="206.19879518072287" type="curve" smooth="yes"/>
      <point x="1003.5120481927711" y="100.75301204819277"/>
      <point x="949.9759036144578" y="41.10240963855422"/>
    </contour>
  </outline>
</glyph>
<glyph name="ampersand" format="2">
  <advance width="833.4819277108434"/>
  <unicode hex="0026"/>
  <outline>
    <contour>
      <point x="331.32530120481925" y="-8.457831325301205" type="curve" smooth="yes"/>
      <point x="454.49397590361446" y="-8.457831325301205"/>
      <point x="553.6084337349398" y="32.168674698795186"/>
      <point x="622.7530120481929" y="107.07831325301204" type="curve"/>
      <point x="607.8072289156627" y="107.07831325301204" type="line"/>
      <point x="723.4879518072289" y="0.0" type="line"/>
      <point x="808.6686746987953" y="0.0" type="line"/>
      <point x="645.5963855421687" y="147.23493975903614" type="line"/>
      <point x="646.8253012048193" y="132.43373493975903" type="line"/>
      <point x="700.3132530120482" y="202.12048192771084"/>
      <point x="732.2289156626506" y="296.8072289156627"/>
      <point x="738.3433734939758" y="409.8072289156626" type="curve"/>
      <point x="676.3192771084338" y="409.8072289156626" type="line"/>
      <point x="672.2048192771084" y="310.2409638554217"/>
      <point x="647.3192771084338" y="228.644578313253"/>
      <point x="603.4638554216867" y="169.01807228915663" type="curve"/>
      <point x="619.7228915662652" y="169.01807228915663" type="line"/>
      <point x="375.3975903614458" y="393.05421686746985" type="line"/>
      <point x="368.62048192771084" y="378.5903614457832" type="line"/>
      <point x="490.36746987951807" y="434.2168674698795"/>
      <point x="551.6265060240964" y="495.933734939759"/>
      <point x="551.6265060240964" y="573.5361445783132" type="curve" smooth="yes"/>
      <point x="551.6265060240964" y="657.5120481927711"/>
      <point x="481.3072289156627" y="713.4578313253012"/>
      <point x="372.86746987951807" y="713.4578313253012" type="curve" smooth="yes"/>
      <point x="262.80120481927713" y="713.4578313253012"/>
      <point x="187.99397590361446" y="654.0542168674698"/>
      <point x="187.99397590361446" y="567.6204819277108" type="curve" smooth="yes"/>
      <point x="187.99397590361446" y="497.10843373493975"/>
      <point x="238.24698795180723" y="443.4518072289157"/>
      <point x="297.4759036144579" y="389.59638554216866" type="curve"/>
      <point x="306.5963855421687" y="403.51807228915663" type="line"/>
      <point x="270.0843373493976" y="384.89156626506025" type="line" smooth="yes"/>
      <point x="171.30722891566265" y="336.72289156626505"/>
      <point x="77.05421686746988" y="276.40361445783134"/>
      <point x="77.05421686746988" y="167.57831325301206" type="curve" smooth="yes"/>
      <point x="77.05421686746988" y="58.403614457831324"/>
      <point x="173.63253012048193" y="-8.457831325301205"/>
    </contour>
    <contour>
      <point x="332.95783132530124" y="46.30722891566265" type="curve" smooth="yes"/>
      <point x="209.7951807228916" y="46.30722891566265"/>
      <point x="143.88554216867468" y="91.13253012048192"/>
      <point x="143.88554216867468" y="170.32530120481928" type="curve" smooth="yes"/>
      <point x="143.88554216867468" y="259.8855421686747"/>
      <point x="222.90361445783134" y="305.2530120481928"/>
      <point x="308.46987951807233" y="348.2469879518072" type="curve" smooth="yes"/>
      <point x="346.4096385542168" y="367.64457831325296" type="line"/>
      <point x="320.7710843373494" y="369.13253012048193" type="line"/>
      <point x="578.2469879518073" y="131.66265060240963" type="line"/>
      <point x="578.2469879518071" y="143.12048192771084" type="line"/>
      <point x="521.8795180722891" y="79.64457831325302"/>
      <point x="438.71686746987956" y="46.30722891566265"/>
    </contour>
    <contour>
      <point x="372.7530120481928" y="662.6385542168674" type="curve" smooth="yes"/>
      <point x="444.51807228915663" y="662.6385542168674"/>
      <point x="490.2289156626506" y="625.7880240963856"/>
      <point x="490.2289156626506" y="570.5060240963855" type="curve" smooth="yes"/>
      <point x="490.2289156626506" y="494.2831325301205"/>
      <point x="403.63253012048193" y="450.7168674698795"/>
      <point x="334.8614457831325" y="416.54819277108436" type="curve"/>
      <point x="350.4156626506024" y="415.63253012048193" type="line"/>
      <point x="287.4759036144578" y="472.8855421686747"/>
      <point x="249.50602409638554" y="511.59638554216866"/>
      <point x="249.50602409638554" y="563.9638554216867" type="curve" smooth="yes"/>
      <point x="249.50602409638554" y="623.9166506024096"/>
      <point x="298.75903614457826" y="662.6385542168674"/>
    </contour>
  </outline>
</glyph>
<glyph name="parenleft" format="2">
  <advance width="357.2590361445783"/>
  <unicode hex="0028"/>
  <outline>
    <contour>
      <point x="265.43975903614455" y="-191.14457831325302" type="curve"/>
      <point x="314.5722891566265" y="-169.96385542168673" type="line"/>
      <point x="233.91566265060243" y="-24.903614457831324"/>
      <point x="195.74698795180723" y="114.25903614457832"/>
      <point x="195.74698795180723" y="263.0" type="curve" smooth="yes"/>
      <point x="195.74698795180723" y="411.96987951807233"/>
      <point x="233.91566265060243" y="550.9036144578313"/>
      <point x="314.5722891566265" y="695.9638554216868" type="curve"/>
      <point x="265.43975903614455" y="717.144578313253" type="line"/>
      <point x="171.06024096385542" y="567.4337349397591"/>
      <point x="125.3132530120482" y="419.9759036144579"/>
      <point x="125.3132530120482" y="263.0" type="curve" smooth="yes"/>
      <point x="125.3132530120482" y="106.25301204819277"/>
      <point x="171.06024096385542" y="-41.54819277108434"/>
    </contour>
  </outline>
</glyph>
<glyph name="parenright" format="2">
  <advance width="357.2590361445783"/>
  <unicode hex="0029"/>
  <outline>
    <contour>
      <point x="91.81927710843374" y="-191.14457831325302" type="line"/>
      <point x="186.1987951807229" y="-41.54819277108434"/>
      <point x="231.94578313253012" y="106.25301204819277"/>
      <point x="231.94578313253012" y="263.0" type="curve" smooth="yes"/>
      <point x="231.94578313253012" y="419.8614457831325"/>
      <point x="186.1987951807229" y="567.5481927710844"/>
      <point x="91.81927710843374" y="717.144578313253" type="curve"/>
      <point x="42.68674698795181" y="695.9638554216868" type="line"/>
      <point x="123.2289156626506" y="550.9036144578313"/>
      <point x="161.74096385542168" y="411.855421686747"/>
      <point x="161.74096385542168" y="263.0" type="curve" smooth="yes"/>
      <point x="161.74096385542168" y="114.144578313253"/>
      <point x="123.2289156626506" y="-24.903614457831324"/>
      <point x="42.68674698795181" y="-169.96385542168673" type="curve"/>
    </contour>
  </outline>
</glyph>
<glyph name="asterisk" format="2">
  <advance width="491.06024096385545"/>
  <unicode hex="002A"/>
  <outline>
    <contour>
      <point x="165.03614457831324" y="331.644578313253" type="line"/>
      <point x="250.06024096385542" y="488.84337349397595" type="line"/>
      <point x="241.3433734939759" y="488.84337349397595" type="line"/>
      <point x="325.2530120481928" y="332.4156626506024" type="line"/>
      <point x="371.8975903614458" y="358.59638554216866" type="line"/>
      <point x="276.32530120481925" y="513.1084337349397" type="line"/>
      <point x="267.46385542168673" y="501.75903614457826" type="line"/>
      <point x="451.20481927710847" y="495.6144578313253" type="line"/>
      <point x="451.20481927710847" y="548.6325301204819" type="line"/>
      <point x="267.46385542168673" y="543.1445783132531" type="line"/>
      <point x="276.32530120481925" y="532.7951807228916" type="line"/>
      <point x="371.8975903614458" y="686.1927710843373" type="line"/>
      <point x="325.2530120481928" y="713.6024096385543" type="line"/>
      <point x="241.3433734939759" y="556.632530120482" type="line"/>
      <point x="250.06024096385542" y="556.632530120482" type="line"/>
      <point x="165.26506024096386" y="713.6024096385543" type="line"/>
      <point x="118.62048192771084" y="686.4216867469879" type="line"/>
      <point x="215.07831325301206" y="532.566265060241" type="line"/>
      <point x="223.05421686746988" y="543.1445783132531" type="line"/>
      <point x="40.084337349397586" y="548.6325301204819" type="line"/>
      <point x="40.084337349397586" y="495.6144578313253" type="line"/>
      <point x="223.05421686746988" y="501.75903614457826" type="line"/>
      <point x="214.84939759036146" y="513.1084337349397" type="line"/>
      <point x="118.39156626506025" y="358.59638554216866" type="line"/>
    </contour>
  </outline>
</glyph>
<glyph name="plus" format="2">
  <advance width="748.0"/>
  <unicode hex="002B"/>
  <outline>
    <contour>
      <point x="344.5903614457832" y="16.0" type="line"/>
      <point x="403.4096385542168" y="16.0" type="line"/>
      <point x="403.4096385542168" y="260.8192771084337" type="line"/>
      <point x="645.0" y="260.8192771084337" type="line"/>
      <point x="645.0" y="313.29518072289153" type="line"/>
      <point x="403.4096385542168" y="313.29518072289153" type="line"/>
      <point x="403.4096385542168" y="558.0" type="line"/>
      <point x="344.5903614457832" y="558.0" type="line"/>
      <point x="344.5903614457832" y="313.29518072289153" type="line"/>
      <point x="103.0" y="313.29518072289153" type="line"/>
      <point x="103.0" y="260.8192771084337" type="line"/>
      <point x="344.5903614457832" y="260.8192771084337" type="line"/>
    </contour>
  </outline>
</glyph>
<glyph name="hyphen" format="2">
  <advance width="516.1506024096386"/>
  <unicode hex="002D"/>
  <outline>
    <contour>
      <point x="90.28313253012048" y="237.90361445783134" type="line"/>
      <point x="425.86746987951807" y="237.90361445783134" type="line"/>
      <point x="425.86746987951807" y="294.46987951807233" type="line"/>
      <point x="90.28313253012048" y="294.46987951807233" type="line"/>
    </contour>
  </outline>
</glyph>
<glyph name="period" format="2">
  <advance width="262.0722891566265"/>
  <unicode hex="002E"/>
  <outline>
    <contour>
      <point x="84.33734939759037" y="0.0" type="line"/>
      <point x="177.73493975903614" y="0.0" type="line"/>
      <point x="177.73493975903614" y="91.28313253012047" type="line"/>
      <point x="84.33734939759037" y="91.28313253012047" type="line"/>
    </contour>
  </outline>
</glyph>
<glyph name="slash" format="2">
  <advance width="323.1084337349398"/>
  <unicode hex="002F"/>
  <outline>
    <contour>
      <point x="30.96385542168675" y="-59.12048192771085" type="line"/>
      <point x="346.33734939759034" y="726.9698795180723" type="line"/>
      <point x="292.14457831325296" y="748.1204819277108" type="line"/>
      <point x="-23.2289156626506" y="-37.96987951807229" type="line"/>
    </contour>
  </outline>
</glyph>
<glyph name="zero" format="2">
  <advance width="748.0"/>
  <unicode hex="0030"/>
  <outline>
    <contour>
      <point x="374.0" y="-8.457831325301205" type="curve" smooth="yes"/>
      <point x="568.4036144578313" y="-8.457831325301205"/>
      <point x="674.8072289156627" y="119.6867469879518"/>
      <point x="674.8072289156627" y="353.1144578313253" type="curve" smooth="yes"/>
      <point x="674.8072289156627" y="585.5421686746988"/>
      <point x="568.4036144578313" y="713.4578313253012"/>
      <point x="374.0" y="713.4578313253012" type="curve" smooth="yes"/>
      <point x="179.71084337349396" y="713.4578313253012"/>
      <point x="73.19277108433735" y="585.5421686746988"/>
      <point x="73.19277108433735" y="352.0" type="curve" smooth="yes"/>
      <point x="73.19277108433735" y="119.57228915662651"/>
      <point x="179.71084337349396" y="-8.457831325301205"/>
    </contour>
    <contour>
      <point x="374.0" y="50.68072289156627" type="curve" smooth="yes"/>
      <point x="219.1867469879518" y="50.68072289156627"/>
      <point x="142.33734939759034" y="150.1867469879518"/>
      <point x="142.33734939759034" y="352.1144578313253" type="curve" smooth="yes"/>
      <point x="142.33734939759034" y="553.5843373493976"/>
      <point x="219.1867469879518" y="654.3192771084338"/>
      <point x="374.0" y="654.3192771084338" type="curve" smooth="yes"/>
      <point x="528.9277108433736" y="654.3192771084338"/>
      <point x="605.6626506024096" y="554.5843373493976"/>
      <point x="605.6626506024096" y="353.1144578313253" type="curve" smooth="yes"/>
      <point x="605.6626506024096" y="151.1867469879518"/>
      <point x="528.8132530120482" y="50.68072289156627"/>
    </contour>
  </outline>
</glyph>
<glyph name="one" format="2">
  <advance width="748.0"/>
  <unicode hex="0031"/>
  <outline>
    <contour>
      <point x="157.67469879518072" y="0.0" type="line"/>
      <point x="635.5602409638554" y="0.0" type="line"/>
      <point x="635.5602409638554" y="58.825301204819276" type="line"/>
      <point x="436.62048192771084" y="58.825301204819276" type="line"/>
      <point x="436.62048192771084" y="705.0" type="line"/>
      <point x="386.71084337349396" y="705.0" type="line"/>
      <point x="157.1265060240964" y="568.566265060241" type="line"/>
      <point x="185.56626506024097" y="519.5722891566264" type="line"/>
      <point x="405.22891566265065" y="647.8313253012049" type="line"/>
      <point x="368.7590361445783" y="647.8313253012049" type="line"/>
      <point x="368.7590361445783" y="58.825301204819276" type="line"/>
      <point x="157.67469879518072" y="58.825301204819276" type="line"/>
    </contour>
  </outline>
</glyph>
<glyph name="two" format="2">
  <advance width="748.0"/>
  <unicode hex="0032"/>
  <outline>
    <contour>
      <point x="118.42168674698796" y="0.0" type="line"/>
      <point x="665.3493975903614" y="0.0" type="line"/>
      <point x="665.3493975903614" y="58.825301204819276" type="line"/>
      <point x="200.7168674698795" y="58.825301204819276" type="line"/>
      <point x="201.5180722891566" y="46.45180722891566" type="line"/>
      <point x="485.9759036144578" y="278.71084337349396" type="line" smooth="yes"/>
      <point x="541.6987951807229" y="322.68674698795184"/>
      <point x="629.0361445783133" y="400.4879518072289"/>
      <point x="629.0361445783133" y="520.9397590361446" type="curve" smooth="yes"/>
      <point x="629.0361445783133" y="645.9698795180723"/>
      <point x="535.5180722891566" y="713.4578313253012"/>
      <point x="374.5963855421687" y="713.4578313253012" type="curve" smooth="yes"/>
      <point x="258.1385542168675" y="713.4578313253012"/>
      <point x="158.53614457831324" y="678.2590361445783"/>
      <point x="89.81927710843374" y="614.632530120482" type="curve"/>
      <point x="121.2289156626506" y="560.5240963855422" type="line"/>
      <point x="190.96987951807228" y="622.6626506024096"/>
      <point x="269.31325301204816" y="652.632530120482"/>
      <point x="370.10843373493975" y="652.632530120482" type="curve" smooth="yes"/>
      <point x="491.7831325301205" y="652.632530120482"/>
      <point x="558.9759036144578" y="609.066265060241"/>
      <point x="558.9759036144578" y="514.3072289156627" type="curve" smooth="yes"/>
      <point x="558.9759036144578" y="413.9759036144578"/>
      <point x="483.6385542168675" y="352.8373493975904"/>
      <point x="445.86746987951807" y="321.4096385542169" type="curve" smooth="yes"/>
      <point x="118.42168674698796" y="50.795180722891565" type="line"/>
    </contour>
  </outline>
</glyph>
<glyph name="three" format="2">
  <advance width="748.0"/>
  <unicode hex="0033"/>
  <outline>
    <contour>
      <point x="370.59638554216866" y="-8.457831325301205" type="curve" smooth="yes"/>
      <point x="542.5180722891566" y="-8.457831325301205"/>
      <point x="650.8373493975904" y="63.68674698795181"/>
      <point x="650.8373493975904" y="189.25903614457832" type="curve" smooth="yes"/>
      <point x="650.8373493975904" y="287.80120481927713"/>
      <point x="582.6084337349398" y="351.2590361445783"/>
      <point x="457.5240963855421" y="368.80120481927713" type="curve"/>
      <point x="457.5240963855421" y="358.2289156626506" type="line"/>
      <point x="563.2951807228916" y="378.2289156626506"/>
      <point x="626.3795180722892" y="444.19879518072287"/>
      <point x="626.3795180722892" y="535.2831325301205" type="curve" smooth="yes"/>
      <point x="626.3795180722892" y="647.9698795180723"/>
      <point x="530.2048192771084" y="713.4578313253012"/>
      <point x="372.5120481927711" y="713.4578313253012" type="curve" smooth="yes"/>
      <point x="257.48192771084337" y="713.4578313253012"/>
      <point x="157.19277108433735" y="678.1445783132531"/>
      <point x="89.93373493975903" y="614.632530120482" type="curve"/>
      <point x="121.11445783132531" y="562.2951807228916" type="line"/>
      <point x="190.96987951807228" y="624.6626506024096"/>
      <point x="268.16867469879514" y="652.632530120482"/>
      <point x="368.87951807228916" y="652.632530120482" type="curve" smooth="yes"/>
      <point x="489.355421686747" y="652.632530120482"/>
      <point x="557.1204819277108" y="609.4096385542168"/>
      <point x="557.1204819277108" y="527.5060240963855" type="curve" smooth="yes"/>
      <point x="557.1204819277108" y="441.1746987951807"/>
      <point x="482.15662650602405" y="387.66867469879514"/>
      <point x="354.0240963855422" y="387.66867469879514" type="curve" smooth="yes"/>
      <point x="235.19277108433735" y="387.66867469879514" type="line"/>
      <point x="235.19277108433735" y="328.9578313253012" type="line"/>
      <point x="358.5421686746988" y="328.9578313253012" type="line" smooth="yes"/>
      <point x="507.3855421686747" y="328.9578313253012"/>
      <point x="581.578313253012" y="283.6506024096385"/>
      <point x="581.578313253012" y="192.12048192771084" type="curve" smooth="yes"/>
      <point x="581.578313253012" y="101.01807228915663"/>
      <point x="509.0120481927711" y="52.367469879518076"/>
      <point x="370.0240963855421" y="52.367469879518076" type="curve" smooth="yes"/>
      <point x="266.28313253012044" y="52.367469879518076"/>
      <point x="185.3132530120482" y="78.68072289156626"/>
      <point x="105.2289156626506" y="138.50602409638554" type="curve"/>
      <point x="74.93373493975903" y="83.93975903614458" type="line"/>
      <point x="146.59036144578312" y="25.313253012048193"/>
      <point x="252.87951807228916" y="-8.457831325301205"/>
    </contour>
  </outline>
</glyph>
<glyph name="four" format="2">
  <advance width="748.0"/>
  <unicode hex="0034"/>
  <outline>
    <contour>
      <point x="492.95180722891564" y="0.0" type="line"/>
      <point x="560.2409638554217" y="0.0" type="line"/>
      <point x="560.2409638554217" y="156.9879518072289" type="line"/>
      <point x="696.2650602409639" y="156.9879518072289" type="line"/>
      <point x="696.2650602409639" y="215.355421686747" type="line"/>
      <point x="560.2409638554217" y="215.355421686747" type="line"/>
      <point x="560.2409638554217" y="705.0" type="line"/>
      <point x="503.3855421686747" y="705.0" type="line"/>
      <point x="70.53614457831326" y="208.210843373494" type="line"/>
      <point x="70.53614457831326" y="156.9879518072289" type="line"/>
      <point x="492.95180722891564" y="156.9879518072289" type="line"/>
    </contour>
    <contour>
      <point x="492.95180722891564" y="215.355421686747" type="line"/>
      <point x="129.6144578313253" y="215.355421686747" type="line"/>
      <point x="129.6144578313253" y="193.45783132530119" type="line"/>
      <point x="519.7289156626506" y="637.9096385542168" type="line"/>
      <point x="492.95180722891564" y="637.9096385542168" type="line"/>
    </contour>
  </outline>
</glyph>
<glyph name="five" format="2">
  <advance width="748.0"/>
  <unicode hex="0035"/>
  <outline>
    <contour>
      <point x="395.7951807228916" y="-8.457831325301205" type="curve" smooth="yes"/>
      <point x="571.6024096385541" y="-8.457831325301205"/>
      <point x="683.3493975903614" y="77.3433734939759"/>
      <point x="683.3493975903614" y="219.28915662650604" type="curve" smooth="yes"/>
      <point x="683.3493975903614" y="353.7469879518072"/>
      <point x="583.433734939759" y="439.2048192771084"/>
      <point x="420.06024096385545" y="439.2048192771084" type="curve" smooth="yes"/>
      <point x="317.9518072289157" y="439.2048192771084"/>
      <point x="234.01204819277106" y="405.60843373493975"/>
      <point x="188.6987951807229" y="347.72891566265065" type="curve"/>
      <point x="206.47590361445785" y="347.72891566265065" type="line"/>
      <point x="206.47590361445785" y="646.4036144578313" type="line"/>
      <point x="631.777108433735" y="646.4036144578313" type="line"/>
      <point x="631.777108433735" y="705.0" type="line"/>
      <point x="140.10240963855424" y="705.0" type="line"/>
      <point x="140.10240963855424" y="288.76506024096386" type="line"/>
      <point x="194.57831325301206" y="288.76506024096386" type="line"/>
      <point x="246.34939759036143" y="350.1566265060241"/>
      <point x="316.144578313253" y="379.6385542168674"/>
      <point x="405.3373493975904" y="379.6385542168674" type="curve" smooth="yes"/>
      <point x="537.8975903614457" y="379.6385542168674"/>
      <point x="614.0903614457832" y="315.5903614457831"/>
      <point x="614.0903614457832" y="215.289156626506" type="curve" smooth="yes"/>
      <point x="614.0903614457832" y="110.10240963855422"/>
      <point x="531.2409638554217" y="52.367469879518076"/>
      <point x="395.566265060241" y="52.367469879518076" type="curve" smooth="yes"/>
      <point x="300.36746987951807" y="52.367469879518076"/>
      <point x="219.93975903614458" y="79.68072289156626"/>
      <point x="140.4277108433735" y="138.27710843373495" type="curve"/>
      <point x="110.13253012048193" y="83.71084337349397" type="line"/>
      <point x="180.21686746987953" y="25.427710843373497"/>
      <point x="285.7349397590361" y="-8.457831325301205"/>
    </contour>
  </outline>
</glyph>
<glyph name="six" format="2">
  <advance width="748.0"/>
  <unicode hex="0036"/>
  <outline>
    <contour>
      <point x="402.6566265060241" y="-8.457831325301205" type="curve" smooth="yes"/>
      <point x="563.2349397590361" y="-8.457831325301205"/>
      <point x="676.1506024096386" y="85.6867469879518"/>
      <point x="676.1506024096386" y="217.63253012048193" type="curve" smooth="yes"/>
      <point x="676.1506024096386" y="347.6626506024096"/>
      <point x="566.8373493975904" y="439.46385542168673"/>
      <point x="407.1807228915663" y="439.46385542168673" type="curve" smooth="yes"/>
      <point x="266.7590361445784" y="439.46385542168673"/>
      <point x="159.96385542168676" y="365.2409638554217"/>
      <point x="146.93373493975903" y="247.76506024096386" type="curve"/>
      <point x="155.42168674698794" y="247.76506024096386" type="line"/>
      <point x="155.42168674698794" y="347.06626506024094" type="line" smooth="yes"/>
      <point x="155.42168674698794" y="549.3012048192771"/>
      <point x="254.84337349397592" y="652.632530120482"/>
      <point x="428.06024096385545" y="652.632530120482" type="curve" smooth="yes"/>
      <point x="506.6024096385542" y="652.632530120482"/>
      <point x="583.1144578313252" y="625.777108433735"/>
      <point x="643.656626506024" y="572.066265060241" type="curve"/>
      <point x="672.9518072289156" y="626.1746987951807" type="line"/>
      <point x="617.8915662650602" y="678.7168674698795"/>
      <point x="518.6927710843374" y="713.4578313253012"/>
      <point x="429.17469879518075" y="713.4578313253012" type="curve" smooth="yes"/>
      <point x="214.36746987951807" y="713.4578313253012"/>
      <point x="87.39156626506023" y="578.5722891566265"/>
      <point x="87.39156626506023" y="332.48795180722897" type="curve" smooth="yes"/>
      <point x="87.39156626506023" y="116.8855421686747"/>
      <point x="201.48192771084337" y="-8.457831325301205"/>
    </contour>
    <contour>
      <point x="398.0" y="50.765060240963855" type="curve" smooth="yes"/>
      <point x="272.6686746987952" y="50.765060240963855"/>
      <point x="186.96385542168673" y="118.0421686746988"/>
      <point x="186.96385542168673" y="215.06024096385542" type="curve" smooth="yes"/>
      <point x="186.96385542168673" y="312.96385542168673"/>
      <point x="272.6686746987952" y="380.4698795180723"/>
      <point x="398.0" y="380.4698795180723" type="curve" smooth="yes"/>
      <point x="522.3313253012049" y="380.4698795180723"/>
      <point x="608.0361445783132" y="312.96385542168673"/>
      <point x="608.0361445783132" y="215.06024096385542" type="curve" smooth="yes"/>
      <point x="608.0361445783132" y="118.0421686746988"/>
      <point x="522.3313253012049" y="50.765060240963855"/>
    </contour>
  </outline>
</glyph>
<glyph name="seven" format="2">
  <advance width="748.0"/>
  <unicode hex="0037"/>
  <outline>
    <contour>
      <point x="159.52409638554218" y="0.0" type="line"/>
      <point x="236.27710843373492" y="0.0" type="line"/>
      <point x="657.066265060241" y="654.632530120482" type="line"/>
      <point x="657.066265060241" y="705.0" type="line"/>
      <point x="89.50602409638553" y="705.0" type="line"/>
      <point x="89.50602409638553" y="645.0301204819277" type="line"/>
      <point x="600.1506024096385" y="645.0301204819277" type="line"/>
      <point x="599.8072289156627" y="677.9518072289158" type="line"/>
    </contour>
  </outline>
</glyph>
<glyph name="eight" format="2">
  <advance width="748.0"/>
  <unicode hex="0038"/>
  <outline>
    <contour>
      <point x="374.0" y="-8.457831325301205" type="curve" smooth="yes"/>
      <point x="570.8614457831326" y="-8.457831325301205"/>
      <point x="680.0361445783133" y="63.915662650602414"/>
      <point x="680.0361445783133" y="184.83132530120483" type="curve" smooth="yes"/>
      <point x="680.0361445783133" y="284.8313253012048"/>
      <point x="605.6927710843374" y="351.51807228915663"/>
      <point x="480.26506024096386" y="365.0602409638554" type="curve"/>
      <point x="480.26506024096386" y="352.9698795180723" type="line"/>
      <point x="591.6927710843374" y="371.6265060240964"/>
      <point x="659.8072289156627" y="437.1987951807229"/>
      <point x="659.8072289156627" y="528.1987951807229" type="curve" smooth="yes"/>
      <point x="659.8072289156627" y="643.2289156626506"/>
      <point x="553.2048192771084" y="713.4578313253012"/>
      <point x="374.0" y="713.4578313253012" type="curve" smooth="yes"/>
      <point x="194.90963855421685" y="713.4578313253012"/>
      <point x="88.42168674698796" y="643.1144578313254"/>
      <point x="88.42168674698796" y="528.4277108433735" type="curve" smooth="yes"/>
      <point x="88.42168674698796" y="437.31325301204816"/>
      <point x="156.53614457831324" y="371.7409638554217"/>
      <point x="267.73493975903614" y="352.9698795180723" type="curve"/>
      <point x="267.73493975903614" y="365.0602409638554" type="line"/>
      <point x="142.53614457831324" y="351.40361445783134"/>
      <point x="67.96385542168674" y="284.7168674698795"/>
      <point x="67.96385542168674" y="184.83132530120483" type="curve" smooth="yes"/>
      <point x="67.96385542168674" y="63.915662650602414"/>
      <point x="177.13855421686745" y="-8.457831325301205"/>
    </contour>
    <contour>
      <point x="374.0" y="49.53614457831325" type="curve" smooth="yes"/>
      <point x="214.8433734939759" y="49.53614457831325"/>
      <point x="135.96385542168673" y="97.87349397590361"/>
      <point x="135.96385542168673" y="191.20481927710844" type="curve" smooth="yes"/>
      <point x="135.96385542168673" y="283.76506024096386"/>
      <point x="213.8433734939759" y="327.56024096385545"/>
      <point x="374.0" y="327.56024096385545" type="curve" smooth="yes"/>
      <point x="534.3855421686746" y="327.56024096385545"/>
      <point x="612.0361445783132" y="283.76506024096386"/>
      <point x="612.0361445783132" y="191.20481927710844" type="curve" smooth="yes"/>
      <point x="612.0361445783132" y="97.87349397590361"/>
      <point x="533.3855421686746" y="49.53614457831325"/>
    </contour>
    <contour>
      <point x="374.0" y="386.43975903614455" type="curve" smooth="yes"/>
      <point x="234.9277108433735" y="386.43975903614455"/>
      <point x="156.42168674698794" y="435.433734939759"/>
      <point x="156.42168674698794" y="521.566265060241" type="curve" smooth="yes"/>
      <point x="156.42168674698794" y="607.4698795180723"/>
      <point x="234.1566265060241" y="655.4638554216867"/>
      <point x="374.0" y="655.4638554216867" type="curve" smooth="yes"/>
      <point x="513.843373493976" y="655.4638554216867"/>
      <point x="591.8072289156627" y="607.4698795180723"/>
      <point x="591.8072289156627" y="521.566265060241" type="curve" smooth="yes"/>
      <point x="591.8072289156627" y="435.433734939759"/>
      <point x="513.0722891566265" y="386.43975903614455"/>
    </contour>
  </outline>
</glyph>
<glyph name="nine" format="2">
  <advance width="748.0"/>
  <unicode hex="0039"/>
  <outline>
    <contour>
      <point x="319.05421686746985" y="-8.457831325301205" type="curve" smooth="yes"/>
      <point x="533.632530120482" y="-8.457831325301205"/>
      <point x="660.6084337349398" y="126.6566265060241"/>
      <point x="660.6084337349398" y="372.51204819277103" type="curve" smooth="yes"/>
      <point x="660.6084337349398" y="588.1144578313254"/>
      <point x="546.7469879518072" y="713.4578313253012"/>
      <point x="345.3433734939759" y="713.4578313253012" type="curve" smooth="yes"/>
      <point x="184.99397590361446" y="713.4578313253012"/>
      <point x="71.84939759036143" y="619.5421686746988"/>
      <point x="71.84939759036143" y="487.36746987951807" type="curve" smooth="yes"/>
      <point x="71.84939759036143" y="357.3373493975904"/>
      <point x="181.39156626506025" y="265.53614457831327"/>
      <point x="340.8192771084337" y="265.53614457831327" type="curve" smooth="yes"/>
      <point x="481.4698795180723" y="265.53614457831327"/>
      <point x="588.2650602409639" y="339.7590361445783"/>
      <point x="601.0662650602409" y="457.23493975903614" type="curve"/>
      <point x="592.8072289156627" y="457.23493975903614" type="line"/>
      <point x="592.8072289156627" y="357.93373493975906" type="line" smooth="yes"/>
      <point x="592.8072289156627" y="155.6987951807229"/>
      <point x="493.3855421686747" y="52.367469879518076"/>
      <point x="319.93975903614455" y="52.367469879518076" type="curve" smooth="yes"/>
      <point x="241.3975903614458" y="52.367469879518076"/>
      <point x="164.8855421686747" y="79.45180722891565"/>
      <point x="104.5722891566265" y="133.16265060240963" type="curve"/>
      <point x="75.04819277108435" y="79.05421686746988" type="line"/>
      <point x="130.33734939759037" y="26.512048192771083"/>
      <point x="229.30722891566265" y="-8.457831325301205"/>
    </contour>
    <contour>
      <point x="350.2289156626506" y="324.7590361445783" type="curve" smooth="yes"/>
      <point x="225.8975903614458" y="324.7590361445783"/>
      <point x="140.19277108433735" y="392.03614457831327"/>
      <point x="140.19277108433735" y="489.9397590361446" type="curve" smooth="yes"/>
      <point x="140.19277108433735" y="586.9578313253012"/>
      <point x="225.8975903614458" y="654.4638554216867"/>
      <point x="350.2289156626506" y="654.4638554216867" type="curve" smooth="yes"/>
      <point x="475.56024096385545" y="654.4638554216867"/>
      <point x="561.2650602409639" y="586.9578313253012"/>
      <point x="561.2650602409639" y="489.9397590361446" type="curve" smooth="yes"/>
      <point x="561.2650602409639" y="392.03614457831327"/>
      <point x="475.56024096385545" y="324.7590361445783"/>
    </contour>
  </outline>
</glyph>
<glyph name="colon" format="2">
  <advance width="262.0722891566265"/>
  <unicode hex="003A"/>
  <outline>
    <contour>
      <point x="84.33734939759037" y="394.0903614457831" type="line"/>
      <point x="177.73493975903614" y="394.0903614457831" type="line"/>
      <point x="177.73493975903614" y="485.144578313253" type="line"/>
      <point x="84.33734939759037" y="485.144578313253" type="line"/>
    </contour>
    <contour>
      <point x="84.33734939759037" y="0.0" type="line"/>
      <point x="177.73493975903614" y="0.0" type="line"/>
      <point x="177.73493975903614" y="91.28313253012047" type="line"/>
      <point x="84.33734939759037" y="91.28313253012047" type="line"/>
    </contour>
  </outline>
</glyph>
<glyph name="semicolon" format="2">
  <advance width="262.0722891566265"/>
  <unicode hex="003B"/>
  <outline>
    <contour>
      <point x="119.29518072289157" y="-108.6987951807229" type="line"/>
      <point x="159.47590361445785" y="-71.94578313253012"/>
      <point x="177.73493975903614" y="-33.16867469879518"/>
      <point x="177.73493975903614" y="23.981927710843372" type="curve" smooth="yes"/>
      <point x="177.73493975903614" y="91.28313253012047" type="line"/>
      <point x="84.33734939759037" y="91.28313253012047" type="line"/>
      <point x="84.33734939759037" y="0.0" type="line"/>
      <point x="144.27108433734938" y="0.0" type="line"/>
      <point x="126.06626506024097" y="11.80722891566265" type="line"/>
      <point x="125.95180722891565" y="-27.05421686746988"/>
      <point x="114.57831325301204" y="-50.5722891566265"/>
      <point x="85.57228915662651" y="-81.23493975903614" type="curve"/>
    </contour>
    <contour>
      <point x="84.33734939759037" y="394.0903614457831" type="line"/>
      <point x="177.73493975903614" y="394.0903614457831" type="line"/>
      <point x="177.73493975903614" y="485.144578313253" type="line"/>
      <point x="84.33734939759037" y="485.144578313253" type="line"/>
    </contour>
  </outline>
</glyph>
<glyph name="less" format="2">
  <advance width="748.0"/>
  <unicode hex="003C"/>
  <outline>
    <contour>
      <point x="639.6867469879518" y="31.283132530120486" type="line"/>
      <point x="639.6867469879518" y="92.67469879518072" type="line"/>
      <point x="139.51807228915663" y="303.6927710843373" type="line"/>
      <point x="139.51807228915663" y="270.421686746988" type="line"/>
      <point x="639.6867469879518" y="481.3253012048193" type="line"/>
      <point x="639.6867469879518" y="542.9457831325301" type="line"/>
      <point x="103.0" y="314.43975903614455" type="line"/>
      <point x="103.0" y="259.6746987951807" type="line"/>
    </contour>
  </outline>
</glyph>
<glyph name="equal" format="2">
  <advance width="748.0"/>
  <unicode hex="003D"/>
  <outline>
    <contour>
      <point x="103.0" y="361.96385542168673" type="line"/>
      <point x="645.0" y="361.96385542168673" type="line"/>
      <point x="645.0" y="414.43975903614455" type="line"/>
      <point x="103.0" y="414.43975903614455" type="line"/>
    </contour>
    <contour>
      <point x="103.0" y="159.789156626506" type="line"/>
      <point x="645.0" y="159.789156626506" type="line"/>
      <point x="645.0" y="212.03614457831324" type="line"/>
      <point x="103.0" y="212.03614457831324" type="line"/>
    </contour>
  </outline>
</glyph>
<glyph name="greater" format="2">
  <advance width="748.0"/>
  <unicode hex="003E"/>
  <outline>
    <contour>
      <point x="103.0" y="31.283132530120486" type="line"/>
      <point x="639.6867469879518" y="259.6746987951807" type="line"/>
      <point x="639.6867469879518" y="314.43975903614455" type="line"/>
      <point x="103.0" y="542.9457831325301" type="line"/>
      <point x="103.0" y="481.3253012048193" type="line"/>
      <point x="603.3975903614457" y="270.421686746988" type="line"/>
      <point x="603.3975903614457" y="303.6927710843373" type="line"/>
      <point x="103.0" y="92.67469879518072" type="line"/>
    </contour>
  </outline>
</glyph>
<glyph name="question" format="2">
  <advance width="534.2409638554217"/>
  <unicode hex="003F"/>
  <outline>
    <contour>
      <point x="224.6867469879518" y="176.67469879518072" type="line"/>
      <point x="266.7048192771084" y="176.67469879518072" type="line"/>
      <point x="268.8192771084337" y="199.13253012048193" type="line" smooth="yes"/>
      <point x="273.933734939759" y="253.46987951807228"/>
      <point x="300.3614457831326" y="298.60843373493975"/>
      <point x="386.78915662650604" y="372.2590361445783" type="curve" smooth="yes"/>
      <point x="472.2168674698795" y="446.0240963855422"/>
      <point x="501.2469879518072" y="494.79518072289153"/>
      <point x="501.2469879518072" y="553.1385542168675" type="curve" smooth="yes"/>
      <point x="501.2469879518072" y="654.6265060240964"/>
      <point x="412.2409638554217" y="713.4578313253012"/>
      <point x="276.66265060240966" y="713.4578313253012" type="curve" smooth="yes"/>
      <point x="168.20481927710844" y="713.4578313253012"/>
      <point x="63.06024096385542" y="675.2590361445783"/>
      <point x="-0.6566265060240963" y="614.632530120482" type="curve"/>
      <point x="30.524096385542165" y="560.5240963855422" type="line"/>
      <point x="102.49397590361446" y="622.777108433735"/>
      <point x="181.00602409638554" y="652.632530120482"/>
      <point x="273.9457831325301" y="652.632530120482" type="curve" smooth="yes"/>
      <point x="371.421686746988" y="652.632530120482"/>
      <point x="431.18674698795184" y="618.9518072289156"/>
      <point x="431.18674698795184" y="548.5903614457832" type="curve" smooth="yes"/>
      <point x="431.18674698795184" y="503.93975903614455"/>
      <point x="407.3614457831325" y="463.28915662650604"/>
      <point x="337.79518072289153" y="403.8674698795181" type="curve" smooth="yes"/>
      <point x="244.91566265060243" y="325.3614457831325"/>
      <point x="224.6867469879518" y="264.76506024096386"/>
      <point x="224.6867469879518" y="201.82530120481928" type="curve" smooth="yes"/>
    </contour>
    <contour>
      <point x="198.93975903614458" y="0.0" type="line"/>
      <point x="292.45180722891564" y="0.0" type="line"/>
      <point x="292.45180722891564" y="91.28313253012047" type="line"/>
      <point x="198.93975903614458" y="91.28313253012047" type="line"/>
    </contour>
  </outline>
</glyph>
<glyph name="at" format="2">
  <advance width="1175.3192771084339"/>
  <unicode hex="0040"/>
  <outline>
    <contour>
      <point x="596.5180722891566" y="-162.8012048192771" type="curve" smooth="yes"/>
      <point x="751.9698795180723" y="-162.8012048192771"/>
      <point x="882.0843373493975" y="-121.86144578313254"/>
      <point x="965.6265060240963" y="-46.98192771084337" type="curve"/>
      <point x="931.078313253012" y="-6.168674698795181" type="line"/>
      <point x="857.9638554216867" y="-74.04819277108435"/>
      <point x="738.8253012048193" y="-112.3012048192771"/>
      <point x="596.6325301204819" y="-112.3012048192771" type="curve" smooth="yes"/>
      <point x="316.7228915662651" y="-112.3012048192771"/>
      <point x="138.5843373493976" y="34.006024096385545"/>
      <point x="138.5843373493976" y="269.19879518072287" type="curve" smooth="yes"/>
      <point x="138.5843373493976" y="505.8493975903615"/>
      <point x="319.4096385542169" y="662.9578313253012"/>
      <point x="614.1204819277109" y="662.9578313253012" type="curve" smooth="yes"/>
      <point x="875.8855421686746" y="662.9578313253012"/>
      <point x="1039.6506024096384" y="537.8795180722891"/>
      <point x="1039.6506024096384" y="338.2289156626506" type="curve" smooth="yes"/>
      <point x="1039.6506024096384" y="202.49397590361446"/>
      <point x="965.0" y="107.2710843373494"/>
      <point x="857.9216867469879" y="107.2710843373494" type="curve" smooth="yes"/>
      <point x="805.6686746987951" y="107.2710843373494"/>
      <point x="780.8132530120482" y="129.355421686747"/>
      <point x="780.8132530120482" y="176.52409638554218" type="curve" smooth="yes"/>
      <point x="780.8132530120482" y="191.55421686746988"/>
      <point x="783.5" y="207.72891566265062"/>
      <point x="786.5" y="220.7289156626506" type="curve" smooth="yes"/>
      <point x="845.8975903614459" y="485.2590361445783" type="line"/>
      <point x="783.9638554216867" y="485.2590361445783" type="line"/>
      <point x="762.8493975903614" y="390.4879518072289" type="line"/>
      <point x="773.3674698795181" y="390.4879518072289" type="line"/>
      <point x="757.4518072289158" y="458.06024096385545"/>
      <point x="698.2530120481928" y="493.8313253012048"/>
      <point x="603.1686746987951" y="493.8313253012048" type="curve" smooth="yes"/>
      <point x="442.9698795180723" y="493.8313253012048"/>
      <point x="332.0843373493976" y="389.6024096385542"/>
      <point x="332.0843373493976" y="240.4036144578313" type="curve" smooth="yes"/>
      <point x="332.0843373493976" y="123.37349397590361"/>
      <point x="401.0301204819277" y="59.0"/>
      <point x="522.8313253012049" y="59.0" type="curve" smooth="yes"/>
      <point x="621.5481927710844" y="59.0"/>
      <point x="699.9759036144578" y="102.06024096385542"/>
      <point x="739.9759036144578" y="176.86746987951807" type="curve"/>
      <point x="727.9096385542168" y="187.4277108433735" type="line"/>
      <point x="711.9156626506024" y="106.88554216867469"/>
      <point x="758.1746987951807" y="59.0"/>
      <point x="853.5481927710844" y="59.0" type="curve" smooth="yes"/>
      <point x="998.6084337349397" y="59.0"/>
      <point x="1097.2951807228917" y="173.1144578313253"/>
      <point x="1097.2951807228917" y="339.4578313253012" type="curve" smooth="yes"/>
      <point x="1097.2951807228917" y="568.8012048192771"/>
      <point x="909.4638554216868" y="713.4578313253012"/>
      <point x="615.7469879518072" y="713.4578313253012" type="curve" smooth="yes"/>
      <point x="290.31325301204816" y="713.4578313253012"/>
      <point x="78.02409638554217" y="537.3132530120482"/>
      <point x="78.02409638554217" y="268.77108433734935" type="curve" smooth="yes"/>
      <point x="78.02409638554217" y="4.313253012048193"/>
      <point x="282.57228915662654" y="-162.8012048192771"/>
    </contour>
    <contour>
      <point x="532.1807228915662" y="109.8433734939759" type="curve" smooth="yes"/>
      <point x="442.7590361445783" y="109.8433734939759"/>
      <point x="395.1626506024096" y="155.32530120481928"/>
      <point x="395.1626506024096" y="242.74698795180723" type="curve" smooth="yes"/>
      <point x="395.1626506024096" y="362.22289156626505"/>
      <point x="482.2409638554217" y="442.9879518072289"/>
      <point x="613.2590361445783" y="442.9879518072289" type="curve" smooth="yes"/>
      <point x="703.8795180722892" y="442.9879518072289"/>
      <point x="746.6204819277108" y="404.27710843373495"/>
      <point x="746.6204819277108" y="320.3975903614458" type="curve" smooth="yes"/>
      <point x="746.6204819277108" y="199.06626506024097"/>
      <point x="657.343373493976" y="109.8433734939759"/>
    </contour>
  </outline>
</glyph>
<glyph name="A" format="2">
  <advance width="890.1265060240963"/>
  <unicode hex="0041"/>
  <anchor x="445.12048192771084" y="0.0" name="bottom"/>
  <anchor x="850.6084337349398" y="0.0" name="ogonek"/>
  <anchor x="445.23493975903614" y="705.0" name="top"/>
  <outline>
    <contour>
      <point x="31.987951807228914" y="0.0" type="line"/>
      <point x="104.42168674698794" y="0.0" type="line"/>
      <point x="214.27710843373492" y="202.3975903614458" type="line"/>
      <point x="172.18072289156626" y="184.9879518072289" type="line"/>
      <point x="714.632530120482" y="184.9879518072289" type="line"/>
      <point x="674.1927710843373" y="202.3975903614458" type="line"/>
      <point x="784.1626506024096" y="0.0" type="line"/>
      <point x="858.367469879518" y="0.0" type="line"/>
      <point x="477.27710843373495" y="705.0" type="line"/>
      <point x="413.078313253012" y="705.0" type="line"/>
    </contour>
    <contour>
      <point x="443.23493975903614" y="634.7710843373494" type="line"/>
      <point x="445.23493975903614" y="634.7710843373494" type="line"/>
      <point x="659.5903614457832" y="229.25903614457832" type="line"/>
      <point x="688.7650602409639" y="243.09638554216866" type="line"/>
      <point x="198.04819277108433" y="243.09638554216866" type="line"/>
      <point x="228.99397590361446" y="229.25903614457832" type="line"/>
    </contour>
  </outline>
</glyph>
<glyph name="B" format="2">
  <advance width="830.210843373494"/>
  <unicode hex="0042"/>
  <anchor x="418.4036144578313" y="0.0" name="bottom"/>
  <anchor x="418.51807228915663" y="705.0" name="top"/>
  <outline>
    <contour>
      <point x="113.42168674698794" y="0.0" type="line"/>
      <point x="475.09638554216866" y="0.0" type="line" smooth="yes"/>
      <point x="655.3490120481928" y="0.0"/>
      <point x="748.6746987951807" y="68.25903614457832"/>
      <point x="748.6746987951807" y="189.4879518072289" type="curve" smooth="yes"/>
      <point x="748.6746987951807" y="297.54216867469876"/>
      <point x="675.1306987951807" y="355.78573493975904"/>
      <point x="543.8192771084338" y="366.2590361445783" type="curve"/>
      <point x="543.8192771084338" y="352.0301204819277" type="line"/>
      <point x="664.0744819277108" y="370.48669277108434"/>
      <point x="728.1024096385541" y="428.7168674698795"/>
      <point x="728.1024096385541" y="524.3433734939758" type="curve" smooth="yes"/>
      <point x="728.1024096385541" y="639.5421686746988"/>
      <point x="635.8176024096385" y="705.0"/>
      <point x="459.55421686746985" y="705.0" type="curve" smooth="yes"/>
      <point x="113.42168674698794" y="705.0" type="line"/>
    </contour>
    <contour>
      <point x="180.93975903614458" y="56.53614457831325" type="line"/>
      <point x="180.93975903614458" y="328.9036144578313" type="line"/>
      <point x="473.6626506024096" y="328.9036144578313" type="line" smooth="yes"/>
      <point x="539.6927710843374" y="328.9036144578313"/>
      <point x="678.3855421686748" y="327.1867469879518"/>
      <point x="678.3855421686748" y="193.66265060240963" type="curve" smooth="yes"/>
      <point x="678.3855421686748" y="58.48192771084337"/>
      <point x="535.265060240964" y="56.53614457831325"/>
      <point x="471.00602409638554" y="56.53614457831325" type="curve" smooth="yes"/>
    </contour>
    <contour>
      <point x="180.93975903614458" y="385.43975903614455" type="line"/>
      <point x="180.93975903614458" y="648.4638554216867" type="line"/>
      <point x="453.3192771084337" y="648.4638554216867" type="line" smooth="yes"/>
      <point x="592.1927710843373" y="648.4638554216867"/>
      <point x="657.9277108433736" y="605.4698795180724"/>
      <point x="657.9277108433736" y="516.566265060241" type="curve" smooth="yes"/>
      <point x="657.9277108433736" y="427.5481927710843"/>
      <point x="593.078313253012" y="385.43975903614455"/>
      <point x="455.0903614457831" y="385.43975903614455" type="curve" smooth="yes"/>
    </contour>
  </outline>
</glyph>
<glyph name="C" format="2">
  <advance width="828.6626506024096"/>
  <unicode hex="0043"/>
  <anchor x="471.43373493975906" y="0.0" name="bottom"/>
  <anchor x="473.31927710843377" y="705.0" name="top"/>
  <outline>
    <contour>
      <point x="473.49397590361446" y="-8.457831325301205" type="curve" smooth="yes"/>
      <point x="597.722891566265" y="-8.457831325301205"/>
      <point x="702.6385542168674" y="26.85542168674699"/>
      <point x="773.7530120481928" y="92.13855421686748" type="curve"/>
      <point x="741.0301204819276" y="146.84939759036143" type="line"/>
      <point x="664.7168674698795" y="82.59638554216868"/>
      <point x="583.5481927710844" y="53.855421686746986"/>
      <point x="475.86746987951807" y="53.855421686746986" type="curve" smooth="yes"/>
      <point x="268.7023554216868" y="53.855421686746986"/>
      <point x="151.06024096385542" y="161.33132530120483"/>
      <point x="151.06024096385542" y="351.2289156626506" type="curve" smooth="yes"/>
      <point x="151.06024096385542" y="541.2409638554217"/>
      <point x="269.5878975903615" y="651.144578313253"/>
      <point x="475.86746987951807" y="651.144578313253" type="curve" smooth="yes"/>
      <point x="583.5481927710844" y="651.144578313253"/>
      <point x="664.7168674698795" y="622.4036144578313"/>
      <point x="741.0301204819276" y="558.1506024096385" type="curve"/>
      <point x="773.7530120481928" y="612.8614457831326" type="line"/>
      <point x="702.6385542168674" y="678.3734939759036"/>
      <point x="598.6084337349398" y="713.4578313253012"/>
      <point x="475.26506024096386" y="713.4578313253012" type="curve" smooth="yes"/>
      <point x="228.25903614457832" y="713.4578313253012"/>
      <point x="78.02409638554217" y="577.3132530120482"/>
      <point x="78.02409638554217" y="352.0" type="curve" smooth="yes"/>
      <point x="78.02409638554217" y="127.57228915662651"/>
      <point x="227.25903614457832" y="-8.457831325301205"/>
    </contour>
  </outline>
</glyph>
<glyph name="D" format="2">
  <advance width="905.9578313253012"/>
  <unicode hex="0044"/>
  <anchor x="451.5783132530121" y="0.0" name="bottom"/>
  <anchor x="216.15060240963854" y="358.0" name="center"/>
  <anchor x="451.6927710843374" y="705.0" name="top"/>
  <outline>
    <contour>
      <point x="113.42168674698794" y="0.0" type="line"/>
      <point x="407.06626506024094" y="0.0" type="line" smooth="yes"/>
      <point x="684.9578313253012" y="0.0"/>
      <point x="828.1626506024096" y="119.80120481927712"/>
      <point x="828.1626506024096" y="353.0" type="curve" smooth="yes"/>
      <point x="828.1626506024096" y="585.3132530120482"/>
      <point x="685.7289156626506" y="705.0"/>
      <point x="407.06626506024094" y="705.0" type="curve" smooth="yes"/>
      <point x="113.42168674698794" y="705.0" type="line"/>
    </contour>
    <contour>
      <point x="182.1987951807229" y="59.054216867469876" type="line"/>
      <point x="182.1987951807229" y="645.9457831325301" type="line"/>
      <point x="401.921686746988" y="645.9457831325301" type="line" smooth="yes"/>
      <point x="644.3072289156626" y="645.9457831325301"/>
      <point x="755.6987951807229" y="553.8975903614457"/>
      <point x="755.6987951807229" y="353.0" type="curve" smooth="yes"/>
      <point x="755.6987951807229" y="151.2168674698795"/>
      <point x="644.421686746988" y="59.054216867469876"/>
      <point x="401.921686746988" y="59.054216867469876" type="curve" smooth="yes"/>
    </contour>
  </outline>
</glyph>
<glyph name="E" format="2">
  <advance width="709.5542168674699"/>
  <unicode hex="0045"/>
  <anchor x="397.4036144578313" y="0.0" name="bottom"/>
  <anchor x="611.234939759036" y="0.0" name="ogonek"/>
  <anchor x="397.4036144578313" y="705.0" name="top"/>
  <anchor x="29.313253012048193" y="705.0" name="topleft"/>
  <outline>
    <contour>
      <point x="113.42168674698794" y="0.0" type="line"/>
      <point x="650.9819277108434" y="0.0" type="line"/>
      <point x="650.9819277108434" y="57.795180722891565" type="line"/>
      <point x="180.93975903614458" y="57.795180722891565" type="line"/>
      <point x="180.93975903614458" y="329.2168674698795" type="line"/>
      <point x="614.7831325301205" y="329.2168674698795" type="line"/>
      <point x="614.7831325301205" y="387.0120481927711" type="line"/>
      <point x="180.93975903614458" y="387.0120481927711" type="line"/>
      <point x="180.93975903614458" y="647.2048192771084" type="line"/>
      <point x="650.9819277108434" y="647.2048192771084" type="line"/>
      <point x="650.9819277108434" y="705.0" type="line"/>
      <point x="113.42168674698794" y="705.0" type="line"/>
    </contour>
  </outline>
</glyph>
<glyph name="F" format="2">
  <advance width="667.3253012048193"/>
  <unicode hex="0046"/>
  <anchor x="364.0602409638554" y="0.0" name="bottom"/>
  <anchor x="364.8614457831325" y="705.0" name="top"/>
  <outline>
    <contour>
      <point x="113.42168674698794" y="0.0" type="line"/>
      <point x="182.1987951807229" y="0.0" type="line"/>
      <point x="182.1987951807229" y="327.9578313253012" type="line"/>
      <point x="613.2108433734941" y="327.9578313253012" type="line"/>
      <point x="613.2108433734941" y="385.7530120481928" type="line"/>
      <point x="182.1987951807229" y="385.7530120481928" type="line"/>
      <point x="182.1987951807229" y="647.2048192771084" type="line"/>
      <point x="638.4397590361446" y="647.2048192771084" type="line"/>
      <point x="638.4397590361446" y="705.0" type="line"/>
      <point x="113.42168674698794" y="705.0" type="line"/>
    </contour>
  </outline>
</glyph>
<glyph name="G" format="2">
  <advance width="893.2650602409639"/>
  <unicode hex="0047"/>
  <anchor x="486.921686746988" y="0.0" name="bottom"/>
  <anchor x="477.921686746988" y="705.0" name="top"/>
  <outline>
    <contour>
      <point x="496.8072289156626" y="-8.457831325301205" type="curve" smooth="yes"/>
      <point x="604.066265060241" y="-8.457831325301205"/>
      <point x="720.1807228915663" y="12.656626506024097"/>
      <point x="787.7289156626506" y="44.57228915662651" type="curve"/>
      <point x="787.7289156626506" y="362.5240963855421" type="line"/>
      <point x="488.91566265060237" y="362.5240963855421" type="line"/>
      <point x="488.91566265060237" y="306.67469879518075" type="line"/>
      <point x="724.3313253012047" y="306.67469879518075" type="line"/>
      <point x="724.3313253012047" y="68.78915662650603" type="line"/>
      <point x="737.7349397590361" y="94.19277108433734" type="line"/>
      <point x="665.8795180722891" y="67.02409638554217"/>
      <point x="584.8855421686746" y="52.825301204819276"/>
      <point x="500.6927710843374" y="52.825301204819276" type="curve" smooth="yes"/>
      <point x="270.91122289156624" y="52.825301204819276"/>
      <point x="150.48795180722894" y="155.1024096385542"/>
      <point x="150.48795180722894" y="349.34337349397595" type="curve" smooth="yes"/>
      <point x="150.48795180722894" y="542.6987951807229"/>
      <point x="268.49118072289156" y="651.6024096385541"/>
      <point x="477.6987951807229" y="651.6024096385541" type="curve" smooth="yes"/>
      <point x="585.4096385542168" y="651.6024096385541"/>
      <point x="668.0361445783133" y="623.2048192771084"/>
      <point x="744.6927710843373" y="559.5240963855422" type="curve"/>
      <point x="777.644578313253" y="613.8915662650602" type="line"/>
      <point x="705.301204819277" y="678.4879518072289"/>
      <point x="600.5843373493976" y="713.4578313253012"/>
      <point x="477.7831325301205" y="713.4578313253012" type="curve" smooth="yes"/>
      <point x="228.71686746987953" y="713.4578313253012"/>
      <point x="78.02409638554217" y="577.6566265060242"/>
      <point x="78.02409638554217" y="350.8855421686747" type="curve" smooth="yes"/>
      <point x="78.02409638554217" y="122.4578313253012"/>
      <point x="229.91566265060243" y="-8.457831325301205"/>
    </contour>
  </outline>
</glyph>
<glyph name="H" format="2">
  <advance width="935.210843373494"/>
  <unicode hex="0048"/>
  <anchor x="467.66265060240966" y="0.0" name="bottom"/>
  <anchor x="467.66265060240966" y="550.6626506024096" name="center"/>
  <anchor x="467.54819277108436" y="705.0" name="top"/>
  <anchor x="29.313253012048193" y="705.0" name="topleft"/>
  <outline>
    <contour>
      <point x="113.42168674698794" y="0.0" type="line"/>
      <point x="182.1987951807229" y="0.0" type="line"/>
      <point x="182.1987951807229" y="328.41566265060237" type="line"/>
      <point x="753.0120481927711" y="328.41566265060237" type="line"/>
      <point x="753.0120481927711" y="0.0" type="line"/>
      <point x="821.7891566265059" y="0.0" type="line"/>
      <point x="821.7891566265059" y="705.0" type="line"/>
      <point x="753.0120481927711" y="705.0" type="line"/>
      <point x="753.0120481927711" y="387.46987951807233" type="line"/>
      <point x="182.1987951807229" y="387.46987951807233" type="line"/>
      <point x="182.1987951807229" y="705.0" type="line"/>
      <point x="113.42168674698794" y="705.0" type="line"/>
    </contour>
  </outline>
</glyph>
<glyph name="I" format="2">
  <advance width="295.39156626506025"/>
  <unicode hex="0049"/>
  <anchor x="147.86746987951807" y="0.0" name="bottom"/>
  <anchor x="175.44578313253012" y="0.0" name="ogonek"/>
  <anchor x="147.86746987951807" y="705.0" name="top"/>
  <anchor x="30.08433734939759" y="705.0" name="topleft"/>
  <outline>
    <contour>
      <point x="113.42168674698794" y="0.0" type="line"/>
      <point x="182.1987951807229" y="0.0" type="line"/>
      <point x="182.1987951807229" y="705.0" type="line"/>
      <point x="113.42168674698794" y="705.0" type="line"/>
    </contour>
  </outline>
</glyph>
<glyph name="J" format="2">
  <advance width="375.2530120481928"/>
  <unicode hex="004A"/>
  <anchor x="229.15662650602408" y="0.0" name="bottom"/>
  <anchor x="227.2710843373494" y="705.0" name="top"/>
  <outline>
    <contour>
      <point x="-10.397590361445783" y="-6.686746987951807" type="line"/>
      <point x="57.6144578313253" y="-2.572289156626506" type="line" smooth="yes"/>
      <point x="189.84945180722892" y="5.748307228915663"/>
      <point x="261.8313253012048" y="73.17469879518072"/>
      <point x="261.8313253012048" y="189.86746987951807" type="curve" smooth="yes"/>
      <point x="261.8313253012048" y="705.0" type="line"/>
      <point x="193.05421686746988" y="705.0" type="line"/>
      <point x="193.05421686746988" y="191.18072289156626" type="line" smooth="yes"/>
      <point x="193.05421686746988" y="111.01807228915663"/>
      <point x="142.91566265060243" y="60.90963855421687"/>
      <point x="51.37951807228916" y="55.253012048192765" type="curve" smooth="yes"/>
      <point x="-15.656626506024097" y="51.13855421686747" type="line"/>
    </contour>
  </outline>
</glyph>
<glyph name="K" format="2">
  <advance width="743.4578313253012"/>
  <unicode hex="004B"/>
  <anchor x="378.1265060240964" y="0.0" name="bottom"/>
  <anchor x="378.2409638554217" y="705.0" name="top"/>
  <anchor x="29.313253012048193" y="705.0" name="topleft"/>
  <outline>
    <contour>
      <point x="113.42168674698794" y="0.0" type="line"/>
      <point x="182.1987951807229" y="0.0" type="line"/>
      <point x="182.1987951807229" y="335.7951807228916" type="line"/>
      <point x="184.1987951807229" y="335.7951807228916" type="line"/>
      <point x="652.2530120481928" y="0.0" type="line"/>
      <point x="755.9518072289156" y="0.0" type="line"/>
      <point x="227.85542168674698" y="372.66265060240966" type="line"/>
      <point x="227.74096385542168" y="346.5120481927711" type="line"/>
      <point x="727.0120481927711" y="705.0" type="line"/>
      <point x="628.6867469879518" y="705.0" type="line"/>
      <point x="184.1987951807229" y="380.23493975903614" type="line"/>
      <point x="182.1987951807229" y="380.23493975903614" type="line"/>
      <point x="182.1987951807229" y="705.0" type="line"/>
      <point x="113.42168674698794" y="705.0" type="line"/>
    </contour>
  </outline>
</glyph>
<glyph name="L" format="2">
  <advance width="657.6144578313254"/>
  <unicode hex="004C"/>
  <anchor x="378.6024096385542" y="0.0" name="bottom"/>
  <anchor x="201.9819277108434" y="387.0" name="center"/>
  <anchor x="483.7590361445783" y="388.0602409638554" name="dot"/>
  <anchor x="147.86746987951807" y="705.0" name="top"/>
  <anchor x="330.27710843373495" y="705.0" name="topright"/>
  <outline>
    <contour>
      <point x="113.42168674698794" y="0.0" type="line"/>
      <point x="643.7831325301204" y="0.0" type="line"/>
      <point x="643.7831325301204" y="59.62650602409638" type="line"/>
      <point x="182.1987951807229" y="59.62650602409638" type="line"/>
      <point x="182.1987951807229" y="705.0" type="line"/>
      <point x="113.42168674698794" y="705.0" type="line"/>
    </contour>
  </outline>
</glyph>
<glyph name="M" format="2">
  <advance width="1052.5843373493976"/>
  <unicode hex="004D"/>
  <anchor x="527.3493975903615" y="0.0" name="bottom"/>
  <anchor x="527.3493975903615" y="705.0" name="top"/>
  <outline>
    <contour>
      <point x="115.42168674698794" y="0.0" type="line"/>
      <point x="180.56626506024097" y="0.0" type="line"/>
      <point x="180.56626506024097" y="624.867469879518" type="line"/>
      <point x="157.76506024096386" y="624.867469879518" type="line"/>
      <point x="503.9698795180723" y="109.1987951807229" type="line"/>
      <point x="551.0421686746988" y="109.1987951807229" type="line"/>
      <point x="893.7048192771084" y="623.867469879518" type="line"/>
      <point x="872.2469879518072" y="623.867469879518" type="line"/>
      <point x="872.2469879518072" y="0.0" type="line"/>
      <point x="937.3915662650603" y="0.0" type="line"/>
      <point x="937.3915662650603" y="705.0" type="line"/>
      <point x="876.933734939759" y="705.0" type="line"/>
      <point x="510.00602409638554" y="151.9156626506024" type="line"/>
      <point x="544.1506024096385" y="151.9156626506024" type="line"/>
      <point x="176.53614457831327" y="705.0" type="line"/>
      <point x="115.42168674698794" y="705.0" type="line"/>
    </contour>
  </outline>
</glyph>
<glyph name="N" format="2">
  <advance width="911.6084337349397"/>
  <unicode hex="004E"/>
  <anchor x="455.8614457831325" y="0.0" name="bottom"/>
  <anchor x="455.8614457831325" y="705.0" name="top"/>
  <outline>
    <contour>
      <point x="113.42168674698794" y="0.0" type="line"/>
      <point x="179.0542168674699" y="0.0" type="line"/>
      <point x="179.0542168674699" y="629.8132530120482" type="line"/>
      <point x="159.42168674698794" y="629.8132530120482" type="line"/>
      <point x="740.277108433735" y="0.0" type="line"/>
      <point x="798.1867469879518" y="0.0" type="line"/>
      <point x="798.1867469879518" y="705.0" type="line"/>
      <point x="732.5542168674699" y="705.0" type="line"/>
      <point x="732.5542168674699" y="75.4156626506024" type="line"/>
      <point x="753.1867469879519" y="75.4156626506024" type="line"/>
      <point x="171.44578313253012" y="705.0" type="line"/>
      <point x="113.42168674698794" y="705.0" type="line"/>
    </contour>
  </outline>
</glyph>
<glyph name="O" format="2">
  <advance width="936.4156626506024"/>
  <unicode hex="004F"/>
  <anchor x="468.26506024096386" y="-8.457831325301205" name="Qtail"/>
  <anchor x="468.26506024096386" y="0.0" name="bottom"/>
  <anchor x="469.5783132530121" y="353.0" name="center"/>
  <anchor x="537.8373493975904" y="0.0" name="ogonek"/>
  <anchor x="468.37951807228916" y="705.0" name="top"/>
  <anchor x="29.343373493975903" y="705.0" name="topleft"/>
  <anchor x="559.6927710843373" y="705.0" name="topright"/>
  <outline>
    <contour>
      <point x="468.37951807228916" y="-8.457831325301205" type="curve" smooth="yes"/>
      <point x="708.0421686746988" y="-8.457831325301205"/>
      <point x="858.6204819277108" y="130.9156626506024"/>
      <point x="858.6204819277108" y="353.1144578313253" type="curve" smooth="yes"/>
      <point x="858.6204819277108" y="575.3132530120482"/>
      <point x="708.0421686746988" y="713.4578313253012"/>
      <point x="468.37951807228916" y="713.4578313253012" type="curve" smooth="yes"/>
      <point x="228.6024096385542" y="713.4578313253012"/>
      <point x="78.02409638554217" y="574.3132530120482"/>
      <point x="78.02409638554217" y="352.0" type="curve" smooth="yes"/>
      <point x="78.02409638554217" y="129.8012048192771"/>
      <point x="228.4879518072289" y="-8.457831325301205"/>
    </contour>
    <contour>
      <point x="468.37951807228916" y="52.825301204819276" type="curve" smooth="yes"/>
      <point x="269.2228915662651" y="52.825301204819276"/>
      <point x="150.48795180722894" y="164.8734939759036"/>
      <point x="150.48795180722894" y="352.0" type="curve" smooth="yes"/>
      <point x="150.48795180722894" y="539.3554216867469"/>
      <point x="270.2228915662651" y="652.1746987951807"/>
      <point x="468.37951807228916" y="652.1746987951807" type="curve" smooth="yes"/>
      <point x="667.5361445783133" y="652.1746987951807"/>
      <point x="786.1566265060242" y="540.3554216867469"/>
      <point x="786.1566265060242" y="353.0" type="curve" smooth="yes"/>
      <point x="786.1566265060242" y="165.8734939759036"/>
      <point x="666.4216867469879" y="52.825301204819276"/>
    </contour>
  </outline>
</glyph>
<glyph name="P" format="2">
  <advance width="769.7590361445783"/>
  <unicode hex="0050"/>
  <anchor x="394.3493975903615" y="0.0" name="bottom"/>
  <anchor x="394.4638554216868" y="705.0" name="top"/>
  <outline>
    <contour>
      <point x="113.42168674698794" y="0.0" type="line"/>
      <point x="182.1987951807229" y="0.0" type="line"/>
      <point x="182.1987951807229" y="286.75903614457826" type="line"/>
      <point x="453.3855421686747" y="286.75903614457826" type="line" smooth="yes"/>
      <point x="636.7754036144578" y="286.75903614457826"/>
      <point x="729.7048192771084" y="356.93373493975906"/>
      <point x="729.7048192771084" y="495.99397590361446" type="curve" smooth="yes"/>
      <point x="729.7048192771084" y="635.9397590361446"/>
      <point x="636.7754036144578" y="705.0"/>
      <point x="453.3855421686747" y="705.0" type="curve" smooth="yes"/>
      <point x="113.42168674698794" y="705.0" type="line"/>
    </contour>
    <contour>
      <point x="182.1987951807229" y="344.3253012048193" type="line"/>
      <point x="182.1987951807229" y="647.433734939759" type="line"/>
      <point x="450.15060240963857" y="647.433734939759" type="line" smooth="yes"/>
      <point x="594.9939759036145" y="647.433734939759"/>
      <point x="659.5301204819277" y="601.210843373494"/>
      <point x="659.5301204819277" y="496.10843373493975" type="curve" smooth="yes"/>
      <point x="659.5301204819277" y="391.12048192771084"/>
      <point x="593.6506024096385" y="344.3253012048193"/>
      <point x="450.15060240963857" y="344.3253012048193" type="curve" smooth="yes"/>
    </contour>
  </outline>
</glyph>
<glyph name="R" format="2">
  <advance width="816.7289156626506"/>
  <unicode hex="0052"/>
  <anchor x="409.03614457831327" y="0.0" name="bottom"/>
  <anchor x="408.9216867469879" y="705.0" name="top"/>
  <outline>
    <contour>
      <point x="113.42168674698794" y="0.0" type="line"/>
      <point x="182.1987951807229" y="0.0" type="line"/>
      <point x="182.1987951807229" y="301.8734939759036" type="line"/>
      <point x="381.83132530120486" y="301.8734939759036" type="line" smooth="yes"/>
      <point x="476.10843373493975" y="301.8734939759036"/>
      <point x="509.93373493975906" y="285.33132530120486"/>
      <point x="552.156626506024" y="223.93975903614458" type="curve" smooth="yes"/>
      <point x="703.8975903614457" y="0.0" type="line"/>
      <point x="782.6204819277108" y="0.0" type="line"/>
      <point x="621.3975903614457" y="234.01807228915663" type="line" smooth="yes"/>
      <point x="581.3975903614459" y="292.5602409638554"/>
      <point x="534.4819277108434" y="318.4457831325301"/>
      <point x="470.48192771084337" y="318.4457831325301" type="curve" smooth="yes"/>
      <point x="454.0120481927711" y="318.4457831325301" type="line"/>
      <point x="440.4698795180723" y="304.8734939759036" type="line"/>
      <point x="626.8734939759037" y="304.8734939759036"/>
      <point x="729.7048192771084" y="377.5903614457831"/>
      <point x="729.7048192771084" y="508.99397590361446" type="curve" smooth="yes"/>
      <point x="729.7048192771084" y="636.1686746987951"/>
      <point x="632.9879518072289" y="705.0"/>
      <point x="452.92771084337346" y="705.0" type="curve" smooth="yes"/>
      <point x="113.42168674698794" y="705.0" type="line"/>
    </contour>
    <contour>
      <point x="182.1987951807229" y="357.83734939759034" type="line"/>
      <point x="182.1987951807229" y="647.433734939759" type="line"/>
      <point x="446.37951807228916" y="647.433734939759" type="line" smooth="yes"/>
      <point x="592.4518072289156" y="647.433734939759"/>
      <point x="659.5301204819277" y="600.9819277108434"/>
      <point x="659.5301204819277" y="503.421686746988" type="curve" smooth="yes"/>
      <point x="659.5301204819277" y="404.7469879518072"/>
      <point x="592.4518072289156" y="357.83734939759034"/>
      <point x="446.37951807228916" y="357.83734939759034" type="curve" smooth="yes"/>
    </contour>
  </outline>
</glyph>
<glyph name="S" format="2">
  <advance width="748.4698795180724"/>
  <unicode hex="0053"/>
  <anchor x="387.23493975903614" y="0.0" name="bottom"/>
  <anchor x="379.7228915662651" y="705.0" name="top"/>
  <outline>
    <contour>
      <point x="383.66265060240966" y="-8.457831325301205" type="curve" smooth="yes"/>
      <point x="580.2409638554217" y="-8.457831325301205"/>
      <point x="697.789156626506" y="62.94578313253012"/>
      <point x="697.789156626506" y="182.49397590361446" type="curve" smooth="yes"/>
      <point x="697.789156626506" y="292.9518072289157"/>
      <point x="617.9879518072288" y="341.9277108433735"/>
      <point x="458.8734939759036" y="364.2710843373494" type="curve" smooth="yes"/>
      <point x="311.5843373493976" y="384.9578313253012" type="line" smooth="yes"/>
      <point x="197.6265060240964" y="400.9277108433735"/>
      <point x="149.8012048192771" y="436.8072289156626"/>
      <point x="149.8012048192771" y="512.710843373494" type="curve" smooth="yes"/>
      <point x="149.8012048192771" y="600.2409638554217"/>
      <point x="236.16265060240966" y="652.8614457831326"/>
      <point x="381.46385542168673" y="652.8614457831326" type="curve" smooth="yes"/>
      <point x="490.8072289156627" y="652.8614457831326"/>
      <point x="568.9216867469879" y="625.6626506024097"/>
      <point x="646.578313253012" y="562.4096385542168" type="curve"/>
      <point x="676.843373493976" y="616.4036144578313" type="line"/>
      <point x="605.6144578313252" y="679.8012048192771"/>
      <point x="503.3253012048193" y="713.4578313253012"/>
      <point x="382.2951807228916" y="713.4578313253012" type="curve" smooth="yes"/>
      <point x="197.83132530120483" y="713.4578313253012"/>
      <point x="79.82530120481928" y="634.0843373493976"/>
      <point x="79.82530120481928" y="508.76506024096386" type="curve" smooth="yes"/>
      <point x="79.82530120481928" y="402.50602409638554"/>
      <point x="149.6566265060241" y="343.90361445783134"/>
      <point x="302.2289156626506" y="322.789156626506" type="curve" smooth="yes"/>
      <point x="453.12048192771084" y="302.3313253012048" type="line" smooth="yes"/>
      <point x="564.6204819277109" y="286.7048192771084"/>
      <point x="627.6987951807229" y="262.33734939759034"/>
      <point x="627.6987951807229" y="178.69277108433735" type="curve" smooth="yes"/>
      <point x="627.6987951807229" y="97.01807228915662"/>
      <point x="541.7650602409637" y="52.13855421686747"/>
      <point x="384.7228915662651" y="52.13855421686747" type="curve" smooth="yes"/>
      <point x="265.1807228915663" y="52.13855421686747"/>
      <point x="181.12048192771084" y="77.25301204819276"/>
      <point x="90.54819277108435" y="139.42168674698794" type="curve"/>
      <point x="60.16867469879518" y="84.16867469879519" type="line"/>
      <point x="140.85542168674698" y="23.656626506024097"/>
      <point x="252.74698795180723" y="-8.457831325301205"/>
    </contour>
  </outline>
</glyph>
<glyph name="T" format="2">
  <advance width="731.5"/>
  <unicode hex="0054"/>
  <anchor x="365.8072289156627" y="0.0" name="bottom"/>
  <anchor x="365.921686746988" y="358.0" name="center"/>
  <anchor x="365.921686746988" y="705.0" name="top"/>
  <outline>
    <contour>
      <point x="331.4759036144578" y="0.0" type="line"/>
      <point x="400.2530120481928" y="0.0" type="line"/>
      <point x="400.2530120481928" y="645.9457831325301" type="line"/>
      <point x="730.9277108433735" y="645.9457831325301" type="line"/>
      <point x="730.9277108433735" y="705.0" type="line"/>
      <point x="0.8012048192771084" y="705.0" type="line"/>
      <point x="0.8012048192771084" y="645.9457831325301" type="line"/>
      <point x="331.4759036144578" y="645.9457831325301" type="line"/>
    </contour>
  </outline>
</glyph>
<glyph name="U" format="2">
  <advance width="897.066265060241"/>
  <unicode hex="0055"/>
  <anchor x="448.0903614457832" y="0.0" name="bottom"/>
  <anchor x="518.9759036144578" y="0.0" name="ogonek"/>
  <anchor x="448.0903614457832" y="705.0" name="top"/>
  <anchor x="728.566265060241" y="705.0" name="topright"/>
  <outline>
    <contour>
      <point x="448.31927710843377" y="-8.457831325301205" type="curve" smooth="yes"/>
      <point x="675.4698795180723" y="-8.457831325301205"/>
      <point x="789.644578313253" y="86.71686746987952"/>
      <point x="789.644578313253" y="273.15060240963857" type="curve" smooth="yes"/>
      <point x="789.644578313253" y="705.0" type="line"/>
      <point x="721.0963855421687" y="705.0" type="line"/>
      <point x="721.0963855421687" y="278.34939759036143" type="line" smooth="yes"/>
      <point x="721.0963855421687" y="127.50602409638554"/>
      <point x="631.7891566265059" y="52.825301204819276"/>
      <point x="448.31927710843377" y="52.825301204819276" type="curve" smooth="yes"/>
      <point x="265.73493975903614" y="52.825301204819276"/>
      <point x="175.3132530120482" y="127.50602409638554"/>
      <point x="175.3132530120482" y="278.34939759036143" type="curve" smooth="yes"/>
      <point x="175.3132530120482" y="705.0" type="line"/>
      <point x="106.53614457831326" y="705.0" type="line"/>
      <point x="106.53614457831326" y="273.15060240963857" type="line" smooth="yes"/>
      <point x="106.53614457831326" y="86.94578313253011"/>
      <point x="221.05421686746988" y="-8.457831325301205"/>
    </contour>
  </outline>
</glyph>
<glyph name="V" format="2">
  <advance width="834.3614457831326"/>
  <unicode hex="0056"/>
  <anchor x="417.1807228915663" y="0.0" name="bottom"/>
  <anchor x="417.1807228915663" y="705.0" name="top"/>
  <outline>
    <contour>
      <point x="382.48192771084337" y="0.0" type="line"/>
      <point x="451.87951807228916" y="0.0" type="line"/>
      <point x="831.8253012048192" y="705.0" type="line"/>
      <point x="757.3313253012049" y="705.0" type="line"/>
      <point x="405.1204819277109" y="47.48795180722892" type="line"/>
      <point x="432.3855421686747" y="47.48795180722892" type="line"/>
      <point x="79.94578313253011" y="705.0" type="line"/>
      <point x="2.536144578313253" y="705.0" type="line"/>
    </contour>
  </outline>
</glyph>
<glyph name="W" format="2">
  <advance width="1360.066265060241"/>
  <unicode hex="0057"/>
  <anchor x="681.8614457831326" y="0.0" name="bottom"/>
  <anchor x="680.2048192771084" y="705.0" name="top"/>
  <outline>
    <contour>
      <point x="345.68072289156623" y="0.0" type="line"/>
      <point x="410.1927710843373" y="0.0" type="line"/>
      <point x="689.6626506024096" y="637.0361445783133" type="line"/>
      <point x="668.7469879518072" y="637.0361445783133" type="line"/>
      <point x="948.3313253012047" y="0.0" type="line"/>
      <point x="1014.5" y="0.0" type="line"/>
      <point x="1319.3012048192772" y="705.0" type="line"/>
      <point x="1247.4397590361446" y="705.0" type="line"/>
      <point x="964.4277108433736" y="50.24096385542169" type="line"/>
      <point x="996.2048192771084" y="50.24096385542169" type="line"/>
      <point x="710.132530120482" y="705.0" type="line"/>
      <point x="649.3373493975904" y="705.0" type="line"/>
      <point x="363.15060240963857" y="50.24096385542169" type="line"/>
      <point x="399.355421686747" y="50.24096385542169" type="line"/>
      <point x="116.34337349397589" y="705.0" type="line"/>
      <point x="41.10843373493976" y="705.0" type="line"/>
    </contour>
  </outline>
</glyph>
<glyph name="X" format="2">
  <advance width="788.9879518072289"/>
  <unicode hex="0058"/>
  <anchor x="395.4939759036145" y="0.0" name="bottom"/>
  <anchor x="395.49397590361446" y="705.0" name="top"/>
  <outline>
    <contour>
      <point x="20.33132530120482" y="0.0" type="line"/>
      <point x="106.88554216867469" y="0.0" type="line"/>
      <point x="407.4698795180723" y="327.4397590361446" type="line"/>
      <point x="379.28915662650604" y="327.4397590361446" type="line"/>
      <point x="680.6445783132531" y="0.0" type="line"/>
      <point x="768.343373493976" y="0.0" type="line"/>
      <point x="426.1927710843374" y="372.6927710843373" type="line"/>
      <point x="426.1927710843374" y="349.4759036144579" type="line"/>
      <point x="751.2590361445783" y="705.0" type="line"/>
      <point x="664.8192771084338" y="705.0" type="line"/>
      <point x="387.6024096385542" y="397.81325301204816" type="line"/>
      <point x="406.1566265060241" y="397.81325301204816" type="line"/>
      <point x="124.42771084337349" y="705.0" type="line"/>
      <point x="36.72891566265061" y="705.0" type="line"/>
      <point x="363.0240963855422" y="349.4759036144579" type="line"/>
      <point x="363.0240963855422" y="372.6927710843373" type="line"/>
    </contour>
  </outline>
</glyph>
<glyph name="Y" format="2">
  <advance width="720.8734939759036"/>
  <unicode hex="0059"/>
  <anchor x="359.4939759036145" y="0.0" name="bottom"/>
  <anchor x="359.8373493975904" y="705.0" name="top"/>
  <anchor x="17.343373493975903" y="705.0" name="topleft"/>
  <outline>
    <contour>
      <point x="325.2771084337349" y="0.0" type="line"/>
      <point x="394.0542168674699" y="0.0" type="line"/>
      <point x="394.0542168674699" y="357.1144578313253" type="line"/>
      <point x="379.27710843373495" y="315.4698795180723" type="line"/>
      <point x="729.9397590361446" y="705.0" type="line"/>
      <point x="652.7590361445783" y="705.0" type="line"/>
      <point x="352.1204819277109" y="374.04216867469876" type="line"/>
      <point x="372.4397590361446" y="374.04216867469876" type="line"/>
      <point x="74.68674698795179" y="705.0" type="line"/>
      <point x="-9.066265060240964" y="705.0" type="line"/>
      <point x="341.93975903614455" y="315.4698795180723" type="line"/>
      <point x="325.2771084337349" y="357.1144578313253" type="line"/>
    </contour>
  </outline>
</glyph>
<glyph name="Z" format="2">
  <advance width="716.355421686747"/>
  <unicode hex="005A"/>
  <anchor x="374.66265060240966" y="0.0" name="bottom"/>
  <anchor x="374.5481927710843" y="705.0" name="top"/>
  <outline>
    <contour>
      <point x="56.8855421686747" y="0.0" type="line"/>
      <point x="691.4698795180723" y="0.0" type="line"/>
      <point x="691.4698795180723" y="58.25301204819277" type="line"/>
      <point x="125.34939759036143" y="58.25301204819277" type="line"/>
      <point x="125.34939759036143" y="31.704819277108435" type="line"/>
      <point x="675.1265060240964" y="655.2048192771084" type="line"/>
      <point x="675.1265060240964" y="705.0" type="line"/>
      <point x="56.8855421686747" y="705.0" type="line"/>
      <point x="56.8855421686747" y="646.7469879518072" type="line"/>
      <point x="607.5481927710844" y="646.7469879518072" type="line"/>
      <point x="607.5481927710844" y="673.5240963855422" type="line"/>
      <point x="56.8855421686747" y="49.795180722891565" type="line"/>
    </contour>
  </outline>
</glyph>
<glyph name="bracketleft" format="2">
  <advance width="357.1144578313253"/>
  <unicode hex="005B"/>
  <outline>
    <contour>
      <point x="134.85542168674698" y="-180.0" type="line"/>
      <point x="353.82530120481925" y="-180.0" type="line"/>
      <point x="353.82530120481925" y="-125.69277108433735" type="line"/>
      <point x="201.9156626506024" y="-125.69277108433735" type="line"/>
      <point x="201.9156626506024" y="650.6927710843373" type="line"/>
      <point x="353.82530120481925" y="650.6927710843373" type="line"/>
      <point x="353.82530120481925" y="705.0" type="line"/>
      <point x="134.85542168674698" y="705.0" type="line"/>
    </contour>
  </outline>
</glyph>
<glyph name="bracketright" format="2">
  <advance width="357.1144578313253"/>
  <unicode hex="005D"/>
  <outline>
    <contour>
      <point x="3.2891566265060237" y="-180.0" type="line"/>
      <point x="222.3734939759036" y="-180.0" type="line"/>
      <point x="222.3734939759036" y="705.0" type="line"/>
      <point x="3.2891566265060237" y="705.0" type="line"/>
      <point x="3.2891566265060237" y="650.6927710843373" type="line"/>
      <point x="155.31325301204816" y="650.6927710843373" type="line"/>
      <point x="155.31325301204816" y="-125.69277108433735" type="line"/>
      <point x="3.2891566265060237" y="-125.69277108433735" type="line"/>
    </contour>
  </outline>
</glyph>
<glyph name="asciicircum" format="2">
  <advance width="748.0"/>
  <unicode hex="005E"/>
  <outline>
    <contour>
      <point x="93.59036144578312" y="147.45180722891567" type="line"/>
      <point x="154.21084337349396" y="147.45180722891567" type="line"/>
      <point x="390.6927710843373" y="592.4819277108434" type="line"/>
      <point x="357.53614457831327" y="592.4819277108434" type="line"/>
      <point x="593.789156626506" y="147.45180722891567" type="line"/>
      <point x="654.4096385542168" y="147.45180722891567" type="line"/>
      <point x="401.3253012048193" y="627.1144578313254" type="line"/>
      <point x="346.6746987951807" y="627.1144578313254" type="line"/>
    </contour>
  </outline>
</glyph>
<glyph name="a" format="2">
  <advance width="643.6987951807229"/>
  <unicode hex="0061"/>
  <anchor x="325.66265060240966" y="0.0" name="bottom"/>
  <anchor x="539.2409638554216" y="0.0" name="ogonek"/>
  <anchor x="329.89156626506025" y="484.0" name="top"/>
  <outline>
    <contour>
      <point x="278.5421686746988" y="-8.457831325301205" type="curve" smooth="yes"/>
      <point x="388.48192771084337" y="-8.457831325301205"/>
      <point x="461.87951807228916" y="41.82530120481928"/>
      <point x="493.16265060240966" y="118.25301204819277" type="curve"/>
      <point x="479.73493975903614" y="117.36746987951808" type="line"/>
      <point x="479.73493975903614" y="0.0" type="line"/>
      <point x="544.078313253012" y="0.0" type="line"/>
      <point x="544.078313253012" y="312.3614457831325" type="line" smooth="yes"/>
      <point x="544.078313253012" y="434.5421686746988"/>
      <point x="469.9879518072289" y="493.6024096385542"/>
      <point x="327.6024096385542" y="493.6024096385542" type="curve" smooth="yes"/>
      <point x="244.5722891566265" y="493.6024096385542"/>
      <point x="155.68072289156626" y="469.7168674698795"/>
      <point x="98.84939759036145" y="431.83132530120486" type="curve"/>
      <point x="123.96987951807229" y="379.2409638554217" type="line"/>
      <point x="181.11445783132532" y="417.98192771084337"/>
      <point x="251.9156626506024" y="437.6385542168675"/>
      <point x="327.4879518072289" y="437.6385542168675" type="curve" smooth="yes"/>
      <point x="428.36746987951807" y="437.6385542168675"/>
      <point x="478.50602409638554" y="399.8433734939759"/>
      <point x="478.50602409638554" y="317.59638554216866" type="curve" smooth="yes"/>
      <point x="478.50602409638554" y="201.3433734939759" type="line" smooth="yes"/>
      <point x="478.50602409638554" y="108.75301204819277"/>
      <point x="394.3975903614458" y="43.903614457831324"/>
      <point x="286.00602409638554" y="43.903614457831324" type="curve" smooth="yes"/>
      <point x="198.3855421686747" y="43.903614457831324"/>
      <point x="143.30722891566265" y="83.355421686747"/>
      <point x="143.30722891566265" y="143.63253012048193" type="curve" smooth="yes"/>
      <point x="143.30722891566265" y="202.13855421686748"/>
      <point x="183.47590361445785" y="231.04819277108433"/>
      <point x="381.2831325301205" y="231.04819277108433" type="curve" smooth="yes"/>
      <point x="493.421686746988" y="231.04819277108433" type="line"/>
      <point x="493.421686746988" y="279.0903614457832" type="line"/>
      <point x="378.6265060240964" y="279.0903614457832" type="line" smooth="yes"/>
      <point x="142.13855421686748" y="279.0903614457832"/>
      <point x="73.84939759036145" y="233.4036144578313"/>
      <point x="73.84939759036145" y="142.06024096385542" type="curve" smooth="yes"/>
      <point x="73.84939759036145" y="54.80120481927711"/>
      <point x="158.56626506024097" y="-8.457831325301205"/>
    </contour>
  </outline>
</glyph>
<glyph name="c" format="2">
  <advance width="566.6927710843373"/>
  <unicode hex="0063"/>
  <anchor x="341.63253012048193" y="0.0" name="bottom"/>
  <anchor x="341.63253012048193" y="484.0" name="top"/>
  <outline>
    <contour>
      <point x="337.46385542168673" y="-8.457831325301205" type="curve" smooth="yes"/>
      <point x="418.60843373493975" y="-8.457831325301205"/>
      <point x="490.6686746987952" y="16.08433734939759"/>
      <point x="541.6686746987951" y="60.36746987951807" type="curve"/>
      <point x="512.9759036144578" y="110.10240963855422" type="line"/>
      <point x="463.66265060240966" y="69.04819277108433"/>
      <point x="404.6927710843373" y="48.07831325301205"/>
      <point x="338.86746987951807" y="48.07831325301205" type="curve" smooth="yes"/>
      <point x="210.70481927710844" y="48.07831325301205"/>
      <point x="131.7409638554217" y="122.9277108433735"/>
      <point x="131.7409638554217" y="242.45783132530119" type="curve" smooth="yes"/>
      <point x="131.7409638554217" y="361.44578313253015"/>
      <point x="210.70481927710844" y="437.06626506024094"/>
      <point x="338.98192771084337" y="437.06626506024094" type="curve" smooth="yes"/>
      <point x="403.9216867469879" y="437.06626506024094"/>
      <point x="462.3493975903615" y="416.86746987951807"/>
      <point x="512.9759036144578" y="376.1566265060241" type="curve"/>
      <point x="541.6686746987951" y="424.77710843373495" type="line"/>
      <point x="491.7831325301205" y="469.28915662650604"/>
      <point x="419.6084337349398" y="493.6024096385542"/>
      <point x="337.46385542168673" y="493.6024096385542" type="curve" smooth="yes"/>
      <point x="171.0843373493976" y="493.6024096385542"/>
      <point x="62.22289156626506" y="394.2590361445783"/>
      <point x="62.22289156626506" y="242.5722891566265" type="curve" smooth="yes"/>
      <point x="62.22289156626506" y="90.7710843373494"/>
      <point x="171.0843373493976" y="-8.457831325301205"/>
    </contour>
  </outline>
</glyph>
<glyph name="d" format="2">
  <advance width="714.1265060240964"/>
  <unicode hex="0064"/>
  <anchor x="358.89156626506025" y="0.0" name="bottom"/>
  <anchor x="358.28915662650604" y="245.2289156626506" name="center"/>
  <anchor x="514.7469879518072" y="582.0602409638554" name="stroke"/>
  <anchor x="357.00602409638554" y="484.0" name="top"/>
  <anchor x="673.5301204819277" y="705.0" name="topright"/>
  <outline>
    <contour>
      <point x="331.33734939759034" y="-8.457831325301205" type="curve" smooth="yes"/>
      <point x="441.44578313253015" y="-8.457831325301205"/>
      <point x="530.4156626506025" y="41.25301204819277"/>
      <point x="558.5602409638554" y="120.16265060240964" type="curve"/>
      <point x="545.6746987951808" y="120.16265060240964" type="line"/>
      <point x="545.6746987951808" y="0.0" type="line"/>
      <point x="612.277108433735" y="0.0" type="line"/>
      <point x="612.277108433735" y="705.0" type="line"/>
      <point x="545.2168674698795" y="705.0" type="line"/>
      <point x="545.2168674698795" y="365.21084337349396" type="line"/>
      <point x="558.5602409638553" y="365.21084337349396" type="line"/>
      <point x="530.4156626506025" y="443.89156626506025"/>
      <point x="441.5602409638554" y="493.6024096385542"/>
      <point x="331.33734939759034" y="493.6024096385542" type="curve" smooth="yes"/>
      <point x="168.45180722891567" y="493.6024096385542"/>
      <point x="62.22289156626506" y="395.2590361445783"/>
      <point x="62.22289156626506" y="242.6867469879518" type="curve" smooth="yes"/>
      <point x="62.22289156626506" y="90.1144578313253"/>
      <point x="168.45180722891567" y="-8.457831325301205"/>
    </contour>
    <contour>
      <point x="338.8072289156626" y="47.62048192771084" type="curve" smooth="yes"/>
      <point x="210.01807228915663" y="47.62048192771084"/>
      <point x="131.16867469879517" y="122.58433734939759"/>
      <point x="131.16867469879517" y="242.6867469879518" type="curve" smooth="yes"/>
      <point x="131.16867469879517" y="362.78915662650604"/>
      <point x="210.01807228915663" y="437.5240963855422"/>
      <point x="338.8072289156626" y="437.5240963855422" type="curve" smooth="yes"/>
      <point x="467.36746987951807" y="437.5240963855422"/>
      <point x="546.4457831325302" y="362.78915662650604"/>
      <point x="546.4457831325302" y="242.6867469879518" type="curve" smooth="yes"/>
      <point x="546.4457831325302" y="122.58433734939759"/>
      <point x="467.36746987951807" y="47.62048192771084"/>
    </contour>
  </outline>
</glyph>
<glyph name="e" format="2">
  <advance width="651.1204819277109"/>
  <unicode hex="0065"/>
  <anchor x="345.5722891566265" y="0.0" name="bottom"/>
  <anchor x="447.644578313253" y="0.0" name="ogonek"/>
  <anchor x="348.0903614457831" y="484.0" name="top"/>
  <outline>
    <contour>
      <point x="356.37951807228916" y="-8.457831325301205" type="curve" smooth="yes"/>
      <point x="454.1807228915663" y="-8.457831325301205"/>
      <point x="543.2108433734941" y="19.626506024096386"/>
      <point x="588.355421686747" y="63.02409638554218" type="curve"/>
      <point x="563.5783132530121" y="111.5" type="line"/>
      <point x="510.2951807228916" y="67.70481927710844"/>
      <point x="445.26506024096386" y="47.506024096385545"/>
      <point x="362.06626506024094" y="47.506024096385545" type="curve" smooth="yes"/>
      <point x="209.69879518072287" y="47.506024096385545"/>
      <point x="129.56626506024097" y="117.6144578313253"/>
      <point x="129.56626506024097" y="242.06024096385542" type="curve" smooth="yes"/>
      <point x="129.56626506024097" y="248.4036144578313" type="line" smooth="yes"/>
      <point x="129.56626506024097" y="365.421686746988"/>
      <point x="211.5" y="441.69879518072287"/>
      <point x="346.7469879518072" y="441.69879518072287" type="curve" smooth="yes"/>
      <point x="468.76506024096386" y="441.69879518072287"/>
      <point x="537.9578313253013" y="378.73493975903614"/>
      <point x="538.3012048192771" y="263.3192771084337" type="curve"/>
      <point x="559.644578313253" y="276.8072289156627" type="line"/>
      <point x="108.99397590361446" y="276.8072289156627" type="line"/>
      <point x="108.99397590361446" y="228.53614457831324" type="line"/>
      <point x="598.355421686747" y="228.53614457831324" type="line"/>
      <point x="598.355421686747" y="258.0542168674699" type="line" smooth="yes"/>
      <point x="598.355421686747" y="406.8855421686747"/>
      <point x="503.49397590361446" y="493.6024096385542"/>
      <point x="346.4879518072289" y="493.6024096385542" type="curve" smooth="yes"/>
      <point x="177.74096385542168" y="493.6024096385542"/>
      <point x="62.22289156626506" y="392.0301204819277"/>
      <point x="62.22289156626506" y="238.8012048192771" type="curve" smooth="yes"/>
      <point x="62.22289156626506" y="85.22891566265059"/>
      <point x="177.3132530120482" y="-8.457831325301205"/>
    </contour>
  </outline>
</glyph>
<glyph name="f" format="2">
  <advance width="385.4518072289157"/>
  <unicode hex="0066"/>
  <anchor x="160.1566265060241" y="0.0" name="bottom"/>
  <anchor x="160.1566265060241" y="705.0" name="top"/>
  <outline>
    <contour>
      <point x="126.51204819277108" y="0.0" type="line"/>
      <point x="193.5722891566265" y="0.0" type="line"/>
      <point x="193.5722891566265" y="432.06626506024094" type="line"/>
      <point x="373.36746987951807" y="432.06626506024094" type="line"/>
      <point x="373.36746987951807" y="485.144578313253" type="line"/>
      <point x="178.99397590361446" y="485.144578313253" type="line"/>
      <point x="193.5722891566265" y="470.6807228915663" type="line"/>
      <point x="193.5722891566265" y="510.96987951807233" type="line" smooth="yes"/>
      <point x="193.5722891566265" y="602.0722891566265"/>
      <point x="244.6807228915663" y="645.722891566265"/>
      <point x="342.39156626506025" y="650.6084337349398" type="curve" smooth="yes"/>
      <point x="402.36746987951807" y="653.8373493975904" type="line"/>
      <point x="395.56626506024094" y="707.6867469879518" type="line"/>
      <point x="351.1265060240964" y="705.1144578313252" type="line" smooth="yes"/>
      <point x="200.2590361445783" y="696.3132530120482"/>
      <point x="126.51204819277108" y="631.4819277108434"/>
      <point x="126.51204819277108" y="504.93373493975906" type="curve" smooth="yes"/>
      <point x="126.51204819277108" y="470.56626506024094" type="line"/>
      <point x="141.2048192771084" y="485.144578313253" type="line"/>
      <point x="5.313253012048193" y="485.144578313253" type="line"/>
      <point x="5.313253012048193" y="432.06626506024094" type="line"/>
      <point x="126.51204819277108" y="432.06626506024094" type="line"/>
    </contour>
  </outline>
</glyph>
<glyph name="g" format="2">
  <advance width="714.6987951807229"/>
  <unicode hex="0067"/>
  <anchor x="358.89156626506025" y="484.0" name="top"/>
  <outline>
    <contour>
      <point x="357.1987951807229" y="-188.4578313253012" type="curve" smooth="yes"/>
      <point x="526.5" y="-188.4578313253012"/>
      <point x="612.8493975903614" y="-115.39759036144578"/>
      <point x="612.8493975903614" y="29.753012048192772" type="curve" smooth="yes"/>
      <point x="612.8493975903614" y="485.144578313253" type="line"/>
      <point x="546.2469879518072" y="485.144578313253" type="line"/>
      <point x="546.2469879518072" y="365.210843373494" type="line"/>
      <point x="558.9036144578313" y="365.210843373494" type="line"/>
      <point x="532.1325301204819" y="443.89156626506025"/>
      <point x="443.84939759036143" y="493.6024096385542"/>
      <point x="331.68072289156623" y="493.6024096385542" type="curve" smooth="yes"/>
      <point x="168.22289156626505" y="493.6024096385542"/>
      <point x="62.22289156626506" y="399.6024096385542"/>
      <point x="62.22289156626506" y="252.9156626506024" type="curve" smooth="yes"/>
      <point x="62.22289156626506" y="106.2289156626506"/>
      <point x="168.33734939759037" y="12.0"/>
      <point x="332.0240963855421" y="12.0" type="curve" smooth="yes"/>
      <point x="443.96385542168673" y="12.0"/>
      <point x="532.1325301204819" y="61.71084337349398"/>
      <point x="558.9036144578314" y="140.50602409638554" type="curve"/>
      <point x="546.3614457831325" y="140.50602409638554" type="line"/>
      <point x="546.3614457831325" y="20.69277108433735" type="line" smooth="yes"/>
      <point x="546.3614457831325" y="-79.0421686746988"/>
      <point x="480.87951807228916" y="-132.49397590361446"/>
      <point x="357.6265060240964" y="-132.49397590361446" type="curve" smooth="yes"/>
      <point x="264.31325301204816" y="-132.49397590361446"/>
      <point x="195.96385542168676" y="-117.69277108433735"/>
      <point x="124.16867469879519" y="-65.2409638554217" type="curve"/>
      <point x="98.27710843373494" y="-115.28915662650601" type="line"/>
      <point x="163.13253012048193" y="-167.22891566265062"/>
      <point x="253.99397590361443" y="-188.4578313253012"/>
    </contour>
    <contour>
      <point x="339.1506024096385" y="68.07831325301204" type="curve" smooth="yes"/>
      <point x="210.47590361445785" y="68.07831325301204"/>
      <point x="131.16867469879517" y="139.04216867469881"/>
      <point x="131.16867469879517" y="252.9156626506024" type="curve" smooth="yes"/>
      <point x="131.16867469879517" y="366.789156626506"/>
      <point x="210.47590361445785" y="437.5240963855422"/>
      <point x="339.1506024096385" y="437.5240963855422" type="curve" smooth="yes"/>
      <point x="467.82530120481925" y="437.5240963855422"/>
      <point x="547.132530120482" y="366.789156626506"/>
      <point x="547.132530120482" y="252.9156626506024" type="curve" smooth="yes"/>
      <point x="547.132530120482" y="139.04216867469881"/>
      <point x="467.82530120481925" y="68.07831325301204"/>
    </contour>
  </outline>
</glyph>
<glyph name="h" format="2">
  <advance width="695.1265060240964"/>
  <unicode hex="0068"/>
  <anchor x="345.6927710843374" y="0.0" name="bottom"/>
  <anchor x="345.6927710843374" y="245.8012048192771" name="center"/>
  <anchor x="268.5240963855421" y="352.7710843373494" name="dot"/>
  <anchor x="196.60843373493975" y="582.0602409638554" name="stroke"/>
  <anchor x="346.8072289156627" y="705.0" name="top"/>
  <anchor x="216.27710843373492" y="705.0" name="topright"/>
  <outline>
    <contour>
      <point x="101.84939759036143" y="0.0" type="line"/>
      <point x="168.90963855421685" y="0.0" type="line"/>
      <point x="168.90963855421685" y="254.62650602409636" type="line" smooth="yes"/>
      <point x="168.90963855421685" y="362.38554216867465"/>
      <point x="244.56024096385542" y="436.72289156626505"/>
      <point x="369.66265060240966" y="436.72289156626505" type="curve" smooth="yes"/>
      <point x="471.22289156626505" y="436.72289156626505"/>
      <point x="528.4457831325302" y="395.6987951807229"/>
      <point x="528.4457831325302" y="276.1385542168675" type="curve" smooth="yes"/>
      <point x="528.4457831325302" y="0.0" type="line"/>
      <point x="595.5060240963857" y="0.0" type="line"/>
      <point x="595.5060240963857" y="279.71084337349396" type="line" smooth="yes"/>
      <point x="595.5060240963857" y="440.74096385542174"/>
      <point x="509.68072289156623" y="493.6024096385542"/>
      <point x="378.84939759036143" y="493.6024096385542" type="curve" smooth="yes"/>
      <point x="266.9397590361446" y="493.6024096385542"/>
      <point x="196.1686746987952" y="444.77710843373495"/>
      <point x="158.90963855421688" y="367.49397590361446" type="curve"/>
      <point x="169.02409638554215" y="367.49397590361446" type="line"/>
      <point x="168.90963855421685" y="705.0" type="line"/>
      <point x="101.84939759036143" y="705.0" type="line"/>
    </contour>
  </outline>
</glyph>
<glyph name="i" format="2">
  <advance width="270.7590361445783"/>
  <unicode hex="0069"/>
  <anchor x="135.49397590361448" y="0.0" name="bottom"/>
  <anchor x="162.6144578313253" y="0.0" name="ogonek"/>
  <outline>
    <contour>
      <point x="87.76506024096386" y="611.7048192771084" type="line"/>
      <point x="181.87951807228916" y="611.7048192771084" type="line"/>
      <point x="181.87951807228916" y="692.4698795180723" type="line"/>
      <point x="87.76506024096386" y="692.4698795180723" type="line"/>
    </contour>
    <contour>
      <point x="101.84939759036143" y="0.0" type="line"/>
      <point x="168.90963855421685" y="0.0" type="line"/>
      <point x="168.90963855421685" y="485.144578313253" type="line"/>
      <point x="101.84939759036143" y="485.144578313253" type="line"/>
    </contour>
  </outline>
</glyph>
<glyph name="j" format="2">
  <advance width="268.90361445783134"/>
  <unicode hex="006A"/>
  <outline>
    <contour>
      <point x="89.33734939759036" y="611.7048192771084" type="line"/>
      <point x="183.45180722891567" y="611.7048192771084" type="line"/>
      <point x="183.45180722891567" y="692.4698795180723" type="line"/>
      <point x="89.33734939759036" y="692.4698795180723" type="line"/>
    </contour>
    <contour>
      <point x="-71.02409638554217" y="-193.0" type="line"/>
      <point x="-15.993975903614459" y="-189.8855421686747" type="line" smooth="yes"/>
      <point x="109.08433734939759" y="-182.855421686747"/>
      <point x="169.5963855421687" y="-119.13855421686748"/>
      <point x="169.5963855421687" y="-10.41566265060241" type="curve" smooth="yes"/>
      <point x="169.5963855421687" y="485.144578313253" type="line"/>
      <point x="102.53614457831326" y="485.144578313253" type="line"/>
      <point x="102.53614457831326" y="-16.30722891566265" type="line" smooth="yes"/>
      <point x="102.53614457831326" y="-88.27108433734941"/>
      <point x="59.85542168674699" y="-129.92168674698794"/>
      <point x="-22.10843373493976" y="-135.15060240963857" type="curve" smooth="yes"/>
      <point x="-75.6265060240964" y="-138.72289156626505" type="line"/>
    </contour>
  </outline>
</glyph>
<glyph name="k" format="2">
  <advance width="589.855421686747"/>
  <unicode hex="006B"/>
  <anchor x="294.9277108433735" y="0.0" name="bottom"/>
  <anchor x="346.8072289156627" y="705.0" name="top"/>
  <outline>
    <contour>
      <point x="99.19277108433734" y="0.0" type="line"/>
      <point x="166.25301204819277" y="0.0" type="line"/>
      <point x="166.25301204819277" y="231.19277108433735" type="line"/>
      <point x="168.25301204819277" y="231.19277108433735" type="line"/>
      <point x="493.3975903614458" y="0.0" type="line"/>
      <point x="595.433734939759" y="0.0" type="line"/>
      <point x="212.39156626506025" y="270.289156626506" type="line"/>
      <point x="212.39156626506025" y="232.3132530120482" type="line"/>
      <point x="563.7530120481928" y="485.144578313253" type="line"/>
      <point x="466.17469879518075" y="485.144578313253" type="line"/>
      <point x="168.25301204819277" y="266.26506024096386" type="line"/>
      <point x="166.25301204819277" y="266.26506024096386" type="line"/>
      <point x="166.25301204819277" y="705.0" type="line"/>
      <point x="99.19277108433734" y="705.0" type="line"/>
    </contour>
  </outline>
</glyph>
<glyph name="l" format="2">
  <advance width="343.9036144578313"/>
  <unicode hex="006C"/>
  <anchor x="224.20481927710844" y="0.0" name="bottom"/>
  <anchor x="145.26506024096386" y="357.0" name="center"/>
  <anchor x="312.19879518072287" y="357.0" name="dot"/>
  <anchor x="132.60843373493975" y="705.0" name="top"/>
  <anchor x="226.73493975903614" y="705.0" name="topright"/>
  <outline>
    <contour>
      <point x="270.921686746988" y="-8.457831325301205" type="curve" smooth="yes"/>
      <point x="290.7831325301205" y="-8.457831325301205"/>
      <point x="312.0722891566265" y="-6.114457831325302"/>
      <point x="334.9879518072289" y="-1.7710843373493976" type="curve"/>
      <point x="338.7590361445783" y="55.33734939759036" type="line"/>
      <point x="321.13253012048193" y="51.45180722891566"/>
      <point x="299.90361445783134" y="49.566265060240966"/>
      <point x="282.90361445783134" y="49.566265060240966" type="curve" smooth="yes"/>
      <point x="204.99397590361446" y="49.566265060240966"/>
      <point x="166.25301204819277" y="90.93373493975903"/>
      <point x="166.25301204819277" y="167.0120481927711" type="curve" smooth="yes"/>
      <point x="166.25301204819277" y="705.0" type="line"/>
      <point x="99.19277108433734" y="705.0" type="line"/>
      <point x="99.19277108433734" y="159.43975903614458" type="line" smooth="yes"/>
      <point x="99.19277108433734" y="52.602409638554214"/>
      <point x="160.90963855421685" y="-8.457831325301205"/>
    </contour>
  </outline>
</glyph>
<glyph name="m" format="2">
  <advance width="1053.6144578313254"/>
  <unicode hex="006D"/>
  <anchor x="527.921686746988" y="0.0" name="bottom"/>
  <anchor x="527.921686746988" y="484.0" name="top"/>
  <outline>
    <contour>
      <point x="103.84939759036143" y="0.0" type="line"/>
      <point x="170.90963855421685" y="0.0" type="line"/>
      <point x="170.90963855421685" y="254.6265060240964" type="line" smooth="yes"/>
      <point x="170.90963855421685" y="362.3855421686747"/>
      <point x="239.9036144578313" y="436.72289156626505"/>
      <point x="353.5783132530121" y="436.72289156626505" type="curve" smooth="yes"/>
      <point x="443.71084337349396" y="436.72289156626505"/>
      <point x="494.2771084337349" y="395.6987951807229"/>
      <point x="494.2771084337349" y="276.0240963855422" type="curve" smooth="yes"/>
      <point x="494.2771084337349" y="0.0" type="line"/>
      <point x="561.3373493975904" y="0.0" type="line"/>
      <point x="561.3373493975904" y="254.6265060240964" type="line" smooth="yes"/>
      <point x="561.3373493975904" y="362.3855421686747"/>
      <point x="630.5602409638554" y="436.72289156626505"/>
      <point x="744.0060240963855" y="436.72289156626505" type="curve" smooth="yes"/>
      <point x="834.3674698795181" y="436.72289156626505"/>
      <point x="884.933734939759" y="395.6987951807229"/>
      <point x="884.933734939759" y="276.0240963855422" type="curve" smooth="yes"/>
      <point x="884.933734939759" y="0.0" type="line"/>
      <point x="951.9939759036145" y="0.0" type="line"/>
      <point x="951.9939759036145" y="279.71084337349396" type="line" smooth="yes"/>
      <point x="951.9939759036145" y="440.74096385542174"/>
      <point x="873.2614819277109" y="493.6024096385542"/>
      <point x="752.277108433735" y="493.6024096385542" type="curve" smooth="yes"/>
      <point x="645.7726385542168" y="493.6024096385542"/>
      <point x="577.4108795180723" y="444.36815662650605"/>
      <point x="540.734939759036" y="367.37951807228916" type="curve"/>
      <point x="551.5060240963855" y="367.37951807228916" type="line"/>
      <point x="526.6974939759036" y="460.96123493975904"/>
      <point x="458.0776265060241" y="493.6024096385542"/>
      <point x="362.76506024096386" y="493.6024096385542" type="curve" smooth="yes"/>
      <point x="260.28313253012044" y="493.6024096385542"/>
      <point x="195.71084337349396" y="443.77710843373495"/>
      <point x="159.33734939759037" y="367.49397590361446" type="curve"/>
      <point x="169.45180722891567" y="367.49397590361446" type="line"/>
      <point x="169.45180722891567" y="485.144578313253" type="line"/>
      <point x="103.84939759036143" y="485.144578313253" type="line"/>
    </contour>
  </outline>
</glyph>
<glyph name="o" format="2">
  <advance width="677.6144578313252"/>
  <unicode hex="006F"/>
  <anchor x="338.8072289156626" y="0.0" name="bottom"/>
  <anchor x="335.26506024096386" y="242.6867469879518" name="center"/>
  <anchor x="370.1265060240964" y="0.0" name="ogonek"/>
  <anchor x="338.8072289156626" y="484.0" name="top"/>
  <anchor x="396.6385542168674" y="484.0" name="topright"/>
  <outline>
    <contour>
      <point x="338.8072289156626" y="-8.457831325301205" type="curve" smooth="yes"/>
      <point x="508.1024096385542" y="-8.457831325301205"/>
      <point x="615.3915662650603" y="91.57228915662651"/>
      <point x="615.3915662650603" y="242.6867469879518" type="curve" smooth="yes"/>
      <point x="615.3915662650603" y="393.5722891566265"/>
      <point x="508.1024096385542" y="493.6024096385542"/>
      <point x="338.8072289156626" y="493.6024096385542" type="curve" smooth="yes"/>
      <point x="169.2831325301205" y="493.6024096385542"/>
      <point x="62.22289156626506" y="393.5722891566265"/>
      <point x="62.22289156626506" y="242.6867469879518" type="curve" smooth="yes"/>
      <point x="62.22289156626506" y="91.57228915662651"/>
      <point x="169.2831325301205" y="-8.457831325301205"/>
    </contour>
    <contour>
      <point x="338.8072289156626" y="47.62048192771084" type="curve" smooth="yes"/>
      <point x="209.13253012048193" y="47.62048192771084"/>
      <point x="131.16867469879517" y="122.58433734939759"/>
      <point x="131.16867469879517" y="242.6867469879518" type="curve" smooth="yes"/>
      <point x="131.16867469879517" y="362.78915662650604"/>
      <point x="209.13253012048193" y="437.5240963855422"/>
      <point x="338.8072289156626" y="437.5240963855422" type="curve" smooth="yes"/>
      <point x="468.2530120481928" y="437.5240963855422"/>
      <point x="546.4457831325302" y="362.78915662650604"/>
      <point x="546.4457831325302" y="242.6867469879518" type="curve" smooth="yes"/>
      <point x="546.4457831325302" y="122.58433734939759"/>
      <point x="468.2530120481928" y="47.62048192771084"/>
    </contour>
  </outline>
</glyph>
<glyph name="p" format="2">
  <advance width="714.0120481927711"/>
  <unicode hex="0070"/>
  <anchor x="354.34939759036143" y="0.0" name="bottom"/>
  <anchor x="354.34939759036143" y="484.0" name="top"/>
  <outline>
    <contour>
      <point x="101.84939759036143" y="-180.0" type="line"/>
      <point x="168.90963855421685" y="-180.0" type="line"/>
      <point x="168.90963855421685" y="120.04819277108433" type="line"/>
      <point x="155.56626506024097" y="120.04819277108433" type="line"/>
      <point x="182.45180722891567" y="41.253012048192765"/>
      <point x="270.39156626506025" y="-8.457831325301205"/>
      <point x="382.2168674698795" y="-8.457831325301205" type="curve" smooth="yes"/>
      <point x="546.0180722891566" y="-8.457831325301205"/>
      <point x="651.789156626506" y="90.1144578313253"/>
      <point x="651.789156626506" y="242.6867469879518" type="curve" smooth="yes"/>
      <point x="651.789156626506" y="395.2590361445783"/>
      <point x="546.0180722891566" y="493.6024096385542"/>
      <point x="382.2168674698795" y="493.6024096385542" type="curve" smooth="yes"/>
      <point x="270.27710843373495" y="493.6024096385542"/>
      <point x="182.45180722891567" y="443.89156626506025"/>
      <point x="155.56626506024097" y="365.3253012048193" type="curve"/>
      <point x="168.79518072289156" y="365.3253012048193" type="line"/>
      <point x="168.79518072289156" y="485.144578313253" type="line"/>
      <point x="101.84939759036143" y="485.144578313253" type="line"/>
    </contour>
    <contour>
      <point x="375.2048192771084" y="47.62048192771084" type="curve" smooth="yes"/>
      <point x="246.64457831325302" y="47.62048192771084"/>
      <point x="167.56626506024097" y="122.58433734939759"/>
      <point x="167.56626506024097" y="242.6867469879518" type="curve" smooth="yes"/>
      <point x="167.56626506024097" y="362.78915662650604"/>
      <point x="246.64457831325302" y="437.5240963855422"/>
      <point x="375.2048192771084" y="437.5240963855422" type="curve" smooth="yes"/>
      <point x="503.53614457831327" y="437.5240963855422"/>
      <point x="582.843373493976" y="362.67469879518075"/>
      <point x="582.843373493976" y="242.6867469879518" type="curve" smooth="yes"/>
      <point x="582.843373493976" y="122.69879518072288"/>
      <point x="503.53614457831327" y="47.62048192771084"/>
    </contour>
  </outline>
</glyph>
<glyph name="r" format="2">
  <advance width="415.82530120481925"/>
  <unicode hex="0072"/>
  <anchor x="135.60843373493978" y="0.0" name="bottom"/>
  <anchor x="257.83734939759034" y="484.0" name="top"/>
  <outline>
    <contour>
      <point x="101.84939759036143" y="0.0" type="line"/>
      <point x="169.48192771084337" y="0.0" type="line"/>
      <point x="169.48192771084337" y="276.7048192771084" type="line" smooth="yes"/>
      <point x="169.48192771084337" y="365.78313253012044"/>
      <point x="236.789156626506" y="425.40361445783134"/>
      <point x="359.7831325301205" y="435.40361445783134" type="curve" smooth="yes"/>
      <point x="408.5120481927711" y="439.31927710843377" type="line"/>
      <point x="401.71084337349396" y="497.3734939759036" type="line"/>
      <point x="372.4759036144578" y="495.144578313253" type="line" smooth="yes"/>
      <point x="265.78915662650604" y="487.144578313253"/>
      <point x="188.93373493975906" y="450.8855421686747"/>
      <point x="154.45180722891567" y="365.5722891566265" type="curve"/>
      <point x="167.45180722891567" y="365.5722891566265" type="line"/>
      <point x="167.45180722891567" y="485.144578313253" type="line"/>
      <point x="101.84939759036143" y="485.144578313253" type="line"/>
    </contour>
  </outline>
</glyph>
<glyph name="s" format="2">
  <advance width="589.0060240963855"/>
  <unicode hex="0073"/>
  <anchor x="302.144578313253" y="0.0" name="bottom"/>
  <anchor x="302.40361445783134" y="484.0" name="top"/>
  <outline>
    <contour>
      <point x="301.9156626506024" y="-8.457831325301205" type="curve" smooth="yes"/>
      <point x="436.06626506024094" y="-8.457831325301205"/>
      <point x="523.5" y="47.14457831325301"/>
      <point x="523.5" y="133.34939759036146" type="curve" smooth="yes"/>
      <point x="523.5" y="201.29518072289156"/>
      <point x="472.5843373493976" y="242.32530120481928"/>
      <point x="372.6987951807229" y="256.5240963855421" type="curve" smooth="yes"/>
      <point x="244.46385542168673" y="275.18072289156623" type="line" smooth="yes"/>
      <point x="178.3855421686747" y="284.8072289156627"/>
      <point x="151.24698795180723" y="311.7469879518072"/>
      <point x="151.24698795180723" y="352.2831325301205" type="curve" smooth="yes"/>
      <point x="151.24698795180723" y="400.8192771084337"/>
      <point x="198.46987951807228" y="440.4698795180723"/>
      <point x="301.6024096385542" y="440.4698795180723" type="curve" smooth="yes"/>
      <point x="374.68674698795184" y="440.4698795180723"/>
      <point x="436.2048192771084" y="422.9277108433735"/>
      <point x="485.37951807228916" y="384.644578313253" type="curve"/>
      <point x="512.6987951807229" y="431.3192771084337" type="line"/>
      <point x="470.6686746987952" y="470.9457831325301"/>
      <point x="394.8373493975904" y="493.6024096385542"/>
      <point x="303.66265060240966" y="493.6024096385542" type="curve" smooth="yes"/>
      <point x="164.2289156626506" y="493.6024096385542"/>
      <point x="83.73493975903614" y="429.9156626506024"/>
      <point x="83.73493975903614" y="349.36746987951807" type="curve" smooth="yes"/>
      <point x="83.73493975903614" y="282.99397590361446"/>
      <point x="132.22289156626505" y="236.84939759036146"/>
      <point x="227.25301204819277" y="222.53614457831324" type="curve" smooth="yes"/>
      <point x="355.4879518072289" y="203.87951807228916" type="line" smooth="yes"/>
      <point x="428.50602409638554" y="193.25301204819277"/>
      <point x="456.1024096385542" y="168.54216867469881"/>
      <point x="456.1024096385542" y="130.2048192771084" type="curve" smooth="yes"/>
      <point x="456.1024096385542" y="78.24096385542168"/>
      <point x="400.10843373493975" y="44.56024096385542"/>
      <point x="304.3192771084337" y="44.56024096385542" type="curve" smooth="yes"/>
      <point x="218.15060240963857" y="44.56024096385542"/>
      <point x="144.9156626506024" y="63.33132530120482"/>
      <point x="91.51204819277108" y="99.41566265060241" type="curve"/>
      <point x="67.45180722891565" y="51.16867469879518" type="line"/>
      <point x="113.28313253012048" y="14.08433734939759"/>
      <point x="198.6566265060241" y="-8.457831325301205"/>
    </contour>
  </outline>
</glyph>
<glyph name="t" format="2">
  <advance width="403.9397590361446"/>
  <unicode hex="0074"/>
  <anchor x="255.09638554216866" y="0.0" name="bottom"/>
  <anchor x="190.6686746987952" y="268.2530120481928" name="center"/>
  <anchor x="157.0421686746988" y="635.0" name="top"/>
  <anchor x="286.0481927710843" y="705.0" name="topright"/>
  <outline>
    <contour>
      <point x="314.58433734939763" y="-8.457831325301205" type="curve" smooth="yes"/>
      <point x="356.8734939759036" y="-8.457831325301205"/>
      <point x="398.56024096385545" y="-0.45783132530120474"/>
      <point x="418.99397590361446" y="10.801204819277109" type="curve"/>
      <point x="405.8192771084337" y="62.993975903614455" type="line"/>
      <point x="381.5903614457831" y="54.33734939759036"/>
      <point x="353.27710843373495" y="49.566265060240966"/>
      <point x="323.8493975903615" y="49.566265060240966" type="curve" smooth="yes"/>
      <point x="235.71084337349396" y="49.566265060240966"/>
      <point x="190.45783132530119" y="90.24698795180723"/>
      <point x="190.45783132530119" y="176.75301204819277" type="curve" smooth="yes"/>
      <point x="190.45783132530119" y="432.06626506024094" type="line"/>
      <point x="387.59638554216866" y="432.06626506024094" type="line"/>
      <point x="387.59638554216866" y="485.144578313253" type="line"/>
      <point x="190.45783132530119" y="485.144578313253" type="line"/>
      <point x="190.45783132530119" y="635.0" type="line"/>
      <point x="123.3975903614458" y="635.0" type="line"/>
      <point x="123.3975903614458" y="485.144578313253" type="line"/>
      <point x="3.0843373493975905" y="485.144578313253" type="line"/>
      <point x="3.0843373493975905" y="432.06626506024094" type="line"/>
      <point x="123.3975903614458" y="432.06626506024094" type="line"/>
      <point x="123.3975903614458" y="167.75301204819277" type="line" smooth="yes"/>
      <point x="123.3975903614458" y="53.48795180722891"/>
      <point x="195.57228915662648" y="-8.457831325301205"/>
    </contour>
  </outline>
</glyph>
<glyph name="u" format="2">
  <advance width="687.4698795180723"/>
  <unicode hex="0075"/>
  <anchor x="344.00602409638554" y="0.0" name="bottom"/>
  <anchor x="579.8975903614457" y="0.0" name="ogonek"/>
  <anchor x="344.00602409638554" y="485.0" name="top"/>
  <anchor x="525.1144578313252" y="484.0" name="topright"/>
  <outline>
    <contour>
      <point x="312.27710843373495" y="-8.457831325301205" type="curve" smooth="yes"/>
      <point x="422.3311445783133" y="-8.457831325301205"/>
      <point x="492.7694578313253" y="40.73342771084337"/>
      <point x="530.0180722891566" y="117.76506024096385" type="curve"/>
      <point x="520.0180722891565" y="117.76506024096385" type="line"/>
      <point x="520.0180722891565" y="0.0" type="line"/>
      <point x="585.6204819277108" y="0.0" type="line"/>
      <point x="585.6204819277108" y="485.144578313253" type="line"/>
      <point x="518.5602409638553" y="485.144578313253" type="line"/>
      <point x="518.5602409638553" y="230.289156626506" type="line" smooth="yes"/>
      <point x="518.5602409638553" y="122.53012048192771"/>
      <point x="444.2645602409638" y="48.42168674698795"/>
      <point x="321.6927710843374" y="48.42168674698795" type="curve" smooth="yes"/>
      <point x="222.3866626506024" y="48.42168674698795"/>
      <point x="166.68072289156626" y="89.21686746987952"/>
      <point x="166.68072289156626" y="208.89156626506025" type="curve" smooth="yes"/>
      <point x="166.68072289156626" y="485.144578313253" type="line"/>
      <point x="99.62048192771084" y="485.144578313253" type="line"/>
      <point x="99.62048192771084" y="205.54819277108433" type="line" smooth="yes"/>
      <point x="99.62048192771084" y="44.51807228915663"/>
      <point x="184.01160843373495" y="-8.457831325301205"/>
    </contour>
  </outline>
</glyph>
<glyph name="v" format="2">
  <advance width="626.4096385542168"/>
  <unicode hex="0076"/>
  <anchor x="313.5481927710843" y="0.0" name="bottom"/>
  <anchor x="313.5481927710843" y="484.0" name="top"/>
  <outline>
    <contour>
      <point x="278.53614457831327" y="0.0" type="line"/>
      <point x="347.8734939759036" y="0.0" type="line"/>
      <point x="607.7048192771084" y="485.144578313253" type="line"/>
      <point x="534.0180722891566" y="485.144578313253" type="line"/>
      <point x="300.17469879518075" y="36.91566265060241" type="line"/>
      <point x="329.72289156626505" y="36.91566265060241" type="line"/>
      <point x="96.10843373493975" y="485.144578313253" type="line"/>
      <point x="18.819277108433734" y="485.144578313253" type="line"/>
    </contour>
  </outline>
</glyph>
<glyph name="w" format="2">
  <advance width="1034.5240963855422"/>
  <unicode hex="0077"/>
  <anchor x="517.3192771084338" y="0.0" name="bottom"/>
  <anchor x="517.3192771084338" y="484.0" name="top"/>
  <outline>
    <contour>
      <point x="257.71084337349396" y="0.0" type="line"/>
      <point x="330.7048192771084" y="0.0" type="line"/>
      <point x="537.2951807228916" y="452.96987951807233" type="line"/>
      <point x="497.4578313253012" y="452.96987951807233" type="line"/>
      <point x="704.0481927710844" y="0.0" type="line"/>
      <point x="777.156626506024" y="0.0" type="line"/>
      <point x="993.6506024096386" y="485.144578313253" type="line"/>
      <point x="919.9638554216867" y="485.144578313253" type="line"/>
      <point x="728.7168674698795" y="40.54819277108434" type="line"/>
      <point x="756.0301204819277" y="40.54819277108434" type="line"/>
      <point x="551.8132530120481" y="485.144578313253" type="line"/>
      <point x="483.54216867469876" y="485.144578313253" type="line"/>
      <point x="279.21084337349396" y="40.54819277108434" type="line"/>
      <point x="309.06626506024094" y="40.54819277108434" type="line"/>
      <point x="118.27710843373494" y="485.144578313253" type="line"/>
      <point x="40.98795180722892" y="485.144578313253" type="line"/>
    </contour>
  </outline>
</glyph>
<glyph name="x" format="2">
  <advance width="631.8734939759036"/>
  <unicode hex="0078"/>
  <anchor x="316.6084337349398" y="0.0" name="bottom"/>
  <anchor x="316.6084337349398" y="484.0" name="top"/>
  <outline>
    <contour>
      <point x="27.21686746987952" y="0.0" type="line"/>
      <point x="112.79518072289156" y="0.0" type="line"/>
      <point x="328.6987951807229" y="218.59036144578312" type="line"/>
      <point x="304.0602409638554" y="218.59036144578312" type="line"/>
      <point x="516.6204819277108" y="0.0" type="line"/>
      <point x="606.8855421686746" y="0.0" type="line"/>
      <point x="344.9638554216868" y="265.26506024096386" type="line"/>
      <point x="344.9638554216868" y="234.99397590361446" type="line"/>
      <point x="592.4277108433735" y="485.144578313253" type="line"/>
      <point x="506.84939759036143" y="485.144578313253" type="line"/>
      <point x="304.8313253012048" y="279.7831325301205" type="line"/>
      <point x="329.1566265060241" y="279.7831325301205" type="line"/>
      <point x="130.16867469879517" y="485.144578313253" type="line"/>
      <point x="40.78915662650603" y="485.144578313253" type="line"/>
      <point x="290.6807228915663" y="232.56626506024097" type="line"/>
      <point x="290.6807228915663" y="268.6927710843373" type="line"/>
    </contour>
  </outline>
</glyph>
<glyph name="y" format="2">
  <advance width="626.2951807228916"/>
  <unicode hex="0079"/>
  <anchor x="467.18674698795184" y="0.0" name="bottom"/>
  <anchor x="313.43373493975906" y="484.0" name="top"/>
  <outline>
    <contour>
      <point x="178.6987951807229" y="-180.0" type="line"/>
      <point x="252.4156626506024" y="-180.0" type="line"/>
      <point x="607.7048192771084" y="485.144578313253" type="line"/>
      <point x="533.9036144578313" y="485.144578313253" type="line"/>
      <point x="302.8614457831325" y="41.94578313253012" type="line"/>
      <point x="327.26506024096386" y="41.94578313253012" type="line"/>
      <point x="95.99397590361446" y="485.144578313253" type="line"/>
      <point x="18.704819277108435" y="485.144578313253" type="line"/>
      <point x="288.1626506024096" y="-18.481927710843372" type="line"/>
      <point x="288.1626506024096" y="23.012048192771083" type="line"/>
    </contour>
  </outline>
</glyph>
<glyph name="z" format="2">
  <advance width="563.722891566265"/>
  <unicode hex="007A"/>
  <anchor x="291.40361445783134" y="0.0" name="bottom"/>
  <anchor x="291.40361445783134" y="484.0" name="top"/>
  <outline>
    <contour>
      <point x="69.48192771084337" y="0.0" type="line"/>
      <point x="527.2108433734941" y="0.0" type="line"/>
      <point x="527.2108433734941" y="53.07831325301205" type="line"/>
      <point x="132.45180722891567" y="53.07831325301205" type="line"/>
      <point x="132.45180722891567" y="31.957831325301203" type="line"/>
      <point x="513.2108433734941" y="439.6385542168675" type="line"/>
      <point x="513.2108433734941" y="485.144578313253" type="line"/>
      <point x="69.48192771084337" y="485.144578313253" type="line"/>
      <point x="69.48192771084337" y="432.06626506024094" type="line"/>
      <point x="449.6686746987952" y="432.06626506024094" type="line"/>
      <point x="449.6686746987952" y="453.4156626506024" type="line"/>
      <point x="69.48192771084337" y="45.506024096385545" type="line"/>
    </contour>
  </outline>
</glyph>
<glyph name="braceleft" format="2">
  <advance width="403.2289156626506"/>
  <unicode hex="007B"/>
  <outline>
    <contour>
      <point x="289.9277108433735" y="-180.0" type="curve" smooth="yes"/>
      <point x="399.9397590361446" y="-180.0" type="line"/>
      <point x="399.9397590361446" y="-125.69277108433735" type="line"/>
      <point x="303.5722891566265" y="-125.69277108433735" type="line" smooth="yes"/>
      <point x="268.5722891566265" y="-125.69277108433735"/>
      <point x="248.03012048192772" y="-106.92168674698794"/>
      <point x="248.03012048192772" y="-74.26506024096386" type="curve" smooth="yes"/>
      <point x="248.03012048192772" y="160.22289156626505" type="line" smooth="yes"/>
      <point x="248.03012048192772" y="222.16867469879517"/>
      <point x="203.1144578313253" y="264.7710843373494"/>
      <point x="138.62650602409636" y="264.7710843373494" type="curve"/>
      <point x="138.62650602409636" y="260.7710843373494" type="line"/>
      <point x="203.1144578313253" y="260.7710843373494"/>
      <point x="248.03012048192772" y="303.4879518072289"/>
      <point x="248.03012048192772" y="365.433734939759" type="curve" smooth="yes"/>
      <point x="248.03012048192772" y="599.2650602409639" type="line" smooth="yes"/>
      <point x="248.03012048192772" y="631.9216867469879"/>
      <point x="268.5722891566265" y="650.6927710843373"/>
      <point x="303.5722891566265" y="650.6927710843373" type="curve" smooth="yes"/>
      <point x="399.9397590361446" y="650.6927710843373" type="line"/>
      <point x="399.9397590361446" y="705.0" type="line"/>
      <point x="289.9277108433735" y="705.0" type="line" smooth="yes"/>
      <point x="220.86144578313252" y="705.0"/>
      <point x="180.9698795180723" y="668.566265060241"/>
      <point x="180.9698795180723" y="603.644578313253" type="curve" smooth="yes"/>
      <point x="180.9698795180723" y="371.5240963855421" type="line" smooth="yes"/>
      <point x="180.9698795180723" y="310.7831325301205"/>
      <point x="149.80120481927713" y="293.5542168674699"/>
      <point x="88.06024096385542" y="290.3253012048193" type="curve" smooth="yes"/>
      <point x="60.825301204819276" y="288.8674698795181" type="line"/>
      <point x="60.825301204819276" y="236.90361445783134" type="line"/>
      <point x="88.06024096385542" y="235.44578313253012" type="line" smooth="yes"/>
      <point x="155.11445783132532" y="232.21686746987953"/>
      <point x="180.9698795180723" y="208.67469879518072"/>
      <point x="180.9698795180723" y="154.13253012048193" type="curve" smooth="yes"/>
      <point x="180.9698795180723" y="-78.64457831325302" type="line" smooth="yes"/>
      <point x="180.9698795180723" y="-143.56626506024097"/>
      <point x="220.86144578313252" y="-180.0"/>
    </contour>
  </outline>
</glyph>
<glyph name="bar" format="2">
  <advance width="303.90361445783134"/>
  <unicode hex="007C"/>
  <outline>
    <contour>
      <point x="118.42168674698794" y="-180.0" type="line"/>
      <point x="185.4819277108434" y="-180.0" type="line"/>
      <point x="185.4819277108434" y="705.0" type="line"/>
      <point x="118.42168674698794" y="705.0" type="line"/>
    </contour>
  </outline>
</glyph>
<glyph name="braceright" format="2">
  <advance width="403.2289156626506"/>
  <unicode hex="007D"/>
  <outline>
    <contour>
      <point x="3.2891566265060237" y="-180.0" type="line"/>
      <point x="113.41566265060241" y="-180.0" type="line" smooth="yes"/>
      <point x="182.48192771084337" y="-180.0"/>
      <point x="222.3734939759036" y="-143.56626506024097"/>
      <point x="222.3734939759036" y="-78.64457831325302" type="curve" smooth="yes"/>
      <point x="222.3734939759036" y="154.13253012048193" type="line" smooth="yes"/>
      <point x="222.3734939759036" y="208.67469879518072"/>
      <point x="248.1144578313253" y="232.2168674698795"/>
      <point x="315.16867469879514" y="235.44578313253012" type="curve" smooth="yes"/>
      <point x="342.51807228915663" y="236.90361445783134" type="line"/>
      <point x="342.51807228915663" y="288.8674698795181" type="line"/>
      <point x="315.16867469879514" y="290.3253012048193" type="line" smooth="yes"/>
      <point x="253.4277108433735" y="293.43975903614455"/>
      <point x="222.3734939759036" y="310.7831325301205"/>
      <point x="222.3734939759036" y="371.5240963855421" type="curve" smooth="yes"/>
      <point x="222.3734939759036" y="603.644578313253" type="line" smooth="yes"/>
      <point x="222.3734939759036" y="668.566265060241"/>
      <point x="182.48192771084337" y="705.0"/>
      <point x="113.41566265060241" y="705.0" type="curve" smooth="yes"/>
      <point x="3.2891566265060237" y="705.0" type="line"/>
      <point x="3.2891566265060237" y="650.6927710843373" type="line"/>
      <point x="99.88554216867469" y="650.6927710843373" type="line" smooth="yes"/>
      <point x="134.7710843373494" y="650.6927710843373"/>
      <point x="155.31325301204816" y="631.9216867469879"/>
      <point x="155.31325301204816" y="599.2650602409639" type="curve" smooth="yes"/>
      <point x="155.31325301204816" y="365.433734939759" type="line" smooth="yes"/>
      <point x="155.31325301204816" y="303.4879518072289"/>
      <point x="200.34337349397592" y="260.7710843373494"/>
      <point x="264.6024096385542" y="260.7710843373494" type="curve"/>
      <point x="264.6024096385542" y="264.7710843373494" type="line"/>
      <point x="200.34337349397592" y="264.7710843373494"/>
      <point x="155.31325301204816" y="222.2831325301205"/>
      <point x="155.31325301204816" y="160.22289156626505" type="curve" smooth="yes"/>
      <point x="155.31325301204816" y="-74.26506024096386" type="line" smooth="yes"/>
      <point x="155.31325301204816" y="-106.92168674698794"/>
      <point x="134.7710843373494" y="-125.69277108433735"/>
      <point x="99.88554216867469" y="-125.69277108433735" type="curve" smooth="yes"/>
      <point x="3.2891566265060237" y="-125.69277108433735" type="line"/>
    </contour>
  </outline>
</glyph>
<glyph name="asciitilde" format="2">
  <advance width="748.0"/>
  <unicode hex="007E"/>
  <outline>
    <contour>
      <point x="505.0843373493976" y="218.33734939759037" type="curve" smooth="yes"/>
      <point x="568.9457831325302" y="218.33734939759037"/>
      <point x="609.0361445783132" y="244.39759036144576"/>
      <point x="648.8915662650602" y="315.0843373493976" type="curve"/>
      <point x="600.4518072289156" y="339.8072289156626" type="line"/>
      <point x="571.0542168674699" y="287.6686746987952"/>
      <point x="547.8253012048193" y="271.5542168674699"/>
      <point x="506.6265060240964" y="271.5542168674699" type="curve" smooth="yes"/>
      <point x="479.16867469879514" y="271.5542168674699"/>
      <point x="452.4518072289157" y="282.6686746987952"/>
      <point x="388.4277108433735" y="310.8373493975904" type="curve" smooth="yes"/>
      <point x="308.2590361445783" y="345.23493975903614"/>
      <point x="278.5722891566265" y="355.00602409638554"/>
      <point x="241.144578313253" y="355.00602409638554" type="curve" smooth="yes"/>
      <point x="179.82530120481928" y="355.00602409638554"/>
      <point x="138.84939759036143" y="328.8313253012048"/>
      <point x="99.10843373493977" y="258.0301204819277" type="curve"/>
      <point x="148.12048192771084" y="233.53614457831327" type="line"/>
      <point x="176.94578313253012" y="285.5602409638554"/>
      <point x="200.289156626506" y="301.78915662650604"/>
      <point x="243.3734939759036" y="301.78915662650604" type="curve" smooth="yes"/>
      <point x="273.80120481927713" y="301.78915662650604"/>
      <point x="292.1746987951807" y="291.90361445783134"/>
      <point x="360.0301204819277" y="262.27710843373495" type="curve" smooth="yes"/>
      <point x="437.19879518072287" y="228.10843373493975"/>
      <point x="466.5421686746988" y="218.33734939759037"/>
    </contour>
  </outline>
</glyph>
<glyph name="exclamdown" format="2">
  <advance width="262.1867469879518"/>
  <unicode hex="00A1"/>
  <outline>
    <contour>
      <point x="88.78915662650601" y="-180.0" type="line"/>
      <point x="173.39759036144576" y="-180.0" type="line"/>
      <point x="152.1024096385542" y="308.355421686747" type="line"/>
      <point x="110.08433734939759" y="308.355421686747" type="line"/>
    </contour>
    <contour>
      <point x="84.45180722891567" y="393.8614457831325" type="line"/>
      <point x="177.84939759036143" y="393.8614457831325" type="line"/>
      <point x="177.84939759036143" y="485.144578313253" type="line"/>
      <point x="84.45180722891567" y="485.144578313253" type="line"/>
    </contour>
  </outline>
</glyph>
<glyph name="cent" format="2">
  <advance width="748.0"/>
  <unicode hex="00A2"/>
  <outline>
    <contour>
      <point x="364.5903614457831" y="-115.0" type="line"/>
      <point x="425.6987951807229" y="-115.0" type="line"/>
      <point x="425.6987951807229" y="11.746987951807228" type="line"/>
      <point x="407.00602409638554" y="-6.0" type="line"/>
      <point x="491.37951807228916" y="-5.114457831325301"/>
      <point x="564.4397590361446" y="19.427710843373493"/>
      <point x="614.5542168674698" y="62.82530120481927" type="curve"/>
      <point x="585.8614457831325" y="112.90361445783132" type="line"/>
      <point x="540.0903614457831" y="72.19277108433735"/>
      <point x="476.578313253012" y="50.993975903614455"/>
      <point x="402.5240963855421" y="50.993975903614455" type="curve" smooth="yes"/>
      <point x="271.8192771084337" y="50.993975903614455"/>
      <point x="189.16867469879517" y="125.1566265060241"/>
      <point x="189.16867469879517" y="242.6867469879518" type="curve" smooth="yes"/>
      <point x="189.16867469879517" y="360.33132530120486"/>
      <point x="271.933734939759" y="434.72289156626505"/>
      <point x="402.86746987951807" y="434.72289156626505" type="curve" smooth="yes"/>
      <point x="475.9216867469879" y="434.72289156626505"/>
      <point x="538.0060240963855" y="414.2951807228916"/>
      <point x="585.9759036144578" y="373.6987951807229" type="curve"/>
      <point x="614.5542168674698" y="422.31927710843377" type="line"/>
      <point x="565.6686746987951" y="465.9457831325301"/>
      <point x="492.37951807228916" y="490.3734939759036"/>
      <point x="408.00602409638554" y="491.144578313253" type="curve"/>
      <point x="425.6987951807229" y="467.4277108433735" type="line"/>
      <point x="425.6987951807229" y="605.2590361445783" type="line"/>
      <point x="364.5903614457831" y="605.2590361445783" type="line"/>
      <point x="364.5903614457831" y="465.71084337349396" type="line"/>
      <point x="384.0481927710843" y="490.2289156626506" type="line"/>
      <point x="224.50602409638554" y="484.48192771084337"/>
      <point x="119.65060240963857" y="387.3975903614458"/>
      <point x="119.65060240963857" y="242.5722891566265" type="curve" smooth="yes"/>
      <point x="119.65060240963857" y="97.28915662650603"/>
      <point x="225.07831325301206" y="0.09036144578313215"/>
      <point x="385.4216867469879" y="-5.427710843373494" type="curve"/>
      <point x="364.5903614457831" y="13.234939759036145" type="line"/>
    </contour>
  </outline>
</glyph>
<glyph name="sterling" format="2">
  <advance width="748.0"/>
  <unicode hex="00A3"/>
  <outline>
    <contour>
      <point x="64.9397590361446" y="0.0" type="line"/>
      <point x="686.6626506024096" y="0.0" type="line"/>
      <point x="686.6626506024096" y="58.596385542168676" type="line"/>
      <point x="268.0783132530121" y="58.596385542168676" type="line"/>
      <point x="268.0783132530121" y="326.90361445783134" type="line"/>
      <point x="502.29518072289153" y="326.90361445783134" type="line"/>
      <point x="502.29518072289153" y="379.5542168674699" type="line"/>
      <point x="268.0783132530121" y="379.5542168674699" type="line"/>
      <point x="268.0783132530121" y="515.6746987951807" type="line" smooth="yes"/>
      <point x="268.0783132530121" y="614.7530120481928"/>
      <point x="328.7289156626506" y="654.0060240963855"/>
      <point x="446.66265060240966" y="654.0060240963855" type="curve" smooth="yes"/>
      <point x="539.343373493976" y="654.0060240963855"/>
      <point x="608.7409638554217" y="628.3795180722892"/>
      <point x="667.2831325301205" y="572.4698795180723" type="curve"/>
      <point x="703.0060240963855" y="626.433734939759" type="line"/>
      <point x="641.777108433735" y="682.3734939759036"/>
      <point x="546.632530120482" y="713.4578313253012"/>
      <point x="453.57228915662654" y="713.4578313253012" type="curve" smooth="yes"/>
      <point x="286.3072289156627" y="713.4578313253012"/>
      <point x="199.0722891566265" y="650.0240963855422"/>
      <point x="199.0722891566265" y="515.6204819277109" type="curve" smooth="yes"/>
      <point x="199.0722891566265" y="379.5542168674699" type="line"/>
      <point x="64.9397590361446" y="379.5542168674699" type="line"/>
      <point x="64.9397590361446" y="326.90361445783134" type="line"/>
      <point x="199.0722891566265" y="326.90361445783134" type="line"/>
      <point x="199.0722891566265" y="58.596385542168676" type="line"/>
      <point x="64.9397590361446" y="58.596385542168676" type="line"/>
    </contour>
  </outline>
</glyph>
<glyph name="currency" format="2">
  <advance width="748.0"/>
  <unicode hex="00A4"/>
  <outline>
    <contour>
      <point x="130.3192771084337" y="-24.060240963855424" type="line"/>
      <point x="209.54819277108433" y="51.28313253012048" type="line"/>
      <point x="252.97590361445785" y="17.542168674698797"/>
      <point x="309.8313253012048" y="-2.6566265060240966"/>
      <point x="374.1144578313253" y="-2.6566265060240966" type="curve" smooth="yes"/>
      <point x="439.16867469879514" y="-2.6566265060240966"/>
      <point x="496.0240963855422" y="17.656626506024097"/>
      <point x="539.4518072289158" y="51.28313253012048" type="curve"/>
      <point x="617.9096385542168" y="-24.06024096385542" type="line"/>
      <point x="655.1746987951808" y="14.77710843373494" type="line"/>
      <point x="577.1746987951808" y="88.66265060240964" type="line"/>
      <point x="612.6867469879518" y="131.20481927710844"/>
      <point x="632.7710843373494" y="184.94578313253012"/>
      <point x="632.7710843373494" y="245.2289156626506" type="curve" smooth="yes"/>
      <point x="632.7710843373494" y="304.7409638554217"/>
      <point x="612.6867469879518" y="359.36746987951807"/>
      <point x="578.0602409638553" y="401.79518072289153" type="curve"/>
      <point x="655.0602409638554" y="475.79518072289153" type="line"/>
      <point x="617.9096385542168" y="514.5180722891566" type="line"/>
      <point x="538.6807228915662" y="439.1746987951807" type="line"/>
      <point x="495.1385542168674" y="472.9156626506024"/>
      <point x="438.3975903614458" y="493.1144578313253"/>
      <point x="374.1144578313253" y="493.1144578313253" type="curve" smooth="yes"/>
      <point x="308.9457831325301" y="493.1144578313253"/>
      <point x="253.09036144578312" y="472.9156626506024"/>
      <point x="208.66265060240966" y="439.17469879518075" type="curve"/>
      <point x="130.2048192771084" y="514.4036144578314" type="line"/>
      <point x="92.93975903614457" y="475.9096385542169" type="line"/>
      <point x="170.05421686746988" y="401.9096385542169" type="line"/>
      <point x="135.4277108433735" y="359.36746987951807"/>
      <point x="115.34337349397592" y="304.855421686747"/>
      <point x="115.34337349397592" y="245.2289156626506" type="curve" smooth="yes"/>
      <point x="115.34337349397592" y="185.71686746987953"/>
      <point x="135.5421686746988" y="131.09036144578315"/>
      <point x="170.05421686746988" y="88.77710843373494" type="curve"/>
      <point x="92.93975903614457" y="14.77710843373494" type="line"/>
    </contour>
    <contour>
      <point x="374.1144578313253" y="49.81927710843373" type="curve" smooth="yes"/>
      <point x="256.1265060240964" y="49.81927710843373"/>
      <point x="174.70481927710844" y="134.43975903614458"/>
      <point x="174.70481927710844" y="245.2289156626506" type="curve" smooth="yes"/>
      <point x="174.70481927710844" y="356.2469879518072"/>
      <point x="256.0120481927711" y="440.8674698795181"/>
      <point x="374.1144578313253" y="440.86746987951807" type="curve" smooth="yes"/>
      <point x="492.9879518072289" y="440.7530120481928"/>
      <point x="573.4096385542168" y="356.2469879518072"/>
      <point x="573.4096385542168" y="245.2289156626506" type="curve" smooth="yes"/>
      <point x="573.4096385542168" y="134.43975903614458"/>
      <point x="492.9879518072289" y="49.81927710843373"/>
    </contour>
  </outline>
</glyph>
<glyph name="yen" format="2">
  <advance width="748.0"/>
  <unicode hex="00A5"/>
  <outline>
    <contour>
      <point x="339.6686746987952" y="0.0" type="line"/>
      <point x="408.5602409638554" y="0.0" type="line"/>
      <point x="408.5602409638554" y="181.01807228915663" type="line"/>
      <point x="655.7469879518072" y="181.01807228915663" type="line"/>
      <point x="655.7469879518072" y="231.37951807228916" type="line"/>
      <point x="408.5602409638554" y="231.37951807228916" type="line"/>
      <point x="408.5602409638554" y="332.16265060240966" type="line"/>
      <point x="655.7469879518072" y="332.16265060240966" type="line"/>
      <point x="655.7469879518072" y="382.5240963855422" type="line"/>
      <point x="435.81927710843377" y="382.5240963855422" type="line"/>
      <point x="435.81927710843377" y="372.2048192771084" type="line"/>
      <point x="746.4939759036145" y="705.0" type="line"/>
      <point x="666.8012048192771" y="705.0" type="line"/>
      <point x="363.5120481927711" y="378.62048192771084" type="line"/>
      <point x="384.8313253012048" y="378.62048192771084" type="line"/>
      <point x="81.65662650602408" y="705.0" type="line"/>
      <point x="1.7349397590361453" y="705.0" type="line"/>
      <point x="313.78313253012044" y="372.2048192771084" type="line"/>
      <point x="313.78313253012044" y="382.5240963855422" type="line"/>
      <point x="92.48192771084338" y="382.5240963855422" type="line"/>
      <point x="92.48192771084338" y="332.16265060240966" type="line"/>
      <point x="339.6686746987952" y="332.16265060240966" type="line"/>
      <point x="339.6686746987952" y="231.37951807228916" type="line"/>
      <point x="92.48192771084338" y="231.37951807228916" type="line"/>
      <point x="92.48192771084338" y="181.01807228915663" type="line"/>
      <point x="339.6686746987952" y="181.01807228915663" type="line"/>
    </contour>
  </outline>
</glyph>
<glyph name="section" format="2">
  <advance width="654.3614457831326"/>
  <unicode hex="00A7"/>
  <outline>
    <contour>
      <point x="300.1807228915663" y="-188.4578313253012" type="curve" smooth="yes"/>
      <point x="455.7048192771084" y="-188.4578313253012"/>
      <point x="550.4518072289156" y="-122.0"/>
      <point x="550.4518072289156" y="-12.283132530120483" type="curve" smooth="yes"/>
      <point x="550.4518072289156" y="19.57831325301205"/>
      <point x="542.7349397590361" y="46.52409638554217"/>
      <point x="525.7289156626506" y="74.01204819277109" type="curve"/>
      <point x="518.4698795180722" y="53.97590361445783" type="line"/>
      <point x="571.5060240963855" y="90.46385542168674"/>
      <point x="600.566265060241" y="140.49397590361446"/>
      <point x="600.566265060241" y="195.1265060240964" type="curve" smooth="yes"/>
      <point x="600.566265060241" y="270.5843373493976"/>
      <point x="555.8795180722891" y="313.53012048192767"/>
      <point x="424.19879518072287" y="364.4698795180723" type="curve" smooth="yes"/>
      <point x="295.32530120481925" y="413.44578313253015" type="line" smooth="yes"/>
      <point x="210.16265060240963" y="445.8132530120482"/>
      <point x="172.5963855421687" y="485.15060240963857"/>
      <point x="172.5963855421687" y="540.8855421686746" type="curve" smooth="yes"/>
      <point x="172.5963855421687" y="614.4457831325301"/>
      <point x="237.78915662650604" y="659.0963855421687"/>
      <point x="348.37951807228916" y="659.0963855421687" type="curve" smooth="yes"/>
      <point x="424.8072289156627" y="659.0963855421687"/>
      <point x="503.6927710843374" y="635.3554216867469"/>
      <point x="553.6686746987951" y="597.9578313253012" type="curve"/>
      <point x="582.3313253012047" y="645.9759036144578" type="line"/>
      <point x="532.9578313253012" y="687.6024096385543"/>
      <point x="447.355421686747" y="712.6867469879518"/>
      <point x="354.5240963855422" y="712.6867469879518" type="curve" smooth="yes"/>
      <point x="199.0" y="712.6867469879518"/>
      <point x="104.25301204819277" y="646.2289156626506"/>
      <point x="104.25301204819277" y="536.5120481927711" type="curve" smooth="yes"/>
      <point x="104.25301204819277" y="504.65060240963857"/>
      <point x="111.96987951807229" y="477.7048192771084"/>
      <point x="128.97590361445785" y="450.2168674698795" type="curve"/>
      <point x="136.23493975903614" y="470.2530120481928" type="line"/>
      <point x="83.1987951807229" y="433.76506024096386"/>
      <point x="54.13855421686747" y="383.73493975903614"/>
      <point x="54.13855421686747" y="329.1024096385542" type="curve" smooth="yes"/>
      <point x="54.13855421686747" y="253.64457831325302"/>
      <point x="98.82530120481927" y="210.6987951807229"/>
      <point x="230.50602409638554" y="159.75903614457832" type="curve" smooth="yes"/>
      <point x="359.37951807228916" y="110.78313253012048" type="line" smooth="yes"/>
      <point x="444.31325301204816" y="78.53012048192771"/>
      <point x="482.10843373493975" y="39.07831325301205"/>
      <point x="482.10843373493975" y="-16.542168674698797" type="curve" smooth="yes"/>
      <point x="482.10843373493975" y="-90.33132530120481"/>
      <point x="416.68674698795184" y="-134.86746987951807"/>
      <point x="306.66867469879514" y="-134.86746987951807" type="curve" smooth="yes"/>
      <point x="221.01204819277106" y="-134.86746987951807"/>
      <point x="136.72289156626505" y="-110.86746987951807"/>
      <point x="85.23493975903614" y="-71.43975903614458" type="curve"/>
      <point x="56.3433734939759" y="-120.25903614457832" type="line"/>
      <point x="108.40361445783132" y="-163.8012048192771"/>
      <point x="196.69277108433735" y="-188.4578313253012"/>
    </contour>
    <contour>
      <point x="117.87951807228914" y="342.7650602409638" type="curve" smooth="yes"/>
      <point x="117.87951807228914" y="379.3614457831325"/>
      <point x="135.73493975903617" y="409.644578313253"/>
      <point x="171.789156626506" y="432.7289156626506" type="curve"/>
      <point x="145.6987951807229" y="433.7289156626506" type="line"/>
      <point x="172.43975903614458" y="402.93373493975906"/>
      <point x="225.15060240963854" y="376.421686746988"/>
      <point x="287.54216867469876" y="352.82530120481925" type="curve" smooth="yes"/>
      <point x="393.18072289156623" y="312.76506024096386" type="line" smooth="yes"/>
      <point x="503.3132530120482" y="270.7409638554217"/>
      <point x="536.8253012048193" y="239.3433734939759"/>
      <point x="536.8253012048193" y="181.46385542168673" type="curve" smooth="yes"/>
      <point x="536.8253012048193" y="144.86746987951807"/>
      <point x="518.9698795180723" y="114.58433734939759"/>
      <point x="482.91566265060237" y="91.5" type="curve"/>
      <point x="509.00602409638554" y="90.5" type="line"/>
      <point x="482.26506024096386" y="121.29518072289157"/>
      <point x="429.4397590361446" y="147.92168674698797"/>
      <point x="367.1626506024096" y="171.40361445783134" type="curve" smooth="yes"/>
      <point x="261.5240963855421" y="211.46385542168676" type="line" smooth="yes"/>
      <point x="152.27710843373492" y="253.3734939759036"/>
      <point x="117.87951807228914" y="284.88554216867465"/>
    </contour>
  </outline>
</glyph>
<glyph name="copyright" format="2">
  <advance width="1011.6867469879518"/>
  <unicode hex="00A9"/>
  <outline>
    <contour>
      <point x="506.3433734939759" y="-8.457831325301205" type="curve" smooth="yes"/>
      <point x="772.343373493976" y="-8.457831325301205"/>
      <point x="954.3734939759036" y="138.22891566265062"/>
      <point x="954.3734939759036" y="353.0" type="curve" smooth="yes"/>
      <point x="954.3734939759036" y="566.8855421686746"/>
      <point x="772.4578313253012" y="713.4578313253012"/>
      <point x="506.3433734939759" y="713.4578313253012" type="curve" smooth="yes"/>
      <point x="240.34337349397592" y="713.4578313253012"/>
      <point x="58.31325301204819" y="566.7710843373494"/>
      <point x="58.31325301204819" y="352.0" type="curve" smooth="yes"/>
      <point x="58.31325301204819" y="138.11445783132532"/>
      <point x="240.2289156626506" y="-8.457831325301205"/>
    </contour>
    <contour>
      <point x="514.5481927710844" y="137.0" type="curve" smooth="yes"/>
      <point x="589.6626506024097" y="137.0"/>
      <point x="654.0060240963855" y="156.6566265060241"/>
      <point x="698.433734939759" y="193.39759036144576" type="curve"/>
      <point x="669.343373493976" y="235.69879518072287" type="line"/>
      <point x="624.3734939759036" y="201.64457831325302"/>
      <point x="583.6325301204819" y="188.56024096385545"/>
      <point x="521.1506024096386" y="188.56024096385545" type="curve" smooth="yes"/>
      <point x="394.5602409638554" y="188.56024096385545"/>
      <point x="328.76506024096386" y="245.32530120481928"/>
      <point x="328.76506024096386" y="354.1144578313253" type="curve" smooth="yes"/>
      <point x="328.76506024096386" y="461.4457831325301"/>
      <point x="394.4457831325301" y="516.4397590361446"/>
      <point x="522.5783132530121" y="516.4397590361446" type="curve" smooth="yes"/>
      <point x="585.8313253012047" y="516.4397590361446"/>
      <point x="626.5722891566264" y="503.1265060240964"/>
      <point x="669.343373493976" y="469.0722891566265" type="curve"/>
      <point x="698.433734939759" y="511.60240963855426" type="line"/>
      <point x="653.433734939759" y="548.5722891566264"/>
      <point x="589.2048192771084" y="568.0"/>
      <point x="512.3192771084338" y="568.0" type="curve" smooth="yes"/>
      <point x="358.0301204819277" y="568.0"/>
      <point x="266.28313253012044" y="488.4277108433735"/>
      <point x="266.28313253012044" y="354.5421686746988" type="curve" smooth="yes"/>
      <point x="266.28313253012044" y="219.2289156626506"/>
      <point x="360.6867469879518" y="137.0"/>
    </contour>
    <contour>
      <point x="506.3433734939759" y="32.77710843373494" type="curve" smooth="yes"/>
      <point x="265.51807228915663" y="32.77710843373494"/>
      <point x="104.00602409638553" y="161.06024096385542"/>
      <point x="104.00602409638553" y="352.0" type="curve" smooth="yes"/>
      <point x="104.00602409638553" y="542.9397590361446"/>
      <point x="266.40361445783134" y="672.222891566265"/>
      <point x="506.3433734939759" y="672.222891566265" type="curve" smooth="yes"/>
      <point x="747.3975903614457" y="672.222891566265"/>
      <point x="908.6807228915663" y="543.9397590361446"/>
      <point x="908.6807228915663" y="353.0" type="curve" smooth="yes"/>
      <point x="908.6807228915663" y="162.06024096385542"/>
      <point x="746.512048192771" y="32.77710843373494"/>
    </contour>
  </outline>
</glyph>
<glyph name="ordfeminine" format="2">
  <advance width="396.83734939759034"/>
  <unicode hex="00AA"/>
  <outline>
    <contour>
      <point x="171.65662650602408" y="411.7409638554217" type="curve" smooth="yes"/>
      <point x="226.34337349397592" y="411.7409638554217"/>
      <point x="268.3132530120482" y="431.7409638554217"/>
      <point x="294.05421686746985" y="470.4277108433735" type="curve"/>
      <point x="296.93975903614455" y="470.4277108433735" type="line"/>
      <point x="296.93975903614455" y="416.9698795180723" type="line"/>
      <point x="346.6987951807229" y="416.9698795180723" type="line"/>
      <point x="346.6987951807229" y="598.8795180722891" type="line" smooth="yes"/>
      <point x="346.6987951807229" y="675.855421686747"/>
      <point x="300.6385542168675" y="713.4578313253012"/>
      <point x="205.06024096385542" y="713.4578313253012" type="curve" smooth="yes"/>
      <point x="145.03012048192772" y="713.4578313253012"/>
      <point x="87.42771084337349" y="699.5722891566265"/>
      <point x="51.596385542168676" y="676.3433734939758" type="curve"/>
      <point x="67.6566265060241" y="640.5903614457832" type="line"/>
      <point x="100.03012048192771" y="662.132530120482"/>
      <point x="146.94578313253012" y="675.6746987951808"/>
      <point x="198.3734939759036" y="675.6746987951808" type="curve" smooth="yes"/>
      <point x="268.48192771084337" y="675.6746987951808"/>
      <point x="296.0240963855422" y="654.8493975903614"/>
      <point x="296.0240963855422" y="602.7409638554217" type="curve" smooth="yes"/>
      <point x="296.0240963855422" y="540.710843373494" type="line" smooth="yes"/>
      <point x="296.0240963855422" y="488.83132530120486"/>
      <point x="244.65662650602408" y="449.8072289156626"/>
      <point x="176.31927710843374" y="449.8072289156626" type="curve" smooth="yes"/>
      <point x="125.18072289156628" y="449.8072289156626"/>
      <point x="89.8132530120482" y="471.2048192771084"/>
      <point x="89.8132530120482" y="502.68674698795184" type="curve" smooth="yes"/>
      <point x="89.8132530120482" y="540.6265060240963"/>
      <point x="130.5" y="553.0240963855422"/>
      <point x="239.855421686747" y="553.0240963855422" type="curve" smooth="yes"/>
      <point x="305.48192771084337" y="553.0240963855422" type="line"/>
      <point x="305.48192771084337" y="585.144578313253" type="line"/>
      <point x="238.0843373493976" y="585.144578313253" type="line" smooth="yes"/>
      <point x="96.48192771084337" y="585.144578313253"/>
      <point x="37.48192771084337" y="561.9156626506024"/>
      <point x="37.48192771084337" y="504.2289156626506" type="curve" smooth="yes"/>
      <point x="37.48192771084337" y="450.3132530120482"/>
      <point x="93.51204819277109" y="411.7409638554217"/>
    </contour>
  </outline>
</glyph>
<glyph name="logicalnot" format="2">
  <advance width="748.0"/>
  <unicode hex="00AC"/>
  <outline>
    <contour>
      <point x="586.1807228915663" y="147.45180722891567" type="line"/>
      <point x="645.0" y="147.45180722891567" type="line"/>
      <point x="645.0" y="415.72289156626505" type="line"/>
      <point x="103.0" y="415.72289156626505" type="line"/>
      <point x="103.0" y="363.2469879518072" type="line"/>
      <point x="586.1807228915663" y="363.2469879518072" type="line"/>
    </contour>
  </outline>
</glyph>
<glyph name="registered" format="2">
  <advance width="1011.6867469879518"/>
  <unicode hex="00AE"/>
  <outline>
    <contour>
      <point x="506.3433734939759" y="-8.457831325301205" type="curve" smooth="yes"/>
      <point x="772.343373493976" y="-8.457831325301205"/>
      <point x="954.3734939759036" y="138.22891566265062"/>
      <point x="954.3734939759036" y="353.0" type="curve" smooth="yes"/>
      <point x="954.3734939759036" y="566.8855421686746"/>
      <point x="772.4578313253012" y="713.4578313253012"/>
      <point x="506.3433734939759" y="713.4578313253012" type="curve" smooth="yes"/>
      <point x="240.34337349397592" y="713.4578313253012"/>
      <point x="58.31325301204819" y="566.7710843373494"/>
      <point x="58.31325301204819" y="352.0" type="curve" smooth="yes"/>
      <point x="58.31325301204819" y="138.11445783132532"/>
      <point x="240.2289156626506" y="-8.457831325301205"/>
    </contour>
    <contour>
      <point x="506.3433734939759" y="32.77710843373494" type="curve" smooth="yes"/>
      <point x="265.51807228915663" y="32.77710843373494"/>
      <point x="104.00602409638553" y="161.06024096385542"/>
      <point x="104.00602409638553" y="352.0" type="curve" smooth="yes"/>
      <point x="104.00602409638553" y="542.9397590361446"/>
      <point x="266.40361445783134" y="672.222891566265"/>
      <point x="506.3433734939759" y="672.222891566265" type="curve" smooth="yes"/>
      <point x="747.3975903614457" y="672.222891566265"/>
      <point x="908.6807228915663" y="543.9397590361446"/>
      <point x="908.6807228915663" y="353.0" type="curve" smooth="yes"/>
      <point x="908.6807228915663" y="162.06024096385542"/>
      <point x="746.512048192771" y="32.77710843373494"/>
    </contour>
    <contour>
      <point x="334.1927710843374" y="142.2289156626506" type="line"/>
      <point x="391.355421686747" y="142.2289156626506" type="line"/>
      <point x="391.355421686747" y="334.1385542168675" type="line"/>
      <point x="373.60843373493975" y="317.53614457831327" type="line"/>
      <point x="510.99397590361446" y="317.53614457831327" type="line" smooth="yes"/>
      <point x="554.1927710843373" y="317.53614457831327"/>
      <point x="575.1626506024096" y="304.76506024096386"/>
      <point x="590.9036144578313" y="274.36746987951807" type="curve" smooth="yes"/>
      <point x="658.4397590361446" y="142.2289156626506" type="line"/>
      <point x="721.8614457831326" y="142.2289156626506" type="line"/>
      <point x="647.8674698795181" y="284.2831325301205" type="line" smooth="yes"/>
      <point x="628.5542168674698" y="321.7409638554217"/>
      <point x="603.6385542168675" y="336.1987951807229"/>
      <point x="570.3493975903614" y="336.1987951807229" type="curve"/>
      <point x="540.4879518072289" y="324.7409638554217" type="line"/>
      <point x="651.289156626506" y="324.7409638554217"/>
      <point x="712.2048192771084" y="367.855421686747"/>
      <point x="712.2048192771084" y="447.19879518072287" type="curve" smooth="yes"/>
      <point x="712.2048192771084" y="522.5421686746987"/>
      <point x="654.7469879518072" y="563.3433734939758"/>
      <point x="547.8313253012049" y="563.3433734939758" type="curve" smooth="yes"/>
      <point x="334.1927710843374" y="563.3433734939758" type="line"/>
    </contour>
    <contour>
      <point x="391.355421686747" y="363.89156626506025" type="line"/>
      <point x="391.355421686747" y="516.8734939759036" type="line"/>
      <point x="542.9698795180723" y="516.8734939759036" type="line" smooth="yes"/>
      <point x="617.2469879518073" y="516.8734939759036"/>
      <point x="653.2710843373494" y="492.8192771084337"/>
      <point x="653.2710843373494" y="440.9397590361446" type="curve" smooth="yes"/>
      <point x="653.2710843373494" y="389.0602409638554"/>
      <point x="617.0180722891565" y="363.89156626506025"/>
      <point x="542.9698795180723" y="363.89156626506025" type="curve" smooth="yes"/>
    </contour>
  </outline>
</glyph>
<glyph name="degree" format="2">
  <advance width="406.2349397590362"/>
  <unicode hex="00B0"/>
  <outline>
    <contour>
      <point x="203.17469879518075" y="399.50602409638554" type="curve" smooth="yes"/>
      <point x="292.578313253012" y="399.50602409638554"/>
      <point x="360.06626506024094" y="467.53614457831327"/>
      <point x="360.06626506024094" y="556.5963855421686" type="curve" smooth="yes"/>
      <point x="360.06626506024094" y="645.4277108433736"/>
      <point x="292.46385542168673" y="713.5722891566265"/>
      <point x="203.17469879518075" y="713.5722891566265" type="curve" smooth="yes"/>
      <point x="113.77108433734941" y="713.5722891566265"/>
      <point x="46.28313253012048" y="645.3132530120482"/>
      <point x="46.28313253012048" y="556.5963855421686" type="curve" smooth="yes"/>
      <point x="46.28313253012048" y="467.65060240963857"/>
      <point x="113.77108433734941" y="399.50602409638554"/>
    </contour>
    <contour>
      <point x="203.17469879518075" y="449.289156626506" type="curve" smooth="yes"/>
      <point x="142.03614457831324" y="449.289156626506"/>
      <point x="100.75301204819277" y="493.6867469879518"/>
      <point x="100.75301204819277" y="556.5963855421686" type="curve" smooth="yes"/>
      <point x="100.75301204819277" y="619.277108433735"/>
      <point x="142.03614457831324" y="663.789156626506"/>
      <point x="203.17469879518075" y="663.789156626506" type="curve" smooth="yes"/>
      <point x="264.08433734939763" y="663.789156626506"/>
      <point x="305.36746987951807" y="619.277108433735"/>
      <point x="305.36746987951807" y="556.5963855421686" type="curve" smooth="yes"/>
      <point x="305.36746987951807" y="493.6867469879518"/>
      <point x="264.08433734939763" y="449.289156626506"/>
    </contour>
  </outline>
</glyph>
<glyph name="plusminus" format="2">
  <advance width="748.0"/>
  <unicode hex="00B1"/>
  <outline>
    <contour>
      <point x="344.5903614457832" y="121.43975903614458" type="line"/>
      <point x="403.4096385542168" y="121.43975903614458" type="line"/>
      <point x="403.4096385542168" y="302.7710843373494" type="line"/>
      <point x="645.0" y="302.7710843373494" type="line"/>
      <point x="645.0" y="355.01807228915663" type="line"/>
      <point x="403.4096385542168" y="355.01807228915663" type="line"/>
      <point x="403.4096385542168" y="536.3493975903614" type="line"/>
      <point x="344.5903614457832" y="536.3493975903614" type="line"/>
      <point x="344.5903614457832" y="355.01807228915663" type="line"/>
      <point x="103.0" y="355.01807228915663" type="line"/>
      <point x="103.0" y="302.7710843373494" type="line"/>
      <point x="344.5903614457832" y="302.7710843373494" type="line"/>
    </contour>
    <contour>
      <point x="103.0" y="0.0" type="line"/>
      <point x="645.0" y="0.0" type="line"/>
      <point x="645.0" y="52.47590361445783" type="line"/>
      <point x="103.0" y="52.47590361445783" type="line"/>
    </contour>
  </outline>
</glyph>
<glyph name="micro" format="2">
  <advance width="687.4698795180723"/>
  <unicode hex="00B5"/>
  <outline>
    <contour>
      <point x="99.84939759036145" y="-180.0" type="line"/>
      <point x="166.90963855421688" y="-180.0" type="line"/>
      <point x="161.19277108433735" y="71.67469879518073" type="line"/>
      <point x="152.79518072289156" y="71.67469879518073" type="line"/>
      <point x="183.65060240963854" y="12.710843373493976"/>
      <point x="245.5" y="-8.457831325301205"/>
      <point x="321.5481927710843" y="-8.457831325301205" type="curve" smooth="yes"/>
      <point x="428.71084337349396" y="-8.457831325301205"/>
      <point x="494.81927710843377" y="40.596385542168676"/>
      <point x="528.644578313253" y="117.76506024096385" type="curve"/>
      <point x="520.2469879518073" y="117.76506024096385" type="line"/>
      <point x="520.2469879518073" y="0.0" type="line"/>
      <point x="585.8493975903614" y="0.0" type="line"/>
      <point x="585.8493975903614" y="485.144578313253" type="line"/>
      <point x="518.789156626506" y="485.144578313253" type="line"/>
      <point x="518.789156626506" y="230.51807228915663" type="line" smooth="yes"/>
      <point x="518.789156626506" y="122.75903614457832"/>
      <point x="444.7951807228916" y="48.65060240963855"/>
      <point x="321.921686746988" y="48.65060240963855" type="curve" smooth="yes"/>
      <point x="223.01807228915663" y="48.65060240963855"/>
      <point x="166.90963855421688" y="89.44578313253012"/>
      <point x="166.90963855421688" y="209.12048192771084" type="curve" smooth="yes"/>
      <point x="166.90963855421688" y="485.144578313253" type="line"/>
      <point x="99.84939759036145" y="485.144578313253" type="line"/>
    </contour>
  </outline>
</glyph>
<glyph name="paragraph" format="2">
  <advance width="700.0843373493976"/>
  <unicode hex="00B6"/>
  <outline>
    <contour>
      <point x="296.8614457831325" y="-180.0" type="line"/>
      <point x="355.6807228915663" y="-180.0" type="line"/>
      <point x="355.6807228915663" y="651.2951807228916" type="line"/>
      <point x="527.8433734939758" y="651.2951807228916" type="line"/>
      <point x="527.8433734939758" y="-180.0" type="line"/>
      <point x="586.6626506024097" y="-180.0" type="line"/>
      <point x="586.6626506024097" y="705.0" type="line"/>
      <point x="298.20481927710847" y="705.0" type="line" smooth="yes"/>
      <point x="149.96987951807228" y="705.0"/>
      <point x="58.22289156626506" y="631.4819277108434"/>
      <point x="58.22289156626506" y="512.4759036144578" type="curve" smooth="yes"/>
      <point x="58.22289156626506" y="393.4698795180723"/>
      <point x="149.85542168674698" y="318.72289156626505"/>
      <point x="296.8614457831325" y="318.72289156626505" type="curve"/>
    </contour>
  </outline>
</glyph>
<glyph name="periodcentered" format="2">
  <advance width="262.1867469879518"/>
  <unicode hex="00B7"/>
  <outline>
    <contour>
      <point x="83.76506024096386" y="219.9879518072289" type="line"/>
      <point x="178.30722891566265" y="219.9879518072289" type="line"/>
      <point x="178.30722891566265" y="311.2710843373494" type="line"/>
      <point x="83.76506024096386" y="311.2710843373494" type="line"/>
    </contour>
  </outline>
</glyph>
<glyph name="ordmasculine" format="2">
  <advance width="409.0963855421687"/>
  <unicode hex="00BA"/>
  <outline>
    <contour>
      <point x="204.66265060240966" y="411.6265060240964" type="curve" smooth="yes"/>
      <point x="310.21084337349396" y="411.6265060240964"/>
      <point x="377.9277108433735" y="470.62650602409633"/>
      <point x="377.9277108433735" y="562.656626506024" type="curve" smooth="yes"/>
      <point x="377.9277108433735" y="654.4578313253012"/>
      <point x="310.21084337349396" y="713.4578313253012"/>
      <point x="204.66265060240966" y="713.4578313253012" type="curve" smooth="yes"/>
      <point x="98.88554216867469" y="713.4578313253012"/>
      <point x="31.16867469879518" y="654.4578313253012"/>
      <point x="31.16867469879518" y="562.656626506024" type="curve" smooth="yes"/>
      <point x="31.16867469879518" y="470.62650602409633"/>
      <point x="98.88554216867469" y="411.6265060240964"/>
    </contour>
    <contour>
      <point x="204.66265060240966" y="452.5240963855422" type="curve" smooth="yes"/>
      <point x="127.66867469879517" y="452.5240963855422"/>
      <point x="82.3012048192771" y="491.23493975903614"/>
      <point x="82.3012048192771" y="562.656626506024" type="curve" smooth="yes"/>
      <point x="82.3012048192771" y="634.0783132530121"/>
      <point x="127.66867469879517" y="672.789156626506"/>
      <point x="204.66265060240966" y="672.789156626506" type="curve" smooth="yes"/>
      <point x="281.4277108433735" y="672.789156626506"/>
      <point x="326.7951807228916" y="634.078313253012"/>
      <point x="326.7951807228916" y="562.656626506024" type="curve" smooth="yes"/>
      <point x="326.7951807228916" y="491.23493975903614"/>
      <point x="281.4277108433735" y="452.5240963855422"/>
    </contour>
  </outline>
</glyph>
<glyph name="questiondown" format="2">
  <advance width="534.2409638554217"/>
  <unicode hex="00BF"/>
  <outline>
    <contour>
      <point x="257.12048192771084" y="-187.6867469879518" type="curve" smooth="yes"/>
      <point x="364.921686746988" y="-187.6867469879518"/>
      <point x="470.066265060241" y="-150.6024096385542"/>
      <point x="534.8975903614459" y="-88.86144578313254" type="curve"/>
      <point x="503.4879518072289" y="-34.867469879518076" type="line"/>
      <point x="431.28915662650604" y="-97.12048192771084"/>
      <point x="352.89156626506025" y="-126.86144578313252"/>
      <point x="259.72289156626505" y="-126.86144578313252" type="curve" smooth="yes"/>
      <point x="157.93373493975903" y="-126.86144578313252"/>
      <point x="103.05421686746988" y="-94.18072289156626"/>
      <point x="103.05421686746988" y="-33.01807228915663" type="curve" smooth="yes"/>
      <point x="103.05421686746988" y="9.975903614457831"/>
      <point x="130.10843373493975" y="49.19879518072289"/>
      <point x="196.44578313253012" y="101.50602409638553" type="curve" smooth="yes"/>
      <point x="286.5240963855422" y="172.43975903614455"/>
      <point x="309.32530120481925" y="225.92168674698797"/>
      <point x="309.32530120481925" y="283.3192771084337" type="curve" smooth="yes"/>
      <point x="309.32530120481925" y="308.5843373493976" type="line"/>
      <point x="267.53614457831327" y="308.5843373493976" type="line"/>
      <point x="265.1927710843373" y="286.1265060240964" type="line" smooth="yes"/>
      <point x="259.84939759036143" y="238.9879518072289"/>
      <point x="238.84939759036143" y="202.04819277108436"/>
      <point x="147.33734939759037" y="131.74096385542168" type="curve" smooth="yes"/>
      <point x="65.56626506024095" y="68.40361445783134"/>
      <point x="32.993975903614455" y="20.09036144578313"/>
      <point x="32.993975903614455" y="-38.36746987951807" type="curve" smooth="yes"/>
      <point x="32.993975903614455" y="-130.9698795180723"/>
      <point x="119.0" y="-187.6867469879518"/>
    </contour>
    <contour>
      <point x="241.789156626506" y="393.8614457831325" type="line"/>
      <point x="335.07228915662654" y="393.8614457831325" type="line"/>
      <point x="335.07228915662654" y="485.144578313253" type="line"/>
      <point x="241.789156626506" y="485.144578313253" type="line"/>
    </contour>
  </outline>
</glyph>
<glyph name="AE" format="2">
  <advance width="1209.9518072289156"/>
  <unicode hex="00C6"/>
  <anchor x="605.5722891566265" y="0.0" name="bottom"/>
  <anchor x="603.9156626506024" y="705.0" name="top"/>
  <outline>
    <contour>
      <point x="-8.271084337349397" y="0.0" type="line"/>
      <point x="73.87951807228914" y="0.0" type="line"/>
      <point x="224.04819277108433" y="203.4819277108434" type="line"/>
      <point x="193.00602409638554" y="184.9879518072289" type="line"/>
      <point x="680.4036144578314" y="184.9879518072289" type="line"/>
      <point x="651.4518072289156" y="206.16867469879517" type="line"/>
      <point x="707.566265060241" y="0.0" type="line"/>
      <point x="1151.379518072289" y="0.0" type="line"/>
      <point x="1151.379518072289" y="57.795180722891565" type="line"/>
      <point x="735.4698795180723" y="57.795180722891565" type="line"/>
      <point x="765.8795180722891" y="33.33132530120482" type="line"/>
      <point x="681.2831325301205" y="346.5120481927711" type="line"/>
      <point x="662.277108433735" y="329.2168674698795" type="line"/>
      <point x="1126.1506024096386" y="329.2168674698795" type="line"/>
      <point x="1126.1506024096386" y="387.0120481927711" type="line"/>
      <point x="649.7289156626507" y="387.0120481927711" type="line"/>
      <point x="675.1385542168675" y="368.0602409638554" type="line"/>
      <point x="592.2289156626505" y="673.7228915662652" type="line"/>
      <point x="579.3915662650603" y="647.2048192771084" type="line"/>
      <point x="1151.379518072289" y="647.2048192771084" type="line"/>
      <point x="1151.379518072289" y="705.0" type="line"/>
      <point x="518.4759036144578" y="705.0" type="line"/>
    </contour>
    <contour>
      <point x="535.343373493976" y="626.0843373493976" type="line"/>
      <point x="537.343373493976" y="626.0843373493976" type="line"/>
      <point x="645.5361445783133" y="227.25903614457832" type="line"/>
      <point x="656.9156626506024" y="243.66867469879517" type="line"/>
      <point x="226.96385542168676" y="243.66867469879517" type="line"/>
      <point x="240.710843373494" y="226.5180722891566" type="line"/>
    </contour>
  </outline>
</glyph>
<glyph name="multiply" format="2">
  <advance width="748.0"/>
  <unicode hex="00D7"/>
  <outline>
    <contour>
      <point x="166.95180722891567" y="42.367469879518076" type="line"/>
      <point x="374.0" y="249.5301204819277" type="line"/>
      <point x="581.0481927710844" y="42.367469879518076" type="line"/>
      <point x="618.7469879518072" y="79.95180722891565" type="line"/>
      <point x="410.8132530120482" y="286.0" type="line"/>
      <point x="618.7469879518072" y="494.0481927710843" type="line"/>
      <point x="581.0481927710844" y="531.8614457831325" type="line"/>
      <point x="373.1144578313253" y="324.1566265060241" type="line"/>
      <point x="163.40963855421688" y="531.8614457831325" type="line"/>
      <point x="129.25301204819277" y="494.0481927710843" type="line"/>
      <point x="336.3012048192771" y="286.8855421686747" type="line"/>
      <point x="129.25301204819277" y="79.95180722891565" type="line"/>
    </contour>
  </outline>
</glyph>
<glyph name="Thorn" format="2">
  <advance width="769.3012048192771"/>
  <unicode hex="00DE"/>
  <anchor x="394.8072289156627" y="0.0" name="bottom"/>
  <anchor x="394.921686746988" y="705.0" name="top"/>
  <outline>
    <contour>
      <point x="113.42168674698794" y="0.0" type="line"/>
      <point x="182.1987951807229" y="0.0" type="line"/>
      <point x="182.1987951807229" y="156.22289156626505" type="line"/>
      <point x="453.3855421686747" y="156.22289156626505" type="line" smooth="yes"/>
      <point x="636.7590361445783" y="156.22289156626505"/>
      <point x="729.7048192771084" y="226.3975903614458"/>
      <point x="729.7048192771084" y="365.4578313253012" type="curve" smooth="yes"/>
      <point x="729.7048192771084" y="505.40361445783134"/>
      <point x="636.7590361445783" y="574.4638554216868"/>
      <point x="453.3855421686747" y="574.4638554216868" type="curve" smooth="yes"/>
      <point x="182.1987951807229" y="574.4638554216868" type="line"/>
      <point x="182.1987951807229" y="705.0" type="line"/>
      <point x="113.42168674698794" y="705.0" type="line"/>
    </contour>
    <contour>
      <point x="182.1987951807229" y="213.78915662650604" type="line"/>
      <point x="182.1987951807229" y="516.8975903614457" type="line"/>
      <point x="450.15060240963857" y="516.8975903614457" type="line" smooth="yes"/>
      <point x="594.9939759036145" y="516.8975903614457"/>
      <point x="659.5301204819277" y="470.6746987951807"/>
      <point x="659.5301204819277" y="365.5722891566265" type="curve" smooth="yes"/>
      <point x="659.5301204819277" y="260.5843373493976"/>
      <point x="593.6506024096385" y="213.78915662650604"/>
      <point x="450.15060240963857" y="213.78915662650604" type="curve" smooth="yes"/>
    </contour>
  </outline>
</glyph>
<glyph name="germandbls" format="2">
  <advance width="731.8855421686746"/>
  <unicode hex="00DF"/>
  <outline>
    <contour>
      <point x="475.4216867469879" y="-8.457831325301205" type="curve" smooth="yes"/>
      <point x="606.2590361445783" y="-8.457831325301205"/>
      <point x="693.0903614457831" y="46.94578313253012"/>
      <point x="693.0903614457831" y="138.26506024096383" type="curve" smooth="yes"/>
      <point x="693.0903614457831" y="217.95180722891567"/>
      <point x="628.4638554216867" y="255.55421686746988"/>
      <point x="510.03614457831327" y="276.43975903614455" type="curve" smooth="yes"/>
      <point x="420.34939759036143" y="292.55421686746985"/>
      <point x="368.6144578313253" y="309.72289156626505"/>
      <point x="368.6144578313253" y="364.80120481927713" type="curve" smooth="yes"/>
      <point x="368.6144578313253" y="404.59638554216866"/>
      <point x="400.98192771084337" y="425.99397590361446"/>
      <point x="444.43975903614455" y="452.59638554216866" type="curve" smooth="yes"/>
      <point x="508.49397590361446" y="490.710843373494"/>
      <point x="549.9759036144578" y="528.5963855421687"/>
      <point x="549.9759036144578" y="587.6506024096385" type="curve" smooth="yes"/>
      <point x="549.9759036144578" y="668.855421686747"/>
      <point x="481.1686746987952" y="713.4578313253012"/>
      <point x="353.6987951807229" y="713.4578313253012" type="curve" smooth="yes"/>
      <point x="189.85542168674698" y="713.4578313253012"/>
      <point x="99.19277108433734" y="640.2831325301205"/>
      <point x="99.19277108433734" y="503.90361445783134" type="curve" smooth="yes"/>
      <point x="99.19277108433734" y="0.0" type="line"/>
      <point x="166.25301204819277" y="0.0" type="line"/>
      <point x="166.25301204819277" y="508.1927710843373" type="line" smooth="yes"/>
      <point x="166.25301204819277" y="609.2710843373494"/>
      <point x="230.50602409638554" y="658.5240963855422"/>
      <point x="354.5" y="658.5240963855422" type="curve" smooth="yes"/>
      <point x="440.15060240963857" y="658.5240963855422"/>
      <point x="482.0903614457831" y="634.4698795180723"/>
      <point x="482.0903614457831" y="583.2469879518072" type="curve" smooth="yes"/>
      <point x="482.0903614457831" y="538.2530120481928"/>
      <point x="445.86746987951807" y="512.4277108433735"/>
      <point x="400.355421686747" y="484.855421686747" type="curve" smooth="yes"/>
      <point x="340.1265060240964" y="448.2530120481928"/>
      <point x="301.5301204819277" y="413.10843373493975"/>
      <point x="301.5301204819277" y="356.48192771084337" type="curve" smooth="yes"/>
      <point x="301.5301204819277" y="277.2530120481928"/>
      <point x="364.95783132530124" y="242.53614457831324"/>
      <point x="483.7289156626506" y="222.22289156626505" type="curve" smooth="yes"/>
      <point x="591.5240963855422" y="203.25301204819277"/>
      <point x="625.3493975903615" y="177.1144578313253"/>
      <point x="625.3493975903615" y="135.23493975903614" type="curve" smooth="yes"/>
      <point x="625.3493975903615" y="79.6144578313253"/>
      <point x="568.843373493976" y="46.162650602409634"/>
      <point x="478.8253012048193" y="46.162650602409634" type="curve" smooth="yes"/>
      <point x="414.59638554216866" y="46.162650602409634"/>
      <point x="344.22289156626505" y="63.81927710843374"/>
      <point x="282.76506024096386" y="107.44578313253012" type="curve"/>
      <point x="253.41566265060243" y="58.96987951807229" type="line"/>
      <point x="307.13253012048193" y="15.427710843373493"/>
      <point x="394.73493975903614" y="-8.457831325301205"/>
    </contour>
  </outline>
</glyph>
<glyph name="ae" format="2">
  <advance width="1064.602409638554"/>
  <unicode hex="00E6"/>
  <anchor x="518.4036144578313" y="0.0" name="bottom"/>
  <anchor x="518.4036144578313" y="484.0" name="top"/>
  <outline>
    <contour>
      <point x="280.4879518072289" y="-8.457831325301205" type="curve" smooth="yes"/>
      <point x="405.2590361445783" y="-8.457831325301205"/>
      <point x="495.80120481927713" y="50.13855421686747"/>
      <point x="528.3734939759036" y="151.01807228915663" type="curve"/>
      <point x="500.0542168674699" y="151.01807228915663" type="line"/>
      <point x="534.8012048192771" y="49.68072289156626"/>
      <point x="633.9759036144578" y="-8.457831325301205"/>
      <point x="769.8614457831326" y="-8.457831325301205" type="curve" smooth="yes"/>
      <point x="866.777108433735" y="-8.457831325301205"/>
      <point x="956.6927710843373" y="19.626506024096386"/>
      <point x="1001.8373493975904" y="62.79518072289158" type="curve"/>
      <point x="977.4036144578314" y="111.5" type="line"/>
      <point x="924.1204819277108" y="68.04819277108435"/>
      <point x="859.8614457831326" y="47.62048192771084"/>
      <point x="778.6626506024096" y="47.62048192771084" type="curve" smooth="yes"/>
      <point x="629.1265060240964" y="47.62048192771084"/>
      <point x="550.933734939759" y="116.35542168674698"/>
      <point x="550.933734939759" y="242.06024096385542" type="curve" smooth="yes"/>
      <point x="550.933734939759" y="248.4036144578313" type="line" smooth="yes"/>
      <point x="550.933734939759" y="366.84939759036143"/>
      <point x="631.9819277108434" y="441.69879518072287"/>
      <point x="760.4578313253012" y="441.69879518072287" type="curve" smooth="yes"/>
      <point x="883.0180722891566" y="441.69879518072287"/>
      <point x="951.4397590361446" y="377.96385542168673"/>
      <point x="951.7831325301204" y="263.3192771084337" type="curve"/>
      <point x="973.0120481927711" y="279.89156626506025" type="line"/>
      <point x="529.6746987951807" y="279.89156626506025" type="line"/>
      <point x="529.6746987951807" y="231.84939759036146" type="line"/>
      <point x="1011.8373493975904" y="231.84939759036146" type="line"/>
      <point x="1011.8373493975904" y="258.0542168674699" type="line" smooth="yes"/>
      <point x="1011.8373493975904" y="406.0"/>
      <point x="917.8614457831326" y="493.6024096385542"/>
      <point x="760.0843373493975" y="493.6024096385542" type="curve" smooth="yes"/>
      <point x="653.1506024096385" y="493.6024096385542"/>
      <point x="562.6927710843373" y="446.921686746988"/>
      <point x="520.5481927710844" y="366.7590361445783" type="curve"/>
      <point x="538.2349397590363" y="366.7590361445783" type="line"/>
      <point x="520.5722891566264" y="450.5783132530121"/>
      <point x="448.6566265060241" y="493.6024096385542"/>
      <point x="331.06024096385545" y="493.6024096385542" type="curve" smooth="yes"/>
      <point x="243.34337349397592" y="493.6024096385542"/>
      <point x="156.13855421686748" y="469.83132530120486"/>
      <point x="98.84939759036145" y="431.83132530120486" type="curve"/>
      <point x="123.96987951807229" y="379.1265060240964" type="line"/>
      <point x="180.0" y="417.09638554216866"/>
      <point x="251.0301204819277" y="437.6385542168675"/>
      <point x="326.9156626506024" y="437.6385542168675" type="curve" smooth="yes"/>
      <point x="433.22289156626505" y="437.6385542168675"/>
      <point x="484.2469879518072" y="398.9578313253012"/>
      <point x="484.2469879518072" y="317.59638554216866" type="curve" smooth="yes"/>
      <point x="484.2469879518072" y="201.2289156626506" type="line" smooth="yes"/>
      <point x="484.2469879518072" y="110.86746987951807"/>
      <point x="400.05421686746985" y="43.903614457831324"/>
      <point x="286.00602409638554" y="43.903614457831324" type="curve" smooth="yes"/>
      <point x="198.9578313253012" y="43.903614457831324"/>
      <point x="143.30722891566265" y="83.12650602409639"/>
      <point x="143.30722891566265" y="143.63253012048193" type="curve" smooth="yes"/>
      <point x="143.30722891566265" y="209.90963855421688"/>
      <point x="203.10240963855424" y="231.84939759036146"/>
      <point x="381.2831325301205" y="231.84939759036146" type="curve" smooth="yes"/>
      <point x="493.421686746988" y="231.84939759036146" type="line"/>
      <point x="493.421686746988" y="279.89156626506025" type="line"/>
      <point x="378.7409638554217" y="279.89156626506025" type="line" smooth="yes"/>
      <point x="157.45180722891567" y="279.89156626506025"/>
      <point x="73.84939759036145" y="241.40361445783134"/>
      <point x="73.84939759036145" y="141.9457831325301" type="curve" smooth="yes"/>
      <point x="73.84939759036145" y="54.1144578313253"/>
      <point x="158.90963855421685" y="-8.457831325301205"/>
    </contour>
  </outline>
</glyph>
<glyph name="eth" format="2">
  <advance width="675.644578313253"/>
  <unicode hex="00F0"/>
  <outline>
    <contour>
      <point x="338.578313253012" y="-8.457831325301205" type="curve" smooth="yes"/>
      <point x="512.4457831325301" y="-8.457831325301205"/>
      <point x="616.3072289156627" y="87.45783132530121"/>
      <point x="616.3072289156627" y="246.54819277108433" type="curve" smooth="yes"/>
      <point x="616.3072289156627" y="428.48192771084337"/>
      <point x="557.933734939759" y="544.7349397590361"/>
      <point x="419.42771084337346" y="623.3614457831326" type="curve"/>
      <point x="419.1144578313253" y="614.2168674698795" type="line"/>
      <point x="553.1084337349397" y="669.6144578313252" type="line"/>
      <point x="533.8734939759037" y="713.5722891566264" type="line"/>
      <point x="366.29518072289153" y="644.6265060240963" type="line"/>
      <point x="383.67469879518075" y="642.5963855421686" type="line"/>
      <point x="326.5" y="670.2831325301205"/>
      <point x="255.92168674698794" y="694.2289156626506"/>
      <point x="170.93975903614458" y="713.5722891566264" type="curve"/>
      <point x="159.56626506024097" y="668.644578313253" type="line"/>
      <point x="222.93975903614458" y="655.987951807229"/>
      <point x="279.5421686746988" y="638.0722891566264"/>
      <point x="323.33734939759034" y="619.0180722891566" type="curve"/>
      <point x="324.10843373493975" y="627.7349397590361" type="line"/>
      <point x="153.65060240963857" y="557.3915662650602" type="line"/>
      <point x="173.0" y="513.433734939759" type="line"/>
      <point x="380.72289156626505" y="598.9518072289156" type="line"/>
      <point x="359.83734939759034" y="600.2951807228916" type="line"/>
      <point x="484.9638554216868" y="534.9879518072289"/>
      <point x="551.9638554216867" y="432.82530120481925"/>
      <point x="550.078313253012" y="293.066265060241" type="curve"/>
      <point x="577.4277108433735" y="293.066265060241" type="line"/>
      <point x="545.855421686747" y="400.94578313253015"/>
      <point x="462.10843373493975" y="452.05421686746985"/>
      <point x="336.31325301204816" y="452.05421686746985" type="curve" smooth="yes"/>
      <point x="169.16867469879517" y="452.05421686746985"/>
      <point x="62.22289156626506" y="361.0542168674699"/>
      <point x="62.22289156626506" y="221.855421686747" type="curve" smooth="yes"/>
      <point x="62.22289156626506" y="82.0843373493976"/>
      <point x="170.4277108433735" y="-8.457831325301205"/>
    </contour>
    <contour>
      <point x="338.6927710843373" y="47.27710843373494" type="curve" smooth="yes"/>
      <point x="210.01807228915663" y="47.27710843373494"/>
      <point x="131.16867469879517" y="113.78313253012048"/>
      <point x="131.16867469879517" y="221.855421686747" type="curve" smooth="yes"/>
      <point x="131.16867469879517" y="329.8132530120482"/>
      <point x="210.1325301204819" y="396.2048192771084"/>
      <point x="338.6927710843373" y="396.2048192771084" type="curve" smooth="yes"/>
      <point x="467.48192771084337" y="396.2048192771084"/>
      <point x="546.4457831325301" y="329.8132530120482"/>
      <point x="546.4457831325301" y="221.855421686747" type="curve" smooth="yes"/>
      <point x="546.4457831325301" y="113.66867469879519"/>
      <point x="467.48192771084337" y="47.27710843373494"/>
    </contour>
  </outline>
</glyph>
<glyph name="divide" format="2">
  <advance width="748.0"/>
  <unicode hex="00F7"/>
  <outline>
    <contour>
      <point x="103.0" y="260.8192771084337" type="line"/>
      <point x="645.0" y="260.8192771084337" type="line"/>
      <point x="645.0" y="313.29518072289153" type="line"/>
      <point x="103.0" y="313.29518072289153" type="line"/>
    </contour>
    <contour>
      <point x="331.1927710843373" y="45.68072289156626" type="line"/>
      <point x="416.8072289156627" y="45.68072289156626" type="line"/>
      <point x="416.8072289156627" y="127.57831325301204" type="line"/>
      <point x="331.1927710843373" y="127.57831325301204" type="line"/>
    </contour>
    <contour>
      <point x="331.1927710843373" y="446.53614457831327" type="line"/>
      <point x="416.8072289156627" y="446.53614457831327" type="line"/>
      <point x="416.8072289156627" y="528.433734939759" type="line"/>
      <point x="331.1927710843373" y="528.433734939759" type="line"/>
    </contour>
  </outline>
</glyph>
